<svg width="19" height="18" viewBox="0 0 19 18" fill="none" xmlns="http://www.w3.org/2000/svg">
<g clip-path="url(#clip0_418_947)">
<path d="M9.06486 18H9.08341C11.4791 17.9984 13.7766 17.0474 15.4725 15.3553C17.1685 13.6632 18.1247 11.3679 18.1318 8.97218C18.1324 8.76878 18.0928 8.56726 18.0154 8.37916C17.938 8.19106 17.8243 8.02006 17.6807 7.87595C17.5372 7.73183 17.3667 7.61743 17.1789 7.53928C16.9911 7.46113 16.7897 7.42076 16.5863 7.42049C16.1762 7.42049 15.7829 7.58325 15.4928 7.87303C15.2026 8.16281 15.0393 8.55591 15.0388 8.966C15.0355 10.544 14.406 12.0562 13.2887 13.1705C12.1713 14.2848 10.6573 14.9101 9.07928 14.909L9.06486 14.909C8.28281 14.9066 7.50891 14.75 6.7874 14.4483C6.06589 14.1466 5.41092 13.7056 4.85994 13.1506C4.30895 12.5956 3.87276 11.9375 3.5763 11.2138C3.27984 10.4901 3.12892 9.71507 3.13218 8.93303C3.13272 8.72945 3.09309 8.52777 3.01556 8.33953C2.93803 8.1513 2.82412 7.98021 2.68036 7.83607C2.5366 7.69193 2.36582 7.57756 2.17779 7.49953C1.98976 7.4215 1.78819 7.38134 1.58461 7.38134C1.38068 7.38079 1.17867 7.42056 0.99016 7.49835C0.801655 7.57613 0.630383 7.69041 0.486185 7.83461C0.34199 7.9788 0.227715 8.15007 0.149929 8.33858C0.0721416 8.52708 0.0323753 8.7291 0.0329189 8.93303C0.0329018 11.3317 0.983358 13.6326 2.67618 15.332C4.36899 17.0314 6.66622 17.9907 9.06486 18Z" fill="#B784CE"/>
<path d="M16.6172 3.05803C17.0189 3.05803 17.4042 2.89846 17.6882 2.61442C17.9723 2.33038 18.1318 1.94513 18.1318 1.54344C18.1318 1.14174 17.9723 0.756497 17.6882 0.472456C17.4042 0.188414 17.0189 0.0288408 16.6172 0.0288408C16.2162 0.0299256 15.8319 0.189565 15.5482 0.472927C15.2644 0.756289 15.1043 1.14037 15.1026 1.54138C15.102 1.7404 15.1409 1.93757 15.2169 2.12149C15.293 2.30541 15.4047 2.47244 15.5457 2.61293C15.6818 2.75977 15.848 2.87555 16.0329 2.95236C16.2178 3.02917 16.4171 3.06521 16.6172 3.05803Z" fill="#B784CE"/>
<path d="M1.56807 3.02713C1.8679 3.02794 2.16121 2.93976 2.41087 2.77374C2.66053 2.60772 2.8553 2.37133 2.97051 2.09453C3.08572 1.81772 3.11618 1.51296 3.05804 1.21882C2.9999 0.924695 2.85577 0.654436 2.64391 0.442286C2.43204 0.230135 2.16198 0.0856373 1.86793 0.0270946C1.57388 -0.0314484 1.26907 -0.00140166 0.99211 0.113429C0.71515 0.228259 0.478501 0.422707 0.31214 0.67214C0.145779 0.921574 0.0571926 1.21477 0.0575995 1.51459C0.0570576 1.71339 0.0957117 1.91035 0.171352 2.0942C0.246993 2.27806 0.358136 2.44519 0.498424 2.58605C0.638711 2.72692 0.805391 2.83874 0.988931 2.91513C1.17247 2.99152 1.36927 3.03098 1.56807 3.03125V3.02713Z" fill="#B784CE"/>
</g>
<defs>
<clipPath id="clip0_418_947">
<rect width="18.0989" height="18" fill="white" transform="matrix(-1 0 0 -1 18.1318 18)"/>
</clipPath>
</defs>
</svg>
