<svg width="118" height="100" viewBox="0 0 118 100" fill="none" xmlns="http://www.w3.org/2000/svg">
<g clip-path="url(#clip0_438_416)">
<path d="M86.7619 84.2857H12.8571C10.7109 84.2832 8.65333 83.4295 7.13573 81.9119C5.61812 80.3943 4.76442 78.3367 4.7619 76.1905V6.66667C4.7619 6.28779 4.91241 5.92443 5.18032 5.65652C5.44823 5.38861 5.81159 5.2381 6.19047 5.2381C6.56935 5.2381 6.93272 5.38861 7.20063 5.65652C7.46854 5.92443 7.61904 6.28779 7.61904 6.66667V76.1905C7.62156 77.5789 8.17424 78.9098 9.15603 79.8916C10.1378 80.8734 11.4687 81.4261 12.8571 81.4286H86.7619C87.1408 81.4286 87.5042 81.5791 87.7721 81.847C88.04 82.1149 88.1905 82.4783 88.1905 82.8571C88.1905 83.236 88.04 83.5994 87.7721 83.8673C87.5042 84.1352 87.1408 84.2857 86.7619 84.2857Z" fill="#333333"/>
<path d="M104.286 84.2857H93.6476C93.2687 84.2857 92.9053 84.1352 92.6374 83.8673C92.3695 83.5994 92.219 83.236 92.219 82.8571C92.219 82.4783 92.3695 82.1149 92.6374 81.847C92.9053 81.5791 93.2687 81.4286 93.6476 81.4286H104.286C105.674 81.4261 107.005 80.8734 107.987 79.8916C108.969 78.9098 109.521 77.5789 109.524 76.1905V6.66667C109.524 6.28779 109.674 5.92443 109.942 5.65652C110.21 5.38861 110.573 5.2381 110.952 5.2381C111.331 5.2381 111.695 5.38861 111.962 5.65652C112.23 5.92443 112.381 6.28779 112.381 6.66667V76.1905C112.378 78.3367 111.525 80.3943 110.007 81.9119C108.489 83.4295 106.432 84.2832 104.286 84.2857Z" fill="#333333"/>
<path d="M58.5715 90.6C58.1926 90.6 57.8292 90.4495 57.5613 90.1816C57.2934 89.9137 57.1429 89.5503 57.1429 89.1714V82.8572C57.1429 82.4783 57.2934 82.1149 57.5613 81.847C57.8292 81.5791 58.1926 81.4286 58.5715 81.4286C58.9503 81.4286 59.3137 81.5791 59.5816 81.847C59.8495 82.1149 60 82.4783 60 82.8572V89.1714C60 89.5503 59.8495 89.9137 59.5816 90.1816C59.3137 90.4495 58.9503 90.6 58.5715 90.6Z" fill="#333333"/>
<path d="M58.5715 100C57.3471 100 56.1502 99.6369 55.1322 98.9567C54.1142 98.2765 53.3207 97.3097 52.8522 96.1785C52.3837 95.0473 52.2611 93.8026 52.4999 92.6018C52.7388 91.401 53.3284 90.2979 54.1941 89.4322C55.0599 88.5664 56.1629 87.9768 57.3638 87.738C58.5646 87.4991 59.8093 87.6217 60.9405 88.0902C62.0716 88.5588 63.0384 89.3522 63.7187 90.3703C64.3989 91.3883 64.7619 92.5851 64.7619 93.8095C64.7594 95.4505 64.1064 97.0236 62.946 98.184C61.7856 99.3444 60.2125 99.9975 58.5715 100ZM58.5715 90.4762C57.9122 90.4762 57.2677 90.6717 56.7196 91.0379C56.1714 91.4042 55.7442 91.9248 55.4919 92.5339C55.2396 93.143 55.1736 93.8132 55.3022 94.4598C55.4308 95.1064 55.7483 95.7003 56.2144 96.1665C56.6806 96.6327 57.2746 96.9502 57.9212 97.0788C58.5678 97.2074 59.238 97.1414 59.8471 96.8891C60.4562 96.6368 60.9768 96.2096 61.343 95.6614C61.7093 95.1132 61.9048 94.4688 61.9048 93.8095C61.9048 92.9254 61.5536 92.0776 60.9285 91.4525C60.3034 90.8274 59.4555 90.4762 58.5715 90.4762Z" fill="#333333"/>
<path d="M115.714 7.61905H1.42857C1.04969 7.61905 0.686328 7.46854 0.418419 7.20063C0.15051 6.93272 0 6.56936 0 6.19048L0 1.42857C0 1.04969 0.15051 0.686328 0.418419 0.418419C0.686328 0.15051 1.04969 0 1.42857 0L115.714 0C116.093 0 116.457 0.15051 116.724 0.418419C116.992 0.686328 117.143 1.04969 117.143 1.42857V6.19048C117.143 6.56936 116.992 6.93272 116.724 7.20063C116.457 7.46854 116.093 7.61905 115.714 7.61905ZM2.85714 4.7619H114.286V2.85714H2.85714V4.7619Z" fill="#333333"/>
<path d="M42.7619 23.5905H16.019C15.6401 23.5905 15.2768 23.44 15.0089 23.1721C14.741 22.9042 14.5905 22.5408 14.5905 22.1619C14.5905 21.783 14.741 21.4197 15.0089 21.1518C15.2768 20.8838 15.6401 20.7333 16.019 20.7333H42.7619C43.1408 20.7333 43.5041 20.8838 43.772 21.1518C44.0399 21.4197 44.1905 21.783 44.1905 22.1619C44.1905 22.5408 44.0399 22.9042 43.772 23.1721C43.5041 23.44 43.1408 23.5905 42.7619 23.5905Z" fill="#9C3BA3"/>
<path d="M54.2857 33.2H16.019C15.6401 33.2 15.2768 33.0495 15.0089 32.7816C14.741 32.5137 14.5905 32.1503 14.5905 31.7714C14.5905 31.3925 14.741 31.0292 15.0089 30.7613C15.2768 30.4933 15.6401 30.3428 16.019 30.3428H54.2857C54.6646 30.3428 55.0279 30.4933 55.2958 30.7613C55.5638 31.0292 55.7143 31.3925 55.7143 31.7714C55.7143 32.1503 55.5638 32.5137 55.2958 32.7816C55.0279 33.0495 54.6646 33.2 54.2857 33.2Z" fill="#333333"/>
<path d="M54.2857 41.2953H16.019C15.6401 41.2953 15.2768 41.1447 15.0089 40.8768C14.741 40.6089 14.5905 40.2456 14.5905 39.8667C14.5905 39.4878 14.741 39.1244 15.0089 38.8565C15.2768 38.5886 15.6401 38.4381 16.019 38.4381H54.2857C54.6646 38.4381 55.0279 38.5886 55.2958 38.8565C55.5638 39.1244 55.7143 39.4878 55.7143 39.8667C55.7143 40.2456 55.5638 40.6089 55.2958 40.8768C55.0279 41.1447 54.6646 41.2953 54.2857 41.2953Z" fill="#333333"/>
<path d="M34.2857 49.3905H16.019C15.6401 49.3905 15.2768 49.24 15.0089 48.9721C14.741 48.7041 14.5905 48.3408 14.5905 47.9619C14.5905 47.583 14.741 47.2197 15.0089 46.9517C15.2768 46.6838 15.6401 46.5333 16.019 46.5333H34.2857C34.6646 46.5333 35.0279 46.6838 35.2958 46.9517C35.5638 47.2197 35.7143 47.583 35.7143 47.9619C35.7143 48.3408 35.5638 48.7041 35.2958 48.9721C35.0279 49.24 34.6646 49.3905 34.2857 49.3905Z" fill="#333333"/>
<path d="M21.0476 76.1905H16.019C15.6401 76.1905 15.2768 76.0399 15.0089 75.772C14.741 75.5041 14.5905 75.1408 14.5905 74.7619C14.5905 74.383 14.741 74.0196 15.0089 73.7517C15.2768 73.4838 15.6401 73.3333 16.019 73.3333H21.0476C21.4265 73.3333 21.7898 73.4838 22.0577 73.7517C22.3257 74.0196 22.4762 74.383 22.4762 74.7619C22.4762 75.1408 22.3257 75.5041 22.0577 75.772C21.7898 76.0399 21.4265 76.1905 21.0476 76.1905Z" fill="#333333"/>
<path d="M82.8571 39.5238H101.429C101.429 43.1969 100.339 46.7875 98.2987 49.8416C96.258 52.8956 93.3575 55.276 89.9641 56.6816C86.5706 58.0872 82.8365 58.455 79.234 57.7384C75.6315 57.0218 72.3224 55.2531 69.7251 52.6558C67.1278 50.0585 65.3591 46.7494 64.6425 43.1469C63.9259 39.5444 64.2937 35.8103 65.6993 32.4168C67.1049 29.0234 69.4853 26.1229 72.5393 24.0822C75.5934 22.0416 79.184 20.9524 82.8571 20.9524V39.5238Z" fill="#B784CE"/>
<g opacity="0.2">
<path d="M84.762 37.619V19.0476C89.6874 19.0476 94.4111 21.0042 97.8939 24.4871C101.377 27.9699 103.333 32.6936 103.333 37.619H84.762Z" fill="#B784CE"/>
</g>
</g>
<defs>
<clipPath id="clip0_438_416">
<rect width="117.143" height="100" fill="white"/>
</clipPath>
</defs>
</svg>
