<svg width="48" height="48" viewBox="0 0 48 48" fill="none" xmlns="http://www.w3.org/2000/svg">
<circle cx="24" cy="24" r="24" fill="#8E178E"/>
<path d="M24.6802 10C18.9202 10 13.2402 13.84 13.2402 20.04C13.2402 23.98 15.4602 26.24 16.8002 26.24C17.3602 26.24 17.6802 24.7 17.6802 24.26C17.6802 23.74 16.3602 22.62 16.3602 20.46C16.3602 15.94 19.8002 12.76 24.2402 12.76C28.0602 12.76 30.8802 14.94 30.8802 18.92C30.8802 21.9 29.6802 27.48 25.8202 27.48C24.4202 27.48 23.2202 26.48 23.2202 25.02C23.2202 22.9 24.7002 20.84 24.7002 18.66C24.7002 14.94 19.4402 15.62 19.4402 20.1C19.4402 21.04 19.5602 22.08 19.9802 22.94C19.2002 26.28 17.6202 31.24 17.6202 34.68C17.6202 35.74 17.7802 36.78 17.8802 37.84C18.0802 38.06 17.9802 38.04 18.2602 37.92C21.0802 34.04 20.9802 33.3 22.2602 28.22C22.9602 29.54 24.7402 30.24 26.1402 30.24C32.1002 30.24 34.7802 24.44 34.7802 19.2C34.7802 13.62 29.9602 10 24.6802 10Z" fill="white"/>
</svg>
