<svg width="48" height="48" viewBox="0 0 48 48" fill="none" xmlns="http://www.w3.org/2000/svg">
<circle cx="24" cy="24" r="24" fill="#8E178E"/>
<path d="M23 24C23 25.3261 22.4732 26.5979 21.5355 27.5355C20.5979 28.4732 19.3261 29 18 29C16.6739 29 15.4021 28.4732 14.4645 27.5355C13.5268 26.5979 13 25.3261 13 24C13 22.6739 13.5268 21.4021 14.4645 20.4645C15.4021 19.5268 16.6739 19 18 19C19.3261 19 20.5979 19.5268 21.5355 20.4645C22.4732 21.4021 23 22.6739 23 24ZM35 24C35 25.3261 34.4732 26.5979 33.5355 27.5355C32.5979 28.4732 31.3261 29 30 29C28.6739 29 27.4021 28.4732 26.4645 27.5355C25.5268 26.5979 25 25.3261 25 24C25 22.6739 25.5268 21.4021 26.4645 20.4645C27.4021 19.5268 28.6739 19 30 19C31.3261 19 32.5979 19.5268 33.5355 20.4645C34.4732 21.4021 35 22.6739 35 24Z" fill="white"/>
</svg>
