<svg width="48" height="48" viewBox="0 0 48 48" fill="none" xmlns="http://www.w3.org/2000/svg">
<circle cx="24" cy="24" r="24" fill="#8E178E"/>
<path d="M34.1067 24.3599C34.0534 23.5332 33.7734 22.9066 33.2801 22.4799C32.7867 22.0532 32.1734 21.8399 31.4401 21.8399C30.6667 21.8399 30.0001 22.0666 29.5868 22.5199C29.1467 22.9732 28.8667 23.5866 28.7601 24.3599M37.2267 24.0532C37.3334 24.5999 37.3334 25.3866 37.3334 26.4132H28.6667C28.7334 27.6132 29.1334 28.4399 29.9201 28.9199C30.3867 29.2266 30.9601 29.3732 31.6401 29.3732C32.3467 29.3732 32.9201 29.1866 33.3334 28.8266C33.6001 28.6266 33.8134 28.3599 34.0001 27.9999H37.1734C37.0934 28.7199 36.7067 29.4266 36.0001 30.1599C34.9601 31.3332 33.4667 31.8932 31.5467 31.8932C29.9601 31.8932 28.5734 31.3999 27.3334 30.4266C26.1601 29.4532 25.5467 27.8666 25.5467 25.6666C25.5467 23.5999 26.0934 21.9999 27.1867 20.9332C28.2801 19.8266 29.6934 19.2799 31.4401 19.2799C32.4667 19.2799 33.4001 19.4666 34.2267 19.8399C35.0534 20.2132 35.7467 20.7866 36.2801 21.5999C36.7734 22.3066 37.0801 23.1199 37.2267 24.0532ZM20.7734 26.7599C20.7734 25.8932 20.4134 25.2932 19.7201 24.9732C19.3334 24.7999 18.7734 24.7066 18.0534 24.6666H14.4934V29.1199H18.0001C18.7201 29.1199 19.2801 29.0266 19.6801 28.8266C20.4134 28.4666 20.7734 27.7732 20.7734 26.7599ZM14.4934 21.9466H18.0001C18.7201 21.9466 19.3334 21.8132 19.7601 21.5332C20.2134 21.2666 20.4267 20.7732 20.4267 20.0799C20.4267 19.3332 20.1334 18.7999 19.5467 18.5466C19.0267 18.3732 18.3734 18.2932 17.5867 18.2932H14.4934M23.6267 24.5599C24.0534 25.2266 24.2667 26.0399 24.2667 26.9866C24.2667 27.9999 24.0001 28.8532 23.5334 29.6399C23.226 30.1439 22.8282 30.5869 22.3601 30.9466C21.8267 31.3332 21.2001 31.6266 20.4801 31.7732C19.7601 31.9199 18.9867 31.9999 18.1467 31.9999H10.6667V15.3999H18.6667C20.7067 15.4399 22.1334 15.9999 22.9734 17.1732C23.4801 17.8799 23.7334 18.7199 23.7334 19.7066C23.7334 20.7199 23.4801 21.5332 22.9734 22.1466C22.6667 22.4932 22.2667 22.8132 21.7067 23.0932C22.5467 23.3999 23.1867 23.8932 23.6267 24.5599ZM34.7467 17.7599H28.0667V16.0932H34.7467V17.7599Z" fill="white"/>
</svg>
