<svg width="48" height="48" viewBox="0 0 48 48" fill="none" xmlns="http://www.w3.org/2000/svg">
<circle cx="24" cy="24" r="24" fill="#8E178E"/>
<path d="M18.4001 10.6667H29.6001C33.8668 10.6667 37.3334 14.1334 37.3334 18.4001V29.6001C37.3334 31.6511 36.5187 33.6181 35.0684 35.0684C33.6181 36.5187 31.6511 37.3334 29.6001 37.3334H18.4001C14.1334 37.3334 10.6667 33.8668 10.6667 29.6001V18.4001C10.6667 16.3491 11.4815 14.3821 12.9318 12.9318C14.3821 11.4815 16.3491 10.6667 18.4001 10.6667ZM18.1334 13.3334C16.8604 13.3334 15.6395 13.8391 14.7393 14.7393C13.8391 15.6395 13.3334 16.8604 13.3334 18.1334V29.8667C13.3334 32.5201 15.4801 34.6667 18.1334 34.6667H29.8667C31.1398 34.6667 32.3607 34.161 33.2609 33.2609C34.161 32.3607 34.6667 31.1398 34.6667 29.8667V18.1334C34.6667 15.4801 32.5201 13.3334 29.8667 13.3334H18.1334ZM31.0001 15.3334C31.4421 15.3334 31.866 15.509 32.1786 15.8216C32.4912 16.1341 32.6667 16.5581 32.6667 17.0001C32.6667 17.4421 32.4912 17.866 32.1786 18.1786C31.866 18.4912 31.4421 18.6667 31.0001 18.6667C30.5581 18.6667 30.1341 18.4912 29.8216 18.1786C29.509 17.866 29.3334 17.4421 29.3334 17.0001C29.3334 16.5581 29.509 16.1341 29.8216 15.8216C30.1341 15.509 30.5581 15.3334 31.0001 15.3334ZM24.0001 17.3334C25.7682 17.3334 27.4639 18.0358 28.7141 19.286C29.9644 20.5363 30.6667 22.232 30.6667 24.0001C30.6667 25.7682 29.9644 27.4639 28.7141 28.7141C27.4639 29.9644 25.7682 30.6667 24.0001 30.6667C22.232 30.6667 20.5363 29.9644 19.286 28.7141C18.0358 27.4639 17.3334 25.7682 17.3334 24.0001C17.3334 22.232 18.0358 20.5363 19.286 19.286C20.5363 18.0358 22.232 17.3334 24.0001 17.3334ZM24.0001 20.0001C22.9392 20.0001 21.9218 20.4215 21.1717 21.1717C20.4215 21.9218 20.0001 22.9392 20.0001 24.0001C20.0001 25.0609 20.4215 26.0784 21.1717 26.8285C21.9218 27.5787 22.9392 28.0001 24.0001 28.0001C25.0609 28.0001 26.0784 27.5787 26.8285 26.8285C27.5787 26.0784 28.0001 25.0609 28.0001 24.0001C28.0001 22.9392 27.5787 21.9218 26.8285 21.1717C26.0784 20.4215 25.0609 20.0001 24.0001 20.0001Z" fill="white"/>
</svg>
