<svg width="48" height="48" viewBox="0 0 48 48" fill="none" xmlns="http://www.w3.org/2000/svg">
<circle cx="24" cy="24" r="24" fill="#8E178E"/>
<path d="M29.8934 32.5601C29.3731 30.1982 28.7413 27.8622 28.0001 25.5601C28.6667 25.4667 29.3334 25.4134 30.1067 25.4134H30.1334C31.3734 25.4134 32.7334 25.5734 34.2134 25.9067C33.7107 28.6088 32.1572 31.0014 29.8934 32.5601ZM24.0001 34.4001C21.6801 34.4001 19.5467 33.6401 17.8134 32.3467C18.1867 31.7467 18.9734 30.5868 20.2401 29.3867C21.5201 28.1467 23.3334 26.8667 25.6401 26.1067C26.4267 28.3334 27.1467 30.8667 27.6934 33.7201C26.5467 34.1601 25.3334 34.4001 24.0001 34.4001ZM13.6001 24.0001V23.8534C13.8934 23.8667 14.2801 23.8667 14.7334 23.8667H14.7467C16.8267 23.8534 20.4801 23.6801 24.1867 22.5201C24.3867 22.9601 24.5867 23.4134 24.7867 23.8934C22.3067 24.7201 20.3601 26.0401 18.9201 27.3334C17.5467 28.6134 16.6001 29.8534 16.0534 30.6667C14.4688 28.807 13.599 26.4434 13.6001 24.0001ZM19.4001 14.6667C20.1334 15.5334 21.5734 17.4134 23.1201 20.3334C20.0001 21.2801 16.8134 21.4934 14.9067 21.4934H14.7334C14.4134 21.4934 14.1334 21.4934 13.9067 21.4801C14.6667 18.4934 16.6667 16.0001 19.4001 14.6667ZM24.0001 13.6001C26.4534 13.6001 28.7067 14.4534 30.4801 15.8801C29.1201 17.5201 27.3334 18.6667 25.3734 19.5334C24.0001 16.8934 22.6667 15.0001 21.7867 13.8401C22.5067 13.6934 23.2401 13.6001 24.0001 13.6001ZM32.1734 17.5734C33.5083 19.274 34.2817 21.3474 34.3867 23.5067C32.9892 23.2027 31.5636 23.0463 30.1334 23.0401H30.1201C29.0534 23.0401 28.0534 23.1334 27.1067 23.2934C26.8801 22.7334 26.6667 22.2001 26.4134 21.6801C28.5201 20.7601 30.5334 19.4401 32.1734 17.5734ZM24.0001 10.6667C22.2491 10.6667 20.5153 11.0116 18.8976 11.6817C17.28 12.3518 15.8101 13.3339 14.572 14.572C12.0715 17.0725 10.6667 20.4639 10.6667 24.0001C10.6667 27.5363 12.0715 30.9277 14.572 33.4282C15.8101 34.6663 17.28 35.6484 18.8976 36.3185C20.5153 36.9885 22.2491 37.3334 24.0001 37.3334C27.5363 37.3334 30.9277 35.9287 33.4282 33.4282C35.9287 30.9277 37.3334 27.5363 37.3334 24.0001C37.3334 22.2491 36.9885 20.5153 36.3185 18.8976C35.6484 17.28 34.6663 15.8101 33.4282 14.572C32.1901 13.3339 30.7202 12.3518 29.1025 11.6817C27.4849 11.0116 25.751 10.6667 24.0001 10.6667Z" fill="white"/>
</svg>
