<svg width="114" height="100" viewBox="0 0 114 100" fill="none" xmlns="http://www.w3.org/2000/svg">
<g clip-path="url(#clip0_438_336)">
<g opacity="0.2">
<path d="M56.79 19.42L30.15 66.63C32.8214 69.1603 35.0579 72.1131 36.77 75.37C38.92 79.46 38.77 83.21 39.2 85.74H74.49C74.9406 82.5494 75.7043 79.411 76.77 76.37C78.71 70.85 81.32 69.6 83.5 66.63C75.45 52.56 56.79 19.42 56.79 19.42ZM56.79 69.88C49.42 69.88 49.43 58.44 56.79 58.44C64.15 58.44 64.17 69.88 56.81 69.88H56.79Z" fill="#B784CE"/>
</g>
<path d="M74.84 100H60.84C60.4421 100 60.0606 99.842 59.7793 99.5607C59.498 99.2794 59.34 98.8978 59.34 98.5C59.34 98.1022 59.498 97.7206 59.7793 97.4393C60.0606 97.158 60.4421 97 60.84 97H73.34V85.74C73.3467 82.292 74.0857 78.8848 75.5079 75.7438C76.9301 72.6029 79.0032 69.7997 81.59 67.52L82.53 66.69L56.79 21.75L31.05 66.69L31.99 67.53C34.5776 69.8063 36.6508 72.6075 38.0716 75.7474C39.4924 78.8872 40.2281 82.2936 40.23 85.74V97H52.8C53.1978 97 53.5793 97.158 53.8606 97.4393C54.1419 97.7206 54.3 98.1022 54.3 98.5C54.3 98.8978 54.1419 99.2794 53.8606 99.5607C53.5793 99.842 53.1978 100 52.8 100H38.73C38.3321 100 37.9506 99.842 37.6693 99.5607C37.388 99.2794 37.23 98.8978 37.23 98.5V85.74C37.2299 82.7126 36.5851 79.72 35.3385 76.9612C34.0918 74.2024 32.272 71.7407 30 69.74L28.15 68.1C27.8925 67.8705 27.7214 67.5599 27.665 67.2197C27.6086 66.8795 27.6703 66.5302 27.84 66.23L55.49 18C55.6217 17.7718 55.8112 17.5824 56.0394 17.4507C56.2676 17.3191 56.5265 17.2498 56.79 17.25C57.0538 17.2478 57.3135 17.3161 57.5421 17.448C57.7707 17.5799 57.9598 17.7704 58.09 18L85.74 66.26C85.9114 66.5597 85.9742 66.9095 85.9178 67.2502C85.8613 67.5909 85.689 67.9016 85.43 68.13L83.58 69.77C81.3066 71.7702 79.4852 74.2316 78.2369 76.9903C76.9886 79.749 76.3419 82.742 76.34 85.77V98.5C76.34 98.8978 76.1819 99.2794 75.9006 99.5607C75.6193 99.842 75.2378 100 74.84 100Z" fill="#333333"/>
<path d="M56.79 60.34C56.3922 60.34 56.0106 60.182 55.7293 59.9007C55.448 59.6193 55.29 59.2378 55.29 58.84V18.74C55.29 18.3422 55.448 17.9606 55.7293 17.6793C56.0106 17.398 56.3922 17.24 56.79 17.24C57.1878 17.24 57.5693 17.398 57.8506 17.6793C58.1319 17.9606 58.29 18.3422 58.29 18.74V58.84C58.29 59.2378 58.1319 59.6193 57.8506 59.9007C57.5693 60.182 57.1878 60.34 56.79 60.34Z" fill="#333333"/>
<path d="M56.7899 70.84C55.4558 70.836 54.1527 70.4368 53.0453 69.6927C51.9379 68.9486 51.0759 67.893 50.568 66.6593C50.0602 65.4255 49.9294 64.069 50.1921 62.7609C50.4548 61.4529 51.0992 60.252 52.044 59.31C52.9888 58.368 54.1916 57.7271 55.5004 57.4683C56.8092 57.2094 58.1654 57.3443 59.3977 57.8558C60.6299 58.3672 61.6829 59.2324 62.4237 60.342C63.1646 61.4516 63.5599 62.7558 63.5599 64.09C63.5586 64.9777 63.3825 65.8565 63.0415 66.6762C62.7006 67.4958 62.2016 68.2403 61.5729 68.8671C60.9443 69.4939 60.1983 69.9907 59.3776 70.3293C58.557 70.6678 57.6777 70.8413 56.7899 70.84ZM56.7899 60.34C56.0491 60.344 55.3261 60.5672 54.712 60.9817C54.098 61.3961 53.6204 61.9832 53.3397 62.6687C53.0589 63.3543 52.9875 64.1077 53.1344 64.8338C53.2814 65.5599 53.6401 66.2262 54.1654 66.7486C54.6906 67.2711 55.3588 67.6263 56.0857 67.7693C56.8126 67.9124 57.5655 67.837 58.2496 67.5526C58.9336 67.2682 59.5181 66.7875 59.9293 66.1713C60.3405 65.5551 60.5599 64.8308 60.5599 64.09C60.5547 63.0936 60.1551 62.1398 59.4487 61.4371C58.7422 60.7344 57.7864 60.34 56.7899 60.34Z" fill="#333333"/>
<path d="M74.85 87.24H38.75C38.3522 87.24 37.9706 87.082 37.6893 86.8007C37.408 86.5193 37.25 86.1378 37.25 85.74C37.25 85.3422 37.408 84.9606 37.6893 84.6793C37.9706 84.398 38.3522 84.24 38.75 84.24H74.85C75.2478 84.24 75.6294 84.398 75.9107 84.6793C76.192 84.9606 76.35 85.3422 76.35 85.74C76.35 86.1378 76.192 86.5193 75.9107 86.8007C75.6294 87.082 75.2478 87.24 74.85 87.24Z" fill="#333333"/>
<path d="M103 53.21C102.602 53.21 102.221 53.052 101.939 52.7707C101.658 52.4894 101.5 52.1078 101.5 51.71C101.515 40.9268 97.5148 30.5244 90.2793 22.5291C83.0438 14.5338 73.091 9.51843 62.3599 8.46C61.9621 8.42022 61.5964 8.22403 61.3432 7.91459C61.09 7.60516 60.9701 7.20783 61.0099 6.81C61.0497 6.41218 61.2459 6.04645 61.5553 5.79327C61.8648 5.5401 62.2621 5.42022 62.6599 5.46C74.1283 6.59302 84.7641 11.955 92.4951 20.5013C100.226 29.0475 104.498 40.1658 104.48 51.69C104.483 51.887 104.446 52.0826 104.373 52.2656C104.3 52.4486 104.192 52.6154 104.055 52.7566C103.917 52.8977 103.753 53.0104 103.572 53.0882C103.391 53.166 103.197 53.2074 103 53.21Z" fill="#333333"/>
<path d="M10.6 53.22C10.2022 53.22 9.82064 53.062 9.53933 52.7807C9.25803 52.4994 9.09999 52.1178 9.09999 51.72C9.09071 40.2512 13.3229 29.184 20.9823 20.6477C28.6417 12.1114 39.1872 6.70906 50.59 5.48C50.9857 5.44049 51.3811 5.55762 51.6914 5.80625C52.0017 6.05489 52.2023 6.41523 52.25 6.81C52.292 7.20509 52.1756 7.60073 51.9263 7.91008C51.6769 8.21942 51.315 8.4172 50.92 8.46C40.2509 9.60785 30.3834 14.6613 23.2166 22.6478C16.0498 30.6343 12.0903 40.9894 12.1 51.72C12.1 52.1178 11.942 52.4994 11.6607 52.7807C11.3793 53.062 10.9978 53.22 10.6 53.22Z" fill="#333333"/>
<path d="M61.72 1.83002H51.86V11.67H61.72V1.83002Z" fill="#B784CE"/>
<path d="M15.52 51.72H5.65997V61.56H15.52V51.72Z" fill="#B784CE"/>
<path d="M107.91 51.72H98.0499V61.56H107.91V51.72Z" fill="#B784CE"/>
<path d="M61.73 13.17H51.86C51.4622 13.17 51.0806 13.012 50.7993 12.7307C50.518 12.4494 50.36 12.0678 50.36 11.67V1.83002C50.36 1.43219 50.518 1.05066 50.7993 0.769357C51.0806 0.488052 51.4622 0.330017 51.86 0.330017H61.73C62.1278 0.330017 62.5093 0.488052 62.7906 0.769357C63.0719 1.05066 63.23 1.43219 63.23 1.83002V11.67C63.23 12.0678 63.0719 12.4494 62.7906 12.7307C62.5093 13.012 62.1278 13.17 61.73 13.17ZM53.36 10.17H60.23V3.33002H53.36V10.17Z" fill="#333333"/>
<path d="M15.52 63.06H5.65997C5.26215 63.06 4.88062 62.902 4.59931 62.6207C4.31801 62.3394 4.15997 61.9578 4.15997 61.56V51.72C4.15997 51.3222 4.31801 50.9406 4.59931 50.6593C4.88062 50.378 5.26215 50.22 5.65997 50.22H15.52C15.9178 50.22 16.2993 50.378 16.5806 50.6593C16.8619 50.9406 17.02 51.3222 17.02 51.72V61.56C17.02 61.9578 16.8619 62.3394 16.5806 62.6207C16.2993 62.902 15.9178 63.06 15.52 63.06ZM7.15997 60.06H14V53.22H7.15997V60.06Z" fill="#333333"/>
<path d="M107.92 63.06H98.0499C97.6521 63.06 97.2706 62.902 96.9893 62.6207C96.708 62.3394 96.5499 61.9578 96.5499 61.56V51.72C96.5499 51.3222 96.708 50.9406 96.9893 50.6593C97.2706 50.378 97.6521 50.22 98.0499 50.22H107.92C108.318 50.22 108.699 50.378 108.981 50.6593C109.262 50.9406 109.42 51.3222 109.42 51.72V61.56C109.42 61.9578 109.262 62.3394 108.981 62.6207C108.699 62.902 108.318 63.06 107.92 63.06ZM99.5499 60.06H106.42V53.22H99.5499V60.06Z" fill="#333333"/>
<path d="M100.44 8.25H61.73C61.3322 8.25 60.9506 8.09196 60.6693 7.81066C60.388 7.52936 60.23 7.14782 60.23 6.75C60.23 6.35218 60.388 5.97064 60.6693 5.68934C60.9506 5.40804 61.3322 5.25 61.73 5.25H100.44C100.838 5.25 101.219 5.40804 101.501 5.68934C101.782 5.97064 101.94 6.35218 101.94 6.75C101.94 7.14782 101.782 7.52936 101.501 7.81066C101.219 8.09196 100.838 8.25 100.44 8.25Z" fill="#333333"/>
<path d="M50.75 8.25H12C11.6022 8.25 11.2206 8.09196 10.9393 7.81066C10.658 7.52936 10.5 7.14782 10.5 6.75C10.5 6.35218 10.658 5.97064 10.9393 5.68934C11.2206 5.40804 11.6022 5.25 12 5.25H50.75C51.1478 5.25 51.5294 5.40804 51.8107 5.68934C52.092 5.97064 52.25 6.35218 52.25 6.75C52.25 7.14782 52.092 7.52936 51.8107 7.81066C51.5294 8.09196 51.1478 8.25 50.75 8.25Z" fill="#333333"/>
<path d="M106.82 13.5C105.486 13.4961 104.183 13.0968 103.075 12.3527C101.968 11.6086 101.106 10.553 100.598 9.31929C100.09 8.08554 99.9594 6.72898 100.222 5.42093C100.485 4.11288 101.129 2.91201 102.074 1.97001C103.019 1.028 104.222 0.387111 105.53 0.128277C106.839 -0.130556 108.195 0.00427938 109.428 0.515753C110.66 1.02723 111.713 1.8924 112.454 3.00199C113.195 4.11159 113.59 5.41583 113.59 6.75C113.589 7.63774 113.413 8.51652 113.072 9.33618C112.731 10.1558 112.232 10.9003 111.603 11.5271C110.974 12.1539 110.228 12.6507 109.408 12.9893C108.587 13.3278 107.708 13.5013 106.82 13.5ZM106.82 3C106.079 3.00396 105.356 3.22724 104.742 3.64169C104.128 4.05614 103.65 4.64318 103.37 5.32874C103.089 6.01431 103.018 6.76767 103.164 7.49378C103.311 8.21988 103.67 8.8862 104.195 9.40864C104.721 9.93109 105.389 10.2863 106.116 10.4293C106.843 10.5724 107.596 10.497 108.28 10.2126C108.964 9.92819 109.548 9.44754 109.959 8.8313C110.371 8.21506 110.59 7.49083 110.59 6.75C110.589 6.25623 110.49 5.76756 110.3 5.31187C110.11 4.85619 109.832 4.44243 109.482 4.09421C109.132 3.74599 108.716 3.47013 108.26 3.28239C107.803 3.09464 107.314 2.99869 106.82 3Z" fill="#333333"/>
<path d="M6.75997 13.5C5.42581 13.4961 4.12273 13.0968 3.01534 12.3527C1.90794 11.6086 1.04589 10.553 0.538062 9.31929C0.0302362 8.08554 -0.100586 6.72898 0.162118 5.42093C0.424823 4.11288 1.06927 2.91201 2.01407 1.97001C2.95886 1.028 4.16163 0.387111 5.47045 0.128277C6.77927 -0.130556 8.13545 0.00427938 9.36768 0.515753C10.5999 1.02723 11.6529 1.8924 12.3938 3.00199C13.1346 4.11159 13.53 5.41583 13.53 6.75C13.5287 7.63774 13.3525 8.51652 13.0116 9.33618C12.6706 10.1558 12.1716 10.9003 11.5429 11.5271C10.9143 12.1539 10.1683 12.6507 9.34767 12.9893C8.52701 13.3278 7.64771 13.5013 6.75997 13.5ZM6.75997 3C6.01916 3.00396 5.29611 3.22724 4.68206 3.64169C4.06801 4.05614 3.59048 4.64318 3.30972 5.32874C3.02895 6.01431 2.95754 6.76767 3.10448 7.49378C3.25143 8.21988 3.61015 8.8862 4.13538 9.40864C4.66062 9.93109 5.32883 10.2863 6.05571 10.4293C6.78259 10.5724 7.53556 10.497 8.21962 10.2126C8.90367 9.92819 9.48817 9.44754 9.89934 8.8313C10.3105 8.21506 10.53 7.49083 10.53 6.75C10.5287 6.25623 10.4301 5.76756 10.2399 5.31187C10.0498 4.85619 9.7717 4.44243 9.42163 4.09421C9.07155 3.74599 8.65631 3.47013 8.19962 3.28239C7.74294 3.09464 7.25374 2.99869 6.75997 3Z" fill="#333333"/>
</g>
<defs>
<clipPath id="clip0_438_336">
<rect width="113.59" height="100" fill="white"/>
</clipPath>
</defs>
</svg>
