<svg width="71" height="100" viewBox="0 0 71 100" fill="none" xmlns="http://www.w3.org/2000/svg">
<g clip-path="url(#clip0_438_462)">
<g opacity="0.2">
<path d="M50.85 1.71997H0.849976V85.72H50.85V1.71997Z" fill="#B784CE"/>
</g>
<path d="M61.7799 26.32H51.7C51.3021 26.32 50.9206 26.162 50.6393 25.8807C50.358 25.5994 50.2 25.2178 50.2 24.82C50.2 24.4222 50.358 24.0407 50.6393 23.7593C50.9206 23.478 51.3021 23.32 51.7 23.32H61.7799C62.1778 23.32 62.5593 23.478 62.8406 23.7593C63.1219 24.0407 63.2799 24.4222 63.2799 24.82C63.2799 25.2178 63.1219 25.5994 62.8406 25.8807C62.5593 26.162 62.1778 26.32 61.7799 26.32Z" fill="#9C3BA3"/>
<path d="M61.78 47.08H51.6C51.2022 47.08 50.8206 46.922 50.5393 46.6407C50.258 46.3594 50.1 45.9778 50.1 45.58C50.1 45.1822 50.258 44.8007 50.5393 44.5194C50.8206 44.2381 51.2022 44.08 51.6 44.08H61.78C62.1778 44.08 62.5593 44.2381 62.8406 44.5194C63.1219 44.8007 63.28 45.1822 63.28 45.58C63.28 45.9778 63.1219 46.3594 62.8406 46.6407C62.5593 46.922 62.1778 47.08 61.78 47.08Z" fill="#333333"/>
<path d="M61.78 38.41H51.6C51.2022 38.41 50.8206 38.2519 50.5393 37.9706C50.258 37.6893 50.1 37.3078 50.1 36.91C50.1 36.5121 50.258 36.1306 50.5393 35.8493C50.8206 35.568 51.2022 35.41 51.6 35.41H61.78C62.1778 35.41 62.5593 35.568 62.8406 35.8493C63.1219 36.1306 63.28 36.5121 63.28 36.91C63.28 37.3078 63.1219 37.6893 62.8406 37.9706C62.5593 38.2519 62.1778 38.41 61.78 38.41Z" fill="#333333"/>
<path d="M61.78 55.75H51.6C51.2022 55.75 50.8206 55.592 50.5393 55.3107C50.258 55.0294 50.1 54.6478 50.1 54.25C50.1 53.8522 50.258 53.4706 50.5393 53.1893C50.8206 52.908 51.2022 52.75 51.6 52.75H61.78C62.1778 52.75 62.5593 52.908 62.8406 53.1893C63.1219 53.4706 63.28 53.8522 63.28 54.25C63.28 54.6478 63.1219 55.0294 62.8406 55.3107C62.5593 55.592 62.1778 55.75 61.78 55.75Z" fill="#333333"/>
<path d="M61.78 64.41H51.6C51.2022 64.41 50.8206 64.2519 50.5393 63.9706C50.258 63.6893 50.1 63.3078 50.1 62.91C50.1 62.5121 50.258 62.1306 50.5393 61.8493C50.8206 61.568 51.2022 61.41 51.6 61.41H61.78C62.1778 61.41 62.5593 61.568 62.8406 61.8493C63.1219 62.1306 63.28 62.5121 63.28 62.91C63.28 63.3078 63.1219 63.6893 62.8406 63.9706C62.5593 64.2519 62.1778 64.41 61.78 64.41Z" fill="#333333"/>
<path d="M61.78 92.55H56.5C56.1022 92.55 55.7206 92.3919 55.4393 92.1106C55.158 91.8293 55 91.4478 55 91.05C55 90.6522 55.158 90.2706 55.4393 89.9893C55.7206 89.708 56.1022 89.55 56.5 89.55H61.78C62.1778 89.55 62.5594 89.708 62.8407 89.9893C63.122 90.2706 63.28 90.6522 63.28 91.05C63.28 91.4478 63.122 91.8293 62.8407 92.1106C62.5594 92.3919 62.1778 92.55 61.78 92.55Z" fill="#333333"/>
<path d="M50.8 88.22H19.8C19.4022 88.22 19.0206 88.062 18.7393 87.7807C18.458 87.4994 18.3 87.1178 18.3 86.72C18.3 86.3222 18.458 85.9406 18.7393 85.6593C19.0206 85.378 19.4022 85.22 19.8 85.22H49.3V3H3V85.22H13.39C13.7878 85.22 14.1694 85.378 14.4507 85.6593C14.732 85.9406 14.89 86.3222 14.89 86.72C14.89 87.1178 14.732 87.4994 14.4507 87.7807C14.1694 88.062 13.7878 88.22 13.39 88.22H1.5C1.10218 88.22 0.720644 88.062 0.43934 87.7807C0.158035 87.4994 0 87.1178 0 86.72L0 1.5C0 1.10218 0.158035 0.720644 0.43934 0.43934C0.720644 0.158035 1.10218 0 1.5 0L50.8 0C51.1978 0 51.5794 0.158035 51.8607 0.43934C52.142 0.720644 52.3 1.10218 52.3 1.5V86.72C52.3 87.1178 52.142 87.4994 51.8607 87.7807C51.5794 88.062 51.1978 88.22 50.8 88.22Z" fill="#333333"/>
<path d="M68.54 100H19.24C18.8422 100 18.4606 99.842 18.1793 99.5607C17.898 99.2794 17.74 98.8979 17.74 98.5V86.72C17.74 86.3222 17.898 85.9407 18.1793 85.6594C18.4606 85.3781 18.8422 85.22 19.24 85.22C19.6378 85.22 20.0193 85.3781 20.3007 85.6594C20.582 85.9407 20.74 86.3222 20.74 86.72V97H67V14.78H56.65C56.453 14.78 56.258 14.7412 56.076 14.6658C55.894 14.5905 55.7286 14.48 55.5893 14.3407C55.45 14.2014 55.3396 14.036 55.2642 13.8541C55.1888 13.6721 55.15 13.477 55.15 13.28C55.15 13.083 55.1888 12.888 55.2642 12.706C55.3396 12.524 55.45 12.3587 55.5893 12.2194C55.7286 12.0801 55.894 11.9696 56.076 11.8942C56.258 11.8188 56.453 11.78 56.65 11.78H68.54C68.9378 11.78 69.3194 11.9381 69.6007 12.2194C69.882 12.5007 70.04 12.8822 70.04 13.28V98.5C70.04 98.8979 69.882 99.2794 69.6007 99.5607C69.3194 99.842 68.9378 100 68.54 100Z" fill="#333333"/>
<path d="M20.09 98.84C19.739 98.835 19.401 98.7071 19.1346 98.4786C18.8682 98.25 18.6904 97.9353 18.6322 97.5892C18.5739 97.2431 18.6388 96.8876 18.8156 96.5844C18.9925 96.2812 19.27 96.0497 19.6 95.93L49.6 85.63C49.7865 85.5643 49.984 85.5361 50.1815 85.5468C50.3789 85.5575 50.5722 85.6069 50.7505 85.6924C50.9288 85.7778 51.0885 85.8975 51.2206 86.0447C51.3526 86.1918 51.4543 86.3635 51.52 86.55C51.5857 86.7365 51.6139 86.9341 51.6032 87.1315C51.5925 87.3289 51.5431 87.5223 51.4576 87.7005C51.3722 87.8788 51.2525 88.0386 51.1053 88.1706C50.9582 88.3026 50.7865 88.4043 50.6 88.47L20.6 98.76C20.4368 98.8195 20.2636 98.8466 20.09 98.84Z" fill="#333333"/>
<path d="M25.87 36.22C23.8745 36.2226 21.9612 37.0151 20.5483 38.4242C19.1355 39.8334 18.3379 41.7445 18.33 43.74C18.3352 44.076 18.4724 44.3964 18.7119 44.6322C18.9513 44.8679 19.2739 45 19.61 45C19.7789 45.0013 19.9464 44.9692 20.1029 44.9054C20.2593 44.8417 20.4016 44.7476 20.5215 44.6286C20.6414 44.5096 20.7366 44.3681 20.8016 44.2121C20.8665 44.0562 20.9 43.8889 20.9 43.72C20.9 42.3939 21.4267 41.1221 22.3644 40.1844C23.3021 39.2468 24.5739 38.72 25.9 38.72C27.2156 38.7358 28.472 39.2695 29.3968 40.2055C30.3215 41.1415 30.8401 42.4042 30.84 43.72C30.8426 44.0613 30.9793 44.3879 31.2207 44.6293C31.462 44.8706 31.7886 45.0074 32.13 45.01C32.3009 45.0113 32.4704 44.9783 32.6284 44.9131C32.7864 44.8478 32.9298 44.7515 33.05 44.63C33.2894 44.3871 33.4256 44.061 33.43 43.72C33.4167 41.7245 32.6141 39.8155 31.1975 38.4101C29.7808 37.0047 27.8654 36.2173 25.87 36.22Z" fill="#9C3BA3"/>
<path d="M32.0999 45.44C31.6567 45.4326 31.2336 45.2534 30.9199 44.94C30.7669 44.7862 30.6458 44.6036 30.5634 44.4028C30.481 44.2021 30.4391 43.987 30.4399 43.77C30.4442 43.1679 30.3278 42.5709 30.0977 42.0145C29.8675 41.458 29.5283 40.9533 29.0999 40.53C28.4625 39.8852 27.6477 39.4446 26.7591 39.2642C25.8705 39.0838 24.9483 39.1719 24.1099 39.5171C23.2715 39.8623 22.5547 40.4491 22.0508 41.2029C21.5468 41.9567 21.2785 42.8433 21.2799 43.75C21.2776 44.0792 21.1781 44.4004 20.9938 44.6732C20.8095 44.946 20.5487 45.1582 20.2442 45.2832C19.9397 45.4082 19.605 45.4405 19.2822 45.3758C18.9594 45.3112 18.6629 45.1526 18.4299 44.92C18.1176 44.6066 17.9415 44.1825 17.9399 43.74C17.9505 41.6446 18.7889 39.6383 20.2725 38.1585C21.7561 36.6787 23.7645 35.8453 25.8599 35.84C27.9587 35.8453 29.9696 36.6835 31.4508 38.1703C32.9321 39.6572 33.7626 41.6712 33.7599 43.77C33.7599 44.2129 33.584 44.6377 33.2708 44.9509C32.9576 45.2641 32.5329 45.44 32.0899 45.44H32.0999ZM25.8599 38.44C27.2746 38.4479 28.6287 39.0148 29.6271 40.017C30.6256 41.0191 31.1873 42.3754 31.1899 43.79C31.1895 43.9109 31.2132 44.0306 31.2596 44.1422C31.3059 44.2538 31.374 44.355 31.4599 44.44C31.6344 44.6046 31.8651 44.6962 32.1049 44.6962C32.3448 44.6962 32.5755 44.6046 32.7499 44.44C32.8358 44.355 32.904 44.2538 32.9503 44.1422C32.9967 44.0306 33.0204 43.9109 33.0199 43.79C33.0226 41.8902 32.2711 40.0669 30.9305 38.7207C29.5899 37.3744 27.7698 36.6153 25.8699 36.61C23.9718 36.61 22.1511 37.3627 20.807 38.703C19.463 40.0433 18.7052 41.8619 18.6999 43.76C18.6995 43.8809 18.7232 44.0006 18.7696 44.1122C18.8159 44.2238 18.884 44.325 18.9699 44.41C19.098 44.5379 19.2609 44.6252 19.4383 44.6609C19.6157 44.6966 19.7997 44.6793 19.9673 44.611C20.1349 44.5426 20.2786 44.4264 20.3804 44.2768C20.4823 44.1273 20.5378 43.951 20.5399 43.77C20.5426 42.3572 21.105 41.0031 22.104 40.0041C23.103 39.0051 24.4571 38.4427 25.8699 38.44H25.8599Z" fill="#9C3BA3"/>
<path d="M19.58 48.67C19.4143 48.668 19.25 48.6998 19.097 48.7634C18.9439 48.827 18.8055 48.9211 18.69 49.04C18.5148 49.2156 18.3953 49.439 18.3465 49.6823C18.2977 49.9255 18.3218 50.1778 18.4158 50.4074C18.5098 50.637 18.6694 50.8337 18.8748 50.9729C19.0801 51.1122 19.322 51.1877 19.57 51.19C19.9042 51.19 20.2247 51.0573 20.461 50.821C20.6973 50.5847 20.83 50.2642 20.83 49.93C20.8295 49.596 20.6965 49.2759 20.46 49.04C20.3484 48.9189 20.2121 48.8232 20.0603 48.7594C19.9084 48.6956 19.7447 48.6651 19.58 48.67Z" fill="#9C3BA3"/>
<path d="M19.58 51.57C19.3632 51.5734 19.1481 51.5316 18.9483 51.4473C18.7486 51.3629 18.5687 51.2378 18.42 51.08C18.2667 50.9305 18.1451 50.7516 18.0626 50.554C17.9801 50.3564 17.9384 50.1442 17.94 49.93C17.9393 49.7145 17.9814 49.5011 18.0638 49.302C18.1462 49.1029 18.2673 48.9221 18.42 48.77C18.7282 48.4694 19.1395 48.2977 19.57 48.29C19.7884 48.2858 20.0052 48.3272 20.2067 48.4116C20.4081 48.496 20.5898 48.6215 20.74 48.78C21.0405 49.0875 21.2091 49.5001 21.21 49.93C21.21 50.3633 21.0386 50.7789 20.7332 51.0862C20.4278 51.3934 20.0132 51.5674 19.58 51.57ZM19.63 49H19.58C19.3444 49.0028 19.119 49.0959 18.95 49.26C18.8671 49.3427 18.8014 49.4409 18.7566 49.549C18.7117 49.6571 18.6886 49.773 18.6886 49.89C18.6886 50.0071 18.7117 50.1229 18.7566 50.2311C18.8014 50.3392 18.8671 50.4374 18.95 50.52C19.1178 50.6819 19.3418 50.7724 19.575 50.7724C19.8081 50.7724 20.0322 50.6819 20.2 50.52C20.283 50.4376 20.3488 50.3394 20.3934 50.2312C20.4381 50.123 20.4607 50.007 20.46 49.89C20.4611 49.7744 20.4386 49.6598 20.3939 49.5532C20.3492 49.4466 20.2832 49.3503 20.2 49.27C20.1294 49.1873 20.0421 49.1205 19.9439 49.074C19.8457 49.0275 19.7387 49.0022 19.63 49Z" fill="#9C3BA3"/>
<path d="M32.12 48.69C31.7869 48.6947 31.4683 48.8272 31.23 49.06C31.1035 49.1741 31.0014 49.3126 30.93 49.4673C30.8586 49.6219 30.8192 49.7894 30.8144 49.9597C30.8095 50.1299 30.8392 50.2994 30.9017 50.4579C30.9642 50.6164 31.0581 50.7605 31.1779 50.8816C31.2977 51.0028 31.4408 51.0983 31.5985 51.1626C31.7563 51.2269 31.9254 51.2585 32.0957 51.2555C32.266 51.2526 32.434 51.2151 32.5894 51.1454C32.7448 51.0757 32.8845 50.9752 33 50.85C33.2374 50.6139 33.3736 50.2947 33.38 49.96C33.382 49.7943 33.3502 49.6299 33.2866 49.4769C33.223 49.3239 33.1289 49.1854 33.01 49.07C32.7727 48.8344 32.4543 48.6984 32.12 48.69Z" fill="#9C3BA3"/>
<path d="M32.12 51.59C31.6928 51.5928 31.2817 51.4277 30.9749 51.1303C30.6682 50.833 30.4905 50.4271 30.48 50C30.4767 49.7746 30.5213 49.551 30.6109 49.3441C30.7006 49.1372 30.8332 48.9517 31 48.8C31.1505 48.648 31.3297 48.5274 31.527 48.445C31.7244 48.3626 31.9362 48.3201 32.15 48.32C32.4736 48.3218 32.7895 48.4194 33.0578 48.6003C33.3261 48.7813 33.5348 49.0376 33.6578 49.3369C33.7807 49.6363 33.8124 49.9653 33.7487 50.2826C33.685 50.5999 33.5289 50.8912 33.3 51.12C32.984 51.426 32.5599 51.5949 32.12 51.59ZM32.12 49.07C31.8857 49.0726 31.6619 49.1676 31.4972 49.3342C31.3324 49.5008 31.24 49.7257 31.24 49.96C31.24 50.1934 31.3327 50.4172 31.4978 50.5823C31.6628 50.7473 31.8866 50.84 32.12 50.84C32.2355 50.84 32.3497 50.817 32.4562 50.7723C32.5626 50.7277 32.6591 50.6623 32.74 50.58C32.8984 50.4276 32.9916 50.2197 33 50C33.0008 49.883 32.9781 49.767 32.9335 49.6588C32.8889 49.5506 32.8231 49.4525 32.74 49.37C32.6598 49.2868 32.5634 49.2208 32.4568 49.1761C32.3502 49.1314 32.2356 49.1089 32.12 49.11V49.07Z" fill="#9C3BA3"/>
</g>
<defs>
<clipPath id="clip0_438_462">
<rect width="70.04" height="100" fill="white"/>
</clipPath>
</defs>
</svg>
