<svg width="74" height="100" viewBox="0 0 74 100" fill="none" xmlns="http://www.w3.org/2000/svg">
<g clip-path="url(#clip0_438_436)">
<path d="M55.4999 64.55C55.1021 64.55 54.7206 64.392 54.4393 64.1107C54.158 63.8294 53.9999 63.4478 53.9999 63.05V5.5C53.9999 4.83696 53.7366 4.20107 53.2677 3.73223C52.7989 3.26339 52.163 3 51.4999 3H42.9399C42.5421 3 42.1606 2.84196 41.8793 2.56066C41.598 2.27936 41.4399 1.89782 41.4399 1.5C41.4399 1.10218 41.598 0.720644 41.8793 0.43934C42.1606 0.158035 42.5421 0 42.9399 0L51.4999 0C52.9578 0.00264349 54.3552 0.582955 55.3861 1.61383C56.417 2.64471 56.9973 4.04212 56.9999 5.5V63.05C56.9999 63.4478 56.8419 63.8294 56.5606 64.1107C56.2793 64.392 55.8978 64.55 55.4999 64.55Z" fill="#333333"/>
<path d="M51.5 100H5.5C4.04212 99.9974 2.64471 99.417 1.61383 98.3862C0.582955 97.3553 0.00264349 95.9579 0 94.5L0 5.5C0.00264349 4.04212 0.582955 2.64471 1.61383 1.61383C2.64471 0.582955 4.04212 0.00264349 5.5 0L35.64 0C36.0378 0 36.4194 0.158035 36.7007 0.43934C36.982 0.720644 37.14 1.10218 37.14 1.5C37.14 1.89782 36.982 2.27936 36.7007 2.56066C36.4194 2.84196 36.0378 3 35.64 3H5.5C4.83696 3 4.20107 3.26339 3.73223 3.73223C3.26339 4.20107 3 4.83696 3 5.5V94.5C3 95.163 3.26339 95.7989 3.73223 96.2678C4.20107 96.7366 4.83696 97 5.5 97H51.5C52.163 97 52.7989 96.7366 53.2678 96.2678C53.7366 95.7989 54 95.163 54 94.5V88.73C54 88.3322 54.158 87.9506 54.4393 87.6693C54.7206 87.388 55.1022 87.23 55.5 87.23C55.8978 87.23 56.2794 87.388 56.5607 87.6693C56.842 87.9506 57 88.3322 57 88.73V94.5C56.9974 95.9579 56.417 97.3553 55.3862 98.3862C54.3553 99.417 52.9579 99.9974 51.5 100Z" fill="#333333"/>
<path d="M37.43 82H9C8.60218 82 8.22064 81.842 7.93934 81.5607C7.65804 81.2794 7.5 80.8978 7.5 80.5C7.5 80.1022 7.65804 79.7206 7.93934 79.4393C8.22064 79.158 8.60218 79 9 79H37.43C37.8278 79 38.2094 79.158 38.4907 79.4393C38.772 79.7206 38.93 80.1022 38.93 80.5C38.93 80.8978 38.772 81.2794 38.4907 81.5607C38.2094 81.842 37.8278 82 37.43 82Z" fill="#333333"/>
<path d="M19.36 75H9C8.60218 75 8.22064 74.842 7.93934 74.5607C7.65804 74.2794 7.5 73.8978 7.5 73.5C7.5 73.1022 7.65804 72.7206 7.93934 72.4393C8.22064 72.158 8.60218 72 9 72H19.36C19.7578 72 20.1394 72.158 20.4207 72.4393C20.702 72.7206 20.86 73.1022 20.86 73.5C20.86 73.8978 20.702 74.2794 20.4207 74.5607C20.1394 74.842 19.7578 75 19.36 75Z" fill="#333333"/>
<path d="M56.1201 63.82C56.6895 62.8376 57.4555 61.9831 58.3701 61.31C60.0146 60.0615 62.0713 59.4828 64.1255 59.6907C66.1798 59.8985 68.0789 60.8774 69.4401 62.43C70.3349 63.3625 71.0151 64.4794 71.4331 65.7023C71.8511 66.9253 71.9968 68.2248 71.8601 69.51C71.5283 72.8096 70.2347 75.9391 68.1401 78.51C65.7407 81.5694 62.8557 84.2146 59.6001 86.34C58.5301 87.06 57.4101 87.71 56.3201 88.34C56.2508 88.3919 56.1666 88.42 56.0801 88.42C55.9935 88.42 55.9093 88.3919 55.8401 88.34C51.3633 85.92 47.3998 82.6527 44.1701 78.72C42.4989 76.6957 41.2906 74.3305 40.6301 71.79C39.9243 69.486 40.0554 67.0067 41.0001 64.79C41.5995 63.3785 42.5638 62.152 43.794 61.2364C45.0242 60.3207 46.4759 59.7491 48.0001 59.58C49.1515 59.4262 50.3228 59.5352 51.4261 59.8989C52.5293 60.2626 53.5358 60.8716 54.3701 61.68C54.9981 62.3555 55.5826 63.0703 56.1201 63.82Z" fill="#B784CE"/>
<path d="M56.06 90C55.7096 90.0024 55.3648 89.9127 55.06 89.74C50.4165 87.2225 46.3069 83.8262 42.96 79.74C41.146 77.5529 39.8381 74.9918 39.13 72.24C38.3304 69.6022 38.497 66.7659 39.6 64.24C40.3018 62.6085 41.419 61.1895 42.8403 60.1245C44.2615 59.0594 45.9371 58.3855 47.7 58.17C49.0677 57.989 50.4586 58.1169 51.7704 58.5444C53.0822 58.9718 54.2814 59.6879 55.28 60.64C55.5323 60.8673 55.7726 61.1076 56 61.36C56.4336 60.8779 56.9162 60.4422 57.44 60.06C59.3828 58.605 61.8002 57.9304 64.2156 58.1692C66.6311 58.408 68.8696 59.5428 70.49 61.35C71.5286 62.4353 72.3188 63.7335 72.8057 65.1546C73.2927 66.5757 73.4647 68.0857 73.31 69.58C72.9787 73.1802 71.5866 76.6013 69.31 79.41C66.8152 82.6 63.8116 85.3569 60.42 87.57C59.67 88.08 58.89 88.57 58.11 89.02L57.11 89.65C56.8019 89.8672 56.4368 89.9889 56.06 90ZM49 61.12C48.7156 61.1204 48.4316 61.1404 48.15 61.18C46.8815 61.3211 45.6741 61.8001 44.6539 62.567C43.6337 63.3339 42.838 64.3606 42.35 65.54C41.5542 67.4449 41.455 69.5692 42.07 71.54C42.6851 73.8693 43.8011 76.0364 45.34 77.89C48.301 81.5123 51.9173 84.5451 56 86.83L56.54 86.5C57.27 86.05 58.01 85.61 58.72 85.12C61.8395 83.0935 64.6032 80.5662 66.9 77.64C68.8414 75.2951 70.033 72.4207 70.32 69.39C70.4436 68.3153 70.3284 67.2265 69.9826 66.2015C69.6369 65.1764 69.0692 64.2403 68.32 63.46C67.606 62.6474 66.7082 62.0171 65.7013 61.6217C64.6944 61.2263 63.6077 61.0772 62.5315 61.1868C61.4554 61.2963 60.421 61.6614 59.5144 62.2517C58.6079 62.8419 57.8556 63.6401 57.32 64.58C57.2021 64.786 57.0357 64.9601 56.8353 65.0873C56.6349 65.2145 56.4066 65.2909 56.17 65.31C55.9337 65.3347 55.695 65.3021 55.4739 65.2151C55.2529 65.1281 55.056 64.9891 54.9 64.81L54.32 64.12C53.9871 63.6933 53.6227 63.2922 53.23 62.92C52.0916 61.8168 50.5842 61.1754 49 61.12Z" fill="#333333"/>
<path d="M40 68.5H9C8.60218 68.5 8.22064 68.342 7.93934 68.0607C7.65804 67.7794 7.5 67.3978 7.5 67V23C7.5 22.6022 7.65804 22.2206 7.93934 21.9393C8.22064 21.658 8.60218 21.5 9 21.5H48C48.3978 21.5 48.7794 21.658 49.0607 21.9393C49.342 22.2206 49.5 22.6022 49.5 23V58.54C49.5 58.9378 49.342 59.3194 49.0607 59.6007C48.7794 59.882 48.3978 60.04 48 60.04C47.6022 60.04 47.2206 59.882 46.9393 59.6007C46.658 59.3194 46.5 58.9378 46.5 58.54V24.54H10.5V65.54H40C40.3978 65.54 40.7794 65.698 41.0607 65.9793C41.342 66.2606 41.5 66.6422 41.5 67.04C41.5 67.4378 41.342 67.8194 41.0607 68.1007C40.7794 68.382 40.3978 68.54 40 68.54V68.5Z" fill="#333333"/>
<path d="M55.5 12.21H1.5C1.10218 12.21 0.720644 12.052 0.43934 11.7707C0.158035 11.4894 0 11.1078 0 10.71C0 10.3122 0.158035 9.93067 0.43934 9.64936C0.720644 9.36806 1.10218 9.21002 1.5 9.21002H55.5C55.8978 9.21002 56.2794 9.36806 56.5607 9.64936C56.842 9.93067 57 10.3122 57 10.71C57 11.1078 56.842 11.4894 56.5607 11.7707C56.2794 12.052 55.8978 12.21 55.5 12.21Z" fill="#333333"/>
<path d="M28.09 93.18C29.5757 93.18 30.78 91.9801 30.78 90.5C30.78 89.0199 29.5757 87.82 28.09 87.82C26.6044 87.82 25.4 89.0199 25.4 90.5C25.4 91.9801 26.6044 93.18 28.09 93.18Z" fill="#333333"/>
<g opacity="0.2">
<path d="M28.63 39.34C26.6328 39.3427 24.718 40.1365 23.3048 41.5478C21.8917 42.9591 21.0953 44.8728 21.09 46.87C21.0926 47.2113 21.2293 47.5379 21.4707 47.7793C21.712 48.0207 22.0386 48.1574 22.38 48.16C22.7213 48.1574 23.0479 48.0207 23.2892 47.7793C23.5306 47.5379 23.6674 47.2113 23.67 46.87C23.6781 45.5569 24.2026 44.2997 25.13 43.37C25.5901 42.9117 26.136 42.5486 26.7366 42.3016C27.3372 42.0545 27.9806 41.9282 28.63 41.93C29.9474 41.9432 31.2063 42.4758 32.1332 43.4121C33.0601 44.3483 33.58 45.6126 33.58 46.93C33.578 47.2733 33.7108 47.6037 33.95 47.85C34.1976 48.0884 34.5263 48.2242 34.87 48.23C35.2113 48.2274 35.5379 48.0907 35.7792 47.8493C36.0206 47.6079 36.1573 47.2813 36.16 46.94C36.1666 45.946 35.9768 44.9605 35.6016 44.04C35.2263 43.1196 34.673 42.2822 33.9734 41.5761C33.2738 40.87 32.4416 40.309 31.5247 39.9252C30.6077 39.5415 29.624 39.3426 28.63 39.34Z" fill="#9C3BA3"/>
<path d="M34.86 48.56C34.6407 48.5603 34.4235 48.5172 34.2209 48.4331C34.0184 48.349 33.8345 48.2256 33.68 48.07C33.5235 47.9161 33.3995 47.7324 33.3153 47.5297C33.2312 47.327 33.1885 47.1095 33.19 46.89C33.19 45.6753 32.7074 44.5104 31.8485 43.6515C30.9896 42.7925 29.8247 42.31 28.61 42.31C27.3953 42.31 26.2303 42.7925 25.3714 43.6515C24.5125 44.5104 24.03 45.6753 24.03 46.89C24.0303 47.1093 23.9871 47.3265 23.903 47.529C23.8189 47.7316 23.6955 47.9154 23.54 48.07C23.2219 48.3732 22.7994 48.5424 22.36 48.5424C21.9205 48.5424 21.498 48.3732 21.18 48.07C21.0269 47.9161 20.9058 47.7336 20.8234 47.5328C20.7411 47.332 20.6991 47.117 20.7 46.9C20.7053 44.8047 21.5406 42.7968 23.0232 41.3162C24.5057 39.8355 26.5146 39.0026 28.61 39C29.6487 39.0026 30.6768 39.2098 31.6355 39.6098C32.5942 40.0097 33.4647 40.5946 34.1973 41.3309C34.93 42.0673 35.5104 42.9408 35.9055 43.9014C36.3006 44.8621 36.5026 45.8912 36.5 46.93C36.5026 47.1487 36.4615 47.3658 36.3791 47.5684C36.2966 47.771 36.1744 47.9551 36.0197 48.1098C35.8651 48.2645 35.681 48.3866 35.4784 48.4691C35.2758 48.5516 35.0587 48.5927 34.84 48.59L34.86 48.56ZM28.61 41.56C29.3108 41.56 30.0047 41.6982 30.652 41.9667C31.2993 42.2352 31.8873 42.6287 32.3824 43.1247C32.8775 43.6206 33.2698 44.2094 33.5371 44.8572C33.8044 45.505 33.9413 46.1992 33.94 46.9C33.9396 47.0208 33.9632 47.1406 34.0096 47.2522C34.0559 47.3638 34.1241 47.465 34.21 47.55C34.3849 47.7175 34.6178 47.811 34.86 47.811C35.1022 47.811 35.335 47.7175 35.51 47.55C35.5933 47.4657 35.6592 47.3658 35.7038 47.2559C35.7484 47.1461 35.7709 47.0285 35.77 46.91C35.7726 45.0101 35.0211 43.1869 33.6805 41.8406C32.3399 40.4944 30.5198 39.7353 28.62 39.73C26.7236 39.7326 24.9054 40.4865 23.5635 41.8265C22.2216 43.1665 21.4653 44.9836 21.46 46.88C21.4597 47.1221 21.5528 47.3549 21.72 47.53C21.9011 47.6849 22.1316 47.7701 22.37 47.7701C22.6083 47.7701 22.8388 47.6849 23.02 47.53C23.1059 47.445 23.174 47.3438 23.2203 47.2322C23.2667 47.1206 23.2904 47.0008 23.29 46.88C23.2952 45.4689 23.8588 44.1173 24.8575 43.1205C25.8562 42.1237 27.2089 41.5626 28.62 41.56H28.61Z" fill="#9C3BA3"/>
<path d="M22.33 51.79C21.9965 51.7927 21.6771 51.9254 21.44 52.16C21.2037 52.3979 21.071 52.7196 21.071 53.055C21.071 53.3903 21.2037 53.7121 21.44 53.95C21.5554 54.0689 21.6939 54.163 21.8469 54.2266C21.9999 54.2902 22.1643 54.322 22.33 54.32C22.6642 54.32 22.9847 54.1872 23.221 53.9509C23.4573 53.7147 23.59 53.3942 23.59 53.06C23.592 52.8943 23.5602 52.7299 23.4966 52.5769C23.433 52.4239 23.3389 52.2854 23.22 52.17C23.1065 52.0478 22.9687 51.9509 22.8154 51.8854C22.6621 51.82 22.4967 51.7875 22.33 51.79Z" fill="#9C3BA3"/>
<path d="M22.3299 54.69C21.9184 54.6578 21.5341 54.4716 21.2538 54.1685C20.9735 53.8654 20.8179 53.4678 20.8179 53.055C20.8179 52.6422 20.9735 52.2446 21.2538 51.9415C21.5341 51.6384 21.9184 51.4522 22.3299 51.42C22.5478 51.4126 22.7648 51.4516 22.9664 51.5344C23.1681 51.6171 23.35 51.7417 23.4999 51.9C23.6535 52.0516 23.7755 52.2322 23.8587 52.4314C23.9419 52.6305 23.9848 52.8442 23.9848 53.06C23.9848 53.2758 23.9419 53.4895 23.8587 53.6886C23.7755 53.8878 23.6535 54.0684 23.4999 54.22C23.1875 54.5254 22.7667 54.6944 22.3299 54.69ZM22.3899 52.17H22.3299C22.2129 52.1693 22.0969 52.1919 21.9887 52.2365C21.8805 52.2812 21.7824 52.347 21.6999 52.43C21.5364 52.5953 21.4432 52.8175 21.4399 53.05C21.4392 53.167 21.4618 53.283 21.5064 53.3912C21.5511 53.4994 21.6169 53.5976 21.6999 53.68C21.8694 53.8426 22.0951 53.9334 22.3299 53.9334C22.5647 53.9334 22.7905 53.8426 22.9599 53.68C23.1252 53.5159 23.2187 53.2929 23.2199 53.06C23.2171 52.8245 23.124 52.599 22.9599 52.43C22.8112 52.2722 22.6066 52.1789 22.3899 52.17Z" fill="#9C3BA3"/>
<path d="M34.87 51.82C34.5359 51.82 34.2154 51.9528 33.9791 52.1891C33.7428 52.4254 33.61 52.7459 33.61 53.08C33.6087 53.245 33.6401 53.4086 33.7023 53.5614C33.7645 53.7143 33.8564 53.8532 33.9726 53.9704C34.0888 54.0875 34.227 54.1805 34.3794 54.2439C34.5317 54.3074 34.695 54.34 34.86 54.34C35.0267 54.3427 35.1922 54.312 35.3469 54.2498C35.5015 54.1875 35.6421 54.095 35.7605 53.9776C35.8788 53.8602 35.9724 53.7203 36.0359 53.5661C36.0994 53.412 36.1314 53.2467 36.13 53.08C36.1295 52.746 35.9964 52.4259 35.76 52.19C35.6439 52.0721 35.5053 51.9786 35.3524 51.915C35.1996 51.8515 35.0356 51.8192 34.87 51.82Z" fill="#9C3BA3"/>
<path d="M34.87 54.72C34.5464 54.7182 34.2305 54.6206 33.9622 54.4397C33.6939 54.2587 33.4852 54.0024 33.3622 53.7031C33.2393 53.4037 33.2076 53.0747 33.2713 52.7574C33.335 52.4401 33.4911 52.1488 33.72 51.92C33.8725 51.7686 34.0536 51.6491 34.2528 51.5685C34.4519 51.4878 34.6651 51.4475 34.88 51.45C35.2011 51.4549 35.5137 51.5546 35.7783 51.7365C36.043 51.9184 36.2481 52.1745 36.3677 52.4726C36.4874 52.7706 36.5163 53.0974 36.4509 53.4118C36.3854 53.7263 36.2286 54.0144 36 54.24C35.6997 54.5403 35.2946 54.7123 34.87 54.72ZM34.87 52.2C34.6356 52.1991 34.4099 52.2887 34.24 52.45C34.1569 52.5324 34.0912 52.6306 34.0465 52.7388C34.0019 52.847 33.9792 52.963 33.98 53.08C33.98 53.1969 34.003 53.3126 34.0477 53.4206C34.0924 53.5286 34.158 53.6267 34.2406 53.7093C34.3233 53.792 34.4214 53.8575 34.5294 53.9023C34.6374 53.947 34.7531 53.97 34.87 53.97C34.9861 53.9749 35.1018 53.9542 35.209 53.9092C35.3162 53.8643 35.4121 53.7963 35.49 53.71C35.573 53.6276 35.6388 53.5294 35.6834 53.4212C35.7281 53.313 35.7507 53.197 35.75 53.08C35.7504 52.8487 35.6607 52.6263 35.5 52.46C35.4175 52.3769 35.3193 52.3112 35.2112 52.2665C35.103 52.2219 34.987 52.1993 34.87 52.2Z" fill="#9C3BA3"/>
</g>
</g>
<defs>
<clipPath id="clip0_438_436">
<rect width="73.39" height="100" fill="white"/>
</clipPath>
</defs>
</svg>
