<svg width="96" height="100" viewBox="0 0 96 100" fill="none" xmlns="http://www.w3.org/2000/svg">
<g clip-path="url(#clip0_438_394)">
<path d="M93.8015 18.188C88.9223 6.95509 75.9433 0 59.8991 0H59.5402C43.4959 0 30.517 6.95509 25.6378 18.188C19.1192 33.1846 27.248 53.9723 48.5013 76.7485C48.6024 77.0987 48.7668 77.4275 48.9863 77.7185L52.3814 85.6824H67.0191L70.4336 77.7282C70.6531 77.4372 70.8174 77.1084 70.9186 76.7582C92.1525 53.9723 100.33 33.1846 93.8015 18.188ZM61.3347 4.01591C68.7942 7.2849 73.7705 12.232 76.147 18.7409C82.7044 36.6573 68.6487 62.2078 63.5367 71.3745C62.8383 71.2872 62.1107 71.2193 61.3832 71.1805L61.3347 4.01591ZM28.5963 19.4781C32.1272 11.359 40.5665 5.73286 51.4696 3.88011C46.3022 7.0817 42.3548 11.9204 40.2561 17.6254C33.4077 36.3663 46.9395 61.8974 52.6336 72.073C51.6397 72.3588 50.7016 72.8114 49.8593 73.4116C30.2939 52.0904 22.7277 32.9809 28.5963 19.4781ZM58.1045 4.01591V71.132H55.8153C50.5383 61.7519 36.7931 36.5021 43.2825 18.7506C45.6688 12.232 50.645 7.2849 58.1045 4.01591ZM63.5076 85.6824H55.9317L53.5648 80.163C57.6195 81.0553 61.8198 81.0553 65.8745 80.163L63.5076 85.6824ZM59.7148 77.6021C55.2527 77.6021 52.5463 76.6321 51.78 75.9822C52.5463 75.3904 55.2527 74.3719 59.7148 74.3719C64.1769 74.3719 66.893 75.3419 67.6593 75.9822C66.9318 76.6321 64.1866 77.6021 59.7148 77.6021ZM69.58 73.4019C68.736 72.8069 67.7982 72.3577 66.8057 72.073C72.4997 61.8974 86.0316 36.3566 79.1929 17.6254C77.0871 11.9215 73.1372 7.08404 67.9697 3.88011C78.8728 5.73286 87.3023 11.359 90.8429 19.4781C96.7116 32.9809 89.1454 52.0904 69.58 73.4019Z" fill="#333333"/>
<g opacity="0.2">
<path d="M61.3347 4.0159C68.7942 7.28489 73.7802 12.232 76.1567 18.7409C82.7044 36.6573 68.6584 62.2078 63.4882 71.3745C62.7898 71.2872 62.0719 71.2193 61.3347 71.1805V4.0159Z" fill="#B784CE"/>
</g>
<g opacity="0.2">
<path d="M28.6061 19.4781C32.137 11.359 40.5665 5.73285 51.4793 3.8801C46.3048 7.07606 42.3527 11.9163 40.2561 17.6254C33.4077 36.3663 46.9493 61.8974 52.6336 72.0729C51.6405 72.3607 50.7027 72.8132 49.8594 73.4116C30.3036 52.0904 22.7277 32.9809 28.6061 19.4781Z" fill="#B784CE"/>
</g>
<path d="M66.9997 86.9822H52.4493V97.3712H66.9997V86.9822Z" fill="#B784CE"/>
<path d="M59.7245 77.6021C55.2527 77.6021 52.5463 76.6321 51.7897 75.9822C52.5463 75.3904 55.2527 74.3719 59.7245 74.3719C64.1963 74.3719 66.9027 75.3419 67.6593 75.9822C66.9318 76.6321 64.1866 77.6021 59.7245 77.6021Z" fill="#B784CE"/>
<path d="M19.8662 17.6254H9.70028C9.31438 17.6254 8.94428 17.4721 8.67141 17.1992C8.39854 16.9263 8.24524 16.5562 8.24524 16.1703C8.24524 15.7844 8.39854 15.4143 8.67141 15.1415C8.94428 14.8686 9.31438 14.7153 9.70028 14.7153H19.8662C20.2521 14.7153 20.6221 14.8686 20.895 15.1415C21.1679 15.4143 21.3212 15.7844 21.3212 16.1703C21.3212 16.5562 21.1679 16.9263 20.895 17.1992C20.6221 17.4721 20.2521 17.6254 19.8662 17.6254Z" fill="#9C3BA3"/>
<path d="M17.9843 28.2957H1.45504C1.06914 28.2957 0.699044 28.1424 0.426171 27.8695C0.153298 27.5966 0 27.2265 0 26.8406C0 26.4547 0.153298 26.0846 0.426171 25.8118C0.699044 25.5389 1.06914 25.3856 1.45504 25.3856H17.9455C18.3314 25.3856 18.7015 25.5389 18.9744 25.8118C19.2472 26.0846 19.4005 26.4547 19.4005 26.8406C19.4005 27.2265 19.2472 27.5966 18.9744 27.8695C18.7015 28.1424 18.3314 28.2957 17.9455 28.2957H17.9843Z" fill="#9C3BA3"/>
<path d="M18.8961 37.9959H8.73019C8.34429 37.9959 7.97419 37.8426 7.70132 37.5698C7.42844 37.2969 7.27515 36.9268 7.27515 36.5409C7.27515 36.155 7.42844 35.7849 7.70132 35.512C7.97419 35.2391 8.34429 35.0858 8.73019 35.0858H18.8961C19.282 35.0858 19.6521 35.2391 19.9249 35.512C20.1978 35.7849 20.3511 36.155 20.3511 36.5409C20.3511 36.9268 20.1978 37.2969 19.9249 37.5698C19.6521 37.8426 19.282 37.9959 18.8961 37.9959Z" fill="#9C3BA3"/>
<path d="M21.7577 47.6962H18.0522C17.6663 47.6962 17.2962 47.5429 17.0233 47.27C16.7505 46.9971 16.5972 46.627 16.5972 46.2411C16.5972 45.8552 16.7505 45.4851 17.0233 45.2123C17.2962 44.9394 17.6663 44.7861 18.0522 44.7861H21.7577C22.1436 44.7861 22.5137 44.9394 22.7866 45.2123C23.0594 45.4851 23.2127 45.8552 23.2127 46.2411C23.2127 46.627 23.0594 46.9971 22.7866 47.27C22.5137 47.5429 22.1436 47.6962 21.7577 47.6962Z" fill="#9C3BA3"/>
<path d="M66.8057 100H52.6336C52.2867 99.9995 51.9515 99.8751 51.6882 99.6492C51.425 99.4233 51.2511 99.1108 51.1979 98.7681L49.2579 86.633C49.224 86.4255 49.2358 86.2131 49.2925 86.0106C49.3492 85.8081 49.4494 85.6204 49.5861 85.4606C49.7228 85.3009 49.8927 85.1728 50.084 85.0855C50.2752 84.9981 50.4833 84.9536 50.6935 84.9549H56.795C57.1809 84.9549 57.551 85.1082 57.8239 85.3811C58.0967 85.6539 58.25 86.024 58.25 86.4099C58.25 86.7958 58.0967 87.1659 57.8239 87.4388C57.551 87.7117 57.1809 87.865 56.795 87.865H52.3814L53.8558 97.0899H65.564L67.0385 87.865H62.6152C62.2293 87.865 61.8592 87.7117 61.5863 87.4388C61.3134 87.1659 61.1601 86.7958 61.1601 86.4099C61.1601 86.024 61.3134 85.6539 61.5863 85.3811C61.8592 85.1082 62.2293 84.9549 62.6152 84.9549H68.7457C68.956 84.9536 69.164 84.9981 69.3553 85.0855C69.5466 85.1728 69.7165 85.3009 69.8532 85.4606C69.9899 85.6204 70.0901 85.8081 70.1467 86.0106C70.2034 86.2131 70.2152 86.4255 70.1814 86.633L68.2413 98.7681C68.1881 99.1108 68.0142 99.4233 67.751 99.6492C67.4878 99.8751 67.1525 99.9995 66.8057 100Z" fill="#333333"/>
</g>
<defs>
<clipPath id="clip0_438_394">
<rect width="95.9938" height="100" fill="white"/>
</clipPath>
</defs>
</svg>
