<svg width="111" height="100" viewBox="0 0 111 100" fill="none" xmlns="http://www.w3.org/2000/svg">
<g clip-path="url(#clip0_438_364)">
<path d="M109.109 17.8218H1.78215C1.38826 17.8218 1.01051 17.6653 0.731987 17.3868C0.453468 17.1083 0.296997 16.7305 0.296997 16.3366C0.296997 15.9427 0.453468 15.565 0.731987 15.2865C1.01051 15.0079 1.38826 14.8515 1.78215 14.8515H109.109C109.503 14.8515 109.881 15.0079 110.159 15.2865C110.438 15.565 110.594 15.9427 110.594 16.3366C110.594 16.7305 110.438 17.1083 110.159 17.3868C109.881 17.6653 109.503 17.8218 109.109 17.8218Z" fill="#333333"/>
<path d="M11.4456 11.901C12.9165 11.901 14.109 10.713 14.109 9.24752C14.109 7.78205 12.9165 6.59406 11.4456 6.59406C9.97466 6.59406 8.78223 7.78205 8.78223 9.24752C8.78223 10.713 9.97466 11.901 11.4456 11.901Z" fill="#333333"/>
<path d="M20.4851 11.901C21.9561 11.901 23.1485 10.713 23.1485 9.24752C23.1485 7.78205 21.9561 6.59406 20.4851 6.59406C19.0142 6.59406 17.8218 7.78205 17.8218 9.24752C17.8218 10.713 19.0142 11.901 20.4851 11.901Z" fill="#333333"/>
<path d="M29.5247 11.901C30.9956 11.901 32.1881 10.713 32.1881 9.24752C32.1881 7.78205 30.9956 6.59406 29.5247 6.59406C28.0538 6.59406 26.8613 7.78205 26.8613 9.24752C26.8613 10.713 28.0538 11.901 29.5247 11.901Z" fill="#333333"/>
<g opacity="0.2">
<path d="M101.158 45.0891H79.604V63.0099H101.158V45.0891Z" fill="#B784CE"/>
</g>
<g opacity="0.2">
<path d="M101.158 70.7327H79.604V88.6535H101.158V70.7327Z" fill="#B784CE"/>
</g>
<path d="M71.1387 90.5347H9.75253C9.35864 90.5347 8.98089 90.3782 8.70237 90.0997C8.42385 89.8212 8.26738 89.4434 8.26738 89.0495V45.0891C8.26212 44.8933 8.29566 44.6983 8.36609 44.5154C8.43651 44.3326 8.54241 44.1655 8.6777 44.0238C8.81299 43.882 8.97499 43.7685 9.15436 43.6896C9.33373 43.6108 9.52693 43.5682 9.72283 43.5644H71.109C71.5028 43.5644 71.8806 43.7208 72.1591 43.9994C72.4376 44.2779 72.5941 44.6556 72.5941 45.0495V89.0099C72.5994 89.2058 72.5658 89.4007 72.4954 89.5836C72.425 89.7664 72.3191 89.9335 72.1838 90.0753C72.0485 90.217 71.8865 90.3305 71.7071 90.4094C71.5278 90.4882 71.3346 90.5308 71.1387 90.5347ZM11.208 87.5644H69.6238V46.5347H11.208V87.5644Z" fill="#333333"/>
<path d="M101.168 64.4951H79.604C79.2101 64.4951 78.8323 64.3386 78.5538 64.0601C78.2753 63.7815 78.1188 63.4038 78.1188 63.0099V45.0891C78.1135 44.8908 78.148 44.6934 78.2203 44.5086C78.2926 44.3238 78.4011 44.1554 78.5395 44.0133C78.678 43.8711 78.8435 43.7582 79.0263 43.6811C79.2091 43.604 79.4056 43.5643 79.604 43.5644H101.168C101.562 43.5644 101.94 43.7208 102.218 43.9994C102.497 44.2779 102.653 44.6556 102.653 45.0495V62.9703C102.659 63.1686 102.624 63.366 102.552 63.5508C102.48 63.7356 102.371 63.904 102.233 64.0462C102.094 64.1883 101.929 64.3012 101.746 64.3783C101.563 64.4554 101.367 64.4951 101.168 64.4951ZM81.0891 61.5248H99.6832V46.5347H81.0891V61.5248Z" fill="#333333"/>
<path d="M34.3169 60.1782L17.6634 54.1188C17.5255 54.0726 17.3774 54.0658 17.2358 54.0991C17.0942 54.1324 16.9648 54.2046 16.8619 54.3074C16.7591 54.4103 16.6869 54.5397 16.6536 54.6813C16.6203 54.8229 16.6271 54.971 16.6733 55.1089L23.4456 71.4158C23.5048 71.5506 23.6004 71.6662 23.7216 71.7497C23.8429 71.8332 23.985 71.8812 24.1321 71.8884C24.2791 71.8956 24.4252 71.8617 24.5541 71.7905C24.6829 71.7192 24.7893 71.6135 24.8614 71.4851L26.9703 67.5842C27.0308 67.4733 27.1171 67.3788 27.222 67.3085C27.3269 67.2383 27.4472 67.1945 27.5727 67.1809C27.6982 67.1673 27.8251 67.1842 27.9426 67.2303C28.0602 67.2764 28.1648 67.3502 28.2476 67.4455L32.9901 72.8614C33.0641 72.9393 33.1532 73.0013 33.2519 73.0437C33.3506 73.0861 33.457 73.1079 33.5644 73.1079C33.6718 73.1079 33.7781 73.0861 33.8769 73.0437C33.9756 73.0013 34.0647 72.9393 34.1387 72.8614L36.2377 70.703C36.314 70.6258 36.3733 70.5334 36.4115 70.4318C36.4498 70.3301 36.4662 70.2216 36.4596 70.1132C36.4531 70.0048 36.4238 69.8991 36.3736 69.8028C36.3234 69.7065 36.2535 69.6219 36.1684 69.5544L30.5545 65.0594C30.4711 64.9771 30.4076 64.8769 30.3686 64.7665C30.3297 64.656 30.3164 64.5381 30.3297 64.4217C30.3431 64.3053 30.3827 64.1935 30.4457 64.0947C30.5087 63.9959 30.5933 63.9127 30.6931 63.8515L34.4555 61.5842C34.5822 61.5078 34.6846 61.3972 34.751 61.265C34.8173 61.1328 34.8448 60.9846 34.8303 60.8374C34.8158 60.6902 34.7599 60.5502 34.669 60.4335C34.5781 60.3168 34.456 60.2283 34.3169 60.1782Z" fill="#B784CE"/>
<path d="M101.158 38.0099H9.72282C9.32893 38.0099 8.95118 37.8534 8.67266 37.5749C8.39414 37.2964 8.23767 36.9187 8.23767 36.5248V25.5644C8.23767 25.1705 8.39414 24.7927 8.67266 24.5142C8.95118 24.2357 9.32893 24.0792 9.72282 24.0792H101.158C101.552 24.0818 101.928 24.2391 102.206 24.5171C102.484 24.795 102.641 25.1713 102.644 25.5644V36.5248C102.644 36.9187 102.487 37.2964 102.209 37.5749C101.93 37.8534 101.552 38.0099 101.158 38.0099ZM11.208 35.0396H99.6733V27.0495H11.208V35.0396Z" fill="#333333"/>
<path d="M101.168 90.1485H79.6039C79.21 90.1485 78.8323 89.992 78.5538 89.7135C78.2752 89.435 78.1188 89.0573 78.1188 88.6634V70.7327C78.1188 70.3388 78.2752 69.961 78.5538 69.6825C78.8323 69.404 79.21 69.2475 79.6039 69.2475H101.168C101.562 69.2475 101.94 69.404 102.218 69.6825C102.497 69.961 102.653 70.3388 102.653 70.7327V88.6634C102.653 89.0573 102.497 89.435 102.218 89.7135C101.94 89.992 101.562 90.1485 101.168 90.1485ZM81.0891 87.1782H99.6831V72.2178H81.0891V87.1782Z" fill="#333333"/>
<path d="M102.475 100H8.41584C6.18463 99.9974 4.04555 99.1099 2.46784 97.5322C0.890128 95.9545 0.00262034 93.8154 0 91.5842L0 8.41584C0.00262034 6.18463 0.890128 4.04555 2.46784 2.46784C4.04555 0.890128 6.18463 0.00262034 8.41584 0L79.0693 0C79.4632 0 79.841 0.156471 80.1195 0.43499C80.398 0.713509 80.5545 1.09126 80.5545 1.48515C80.5545 1.87903 80.398 2.25679 80.1195 2.53531C79.841 2.81383 79.4632 2.9703 79.0693 2.9703H8.41584C6.9724 2.97291 5.58882 3.54748 4.56815 4.56815C3.54748 5.58882 2.97291 6.9724 2.9703 8.41584V91.5842C2.97291 93.0276 3.54748 94.4112 4.56815 95.4319C5.58882 96.4525 6.9724 97.0271 8.41584 97.0297H102.475C103.919 97.0271 105.302 96.4525 106.323 95.4319C107.344 94.4112 107.918 93.0276 107.921 91.5842V8.41584C107.918 6.9724 107.344 5.58882 106.323 4.56815C105.302 3.54748 103.919 2.97291 102.475 2.9703H86.9901C86.5962 2.9703 86.2185 2.81383 85.9399 2.53531C85.6614 2.25679 85.505 1.87903 85.505 1.48515C85.505 1.09126 85.6614 0.713509 85.9399 0.43499C86.2185 0.156471 86.5962 0 86.9901 0L102.475 0C104.706 0.00262034 106.846 0.890128 108.423 2.46784C110.001 4.04555 110.888 6.18463 110.891 8.41584V91.5842C110.888 93.8154 110.001 95.9545 108.423 97.5322C106.846 99.1099 104.706 99.9974 102.475 100Z" fill="#333333"/>
</g>
<defs>
<clipPath id="clip0_438_364">
<rect width="110.891" height="100" fill="white"/>
</clipPath>
</defs>
</svg>
