<svg width="2500" height="330" viewBox="0 0 2500 330" fill="none" xmlns="http://www.w3.org/2000/svg">
<g clip-path="url(#clip0_549_34)">
<path d="M32.7456 21.9476C32.7456 21.9476 32.7456 22.3368 32.7456 22.4924C32.7942 22.4076 32.8195 22.3144 32.8195 22.22C32.8195 22.1256 32.7942 22.0325 32.7456 21.9476Z" fill="white"/>
<path d="M26.0632 17.745L22.1112 18.7568C20.9821 18.7568 20.4177 21.0916 20.4177 22.2591C20.4177 23.4265 23.4286 23.8935 25.1222 23.7378C27.2703 23.1104 29.4719 22.6162 31.7087 22.2591H32.7436C32.7842 21.5659 32.6278 20.8745 32.2867 20.2405C31.9456 19.6064 31.4295 19.0474 30.7798 18.6084C30.1301 18.1694 29.3647 17.8625 28.5455 17.7126C27.7264 17.5626 26.8762 17.5737 26.0632 17.745Z" fill="white"/>
<path d="M579.037 317.386C577.075 317.666 575.07 317.666 573.109 317.386H572.45C571.604 317.386 570.663 317.386 569.722 316.685C568.31 316.426 566.949 316.007 565.676 315.44C564.857 315.121 564.007 314.861 563.135 314.662C563.052 314.943 563.052 315.236 563.135 315.518V316.296C562.794 316.939 562.572 317.621 562.477 318.319L577.908 317.541L579.037 317.386Z" fill="white"/>
<path d="M177.832 85.8451C178.853 86.0647 179.792 86.4929 180.561 87.0903L183.666 84.055L184.701 83.1211L171.34 84.6776C173.786 85.0668 175.95 85.4559 177.832 85.8451Z" fill="white"/>
<path d="M301.374 118.922V119.856H303.726L301.374 118.922Z" fill="white"/>
<path d="M210.105 99.932H211.328C210.993 98.8994 210.382 97.942 209.541 97.1302C209.956 98.023 210.148 98.9761 210.105 99.932Z" fill="white"/>
<path d="M0.0948486 61.4847C0.0948486 63.6639 9.504 66.4657 12.609 65.4539H13.6439C14.6985 63.9425 15.2202 62.217 15.1495 60.4729L17.8783 59.8503C19.4244 59.5663 21.0432 59.7895 22.3944 60.4729C22.724 60.9605 22.8971 61.5098 22.8971 62.0684C22.8971 62.627 22.724 63.1763 22.3944 63.6639C21.6704 64.7512 20.5513 65.6225 19.1954 66.1544L15.3375 67.8666C10.5389 69.7345 12.3267 71.8359 14.3026 71.9916C16.2785 72.1472 15.9963 75.416 15.4318 76.4278C14.8672 77.4396 18.913 78.607 20.3243 78.7627C21.7357 78.9183 20.3244 81.0975 19.1012 81.798C17.878 82.4984 19.1014 84.055 20.795 85.3781L23.6176 83.8994C24.8849 83.0915 26.4399 82.6535 28.0399 82.6535C29.6399 82.6535 31.1949 83.0915 32.4623 83.8994C33.4032 84.8333 35.0968 83.8994 35.379 83.2767C35.6613 82.6541 38.7662 83.9772 39.7072 84.522C40.6481 85.0668 44.5058 84.522 45.6349 84.522C47.2988 85.6432 48.6474 87.0508 49.5868 88.6469C49.5868 89.6587 51.0923 89.8143 52.1273 89.0361L53.6327 87.7908C54.6521 86.3315 55.7835 84.9277 57.0199 83.588C57.5204 83.3937 58.0666 83.2929 58.6195 83.2929C59.1724 83.2929 59.7186 83.3937 60.2191 83.588C60.9718 83.9772 61.6304 85.4559 61.254 85.6894C56.8317 88.1799 59.3722 91.5266 59.09 94.4841C64.0771 95.1827 69.1907 94.9432 74.0507 93.7836L78.849 92.694H79.6959C80.1664 92.694 82.5186 95.7293 83.2714 96.8968C84.0241 98.0642 89.5754 96.8968 91.1749 96.0406L97.5731 93.3945H98.2318L99.455 94.1727C100.02 95.3402 103.501 94.8732 107.171 93.0831H107.641C111.216 95.5737 114.039 91.9935 117.05 93.0831C117.05 93.0831 119.308 92.3827 119.496 91.9157V91.2153C118.744 90.437 113.192 89.8143 113.098 88.6469C113.004 87.4795 112.44 86.8569 111.875 87.4017V87.8686C111.875 90.1257 112.44 93.0053 106.7 90.6705C105.828 90.5528 104.938 90.5528 104.066 90.6705H102.56C99.6828 90.4546 96.8934 89.7385 94.3741 88.5691L91.8336 87.3238C92.556 86.5997 93.377 85.9468 94.2802 85.3781C94.9388 84.989 97.197 86.1564 99.267 87.8686H100.02L106.512 86.2342C112.099 84.3122 118.323 84.0645 124.107 85.5338C125.613 86.7012 123.072 92.8496 126.083 93.3166C127.346 93.5711 128.676 93.4633 129.856 93.0108C131.035 92.5584 131.994 91.7881 132.575 90.8261C132.575 89.6587 136.715 90.8261 137.656 91.4487C138.244 92.0041 138.648 92.6758 138.829 93.3986C139.011 94.1214 138.963 94.8706 138.691 95.5737L141.232 94.5619L148.382 91.8379C154.848 93.1719 161.479 93.8771 168.141 93.9393C169.336 92.3484 169.986 90.5194 170.023 88.6469L173.881 89.8143C175.198 90.2813 175.198 92.694 175.857 94.1727C177.624 93.0834 179.291 91.8867 180.844 90.5926C181.473 89.9859 181.819 89.2129 181.819 88.4134C181.819 87.614 181.473 86.8409 180.844 86.2342L179.244 87.6351C178.635 87.4347 178.122 87.0755 177.783 86.612C177.443 86.1485 177.296 85.606 177.362 85.0668C177.362 84.6776 176.422 84.4442 174.822 84.5998L173.505 85.0668L169.177 86.5455C164.002 87.0903 158.826 86.5455 162.684 85.0668C165.775 84.3919 168.919 83.8977 172.093 83.588C167.765 82.8876 162.684 82.265 159.109 81.9536L161.743 81.0197L166.542 79.3853C167.013 82.0314 169.365 82.7319 170.118 82.265C170.87 81.798 175.951 77.3618 178.492 77.9844C181.267 78.7054 183.743 80.0532 185.642 81.8758L194.581 80.7862C197.122 80.3192 192.981 83.5102 191.664 84.2885C190.347 85.0668 195.146 90.5926 198.251 90.2035C201.356 89.8143 202.955 92.694 201.826 96.5854L200.885 97.675C200.226 98.4533 199.568 99.7764 200.038 100.399L200.415 103.357C203.238 105.536 208.224 102.89 209.824 101.411C210.217 100.989 210.417 100.465 210.389 99.9321C209.174 100.1 207.934 100.1 206.719 99.9321V99.3873C206.699 98.9833 206.811 98.5824 207.043 98.2264C207.275 97.8705 207.618 97.5725 208.036 97.3637H209.918C209.509 96.3465 208.939 95.3783 208.224 94.4841L212.553 90.9818L221.962 95.3402L227.89 97.0524C230.864 94.8119 234.555 93.326 238.522 92.7718L239.274 93.3166L242.097 95.418C237.633 98.3195 232.359 100.246 226.76 101.022L222.056 100.01C218.48 99.2316 216.598 100.944 214.999 100.555L212.364 100.01H211.329C211.917 101.308 212.266 102.673 212.364 104.057L214.528 105.38L215.281 105.847C217.634 105.265 219.749 104.161 221.397 102.656H224.314L231.277 102.267C237.769 105.302 238.522 107.871 232.782 107.871H224.784C223.119 109.56 221.987 111.566 221.491 113.708V115.653C221.465 115.864 221.492 116.077 221.569 116.279C221.646 116.481 221.772 116.668 221.939 116.828C222.107 116.988 222.312 117.119 222.542 117.211C222.772 117.304 223.023 117.356 223.279 117.366H224.126C225.537 117.366 227.607 116.665 228.36 117.366L230.618 118.689C233.366 118.182 236.239 118.428 238.804 119.389L240.968 120.245H241.533C242.474 120.245 247.554 117.21 249.624 117.755C253.27 118.181 256.957 118.312 260.633 118.144L264.209 116.12L265.055 115.576C267.502 116.12 267.031 117.988 263.926 119.701H260.445C260.445 120.401 263.362 121.335 264.679 121.491C265.996 121.646 266.09 123.203 265.902 123.67C265.714 124.137 267.125 124.37 269.289 124.292V123.825L269.854 122.658C269.854 120.635 277.287 123.436 280.392 124.215C282.212 124.445 284.074 124.228 285.746 123.592C287.418 122.955 288.828 121.927 289.801 120.635L292.342 119L294.506 117.521C296.682 118.025 298.793 118.703 300.81 119.545C300.81 119 301.469 118.533 301.939 118.455C302.41 118.377 303.727 119.078 304.291 120.401H302.88L304.574 121.335C304.725 122.213 304.725 123.104 304.574 123.981L306.738 122.658C309.466 124.292 311.16 125.849 310.407 126.394C309.654 126.939 304.291 129.974 303.539 129.429C301.803 127.824 300.546 125.905 299.869 123.825C299.707 122.714 299.707 121.59 299.869 120.479H298.269V120.946V123.748C298.14 125.088 297.671 126.39 296.893 127.57C296.115 128.75 295.045 129.781 293.753 130.597C292.624 130.986 290.93 130.052 290.084 128.573L288.202 129.974C287.543 130.519 286.979 131.297 286.038 131.531L282.745 132.387C279.169 133.243 274.37 134.566 272.112 135.344L269.76 133.865C268.291 133.303 266.654 133.114 265.055 133.321H261.762C257.218 133.119 252.663 133.119 248.119 133.321C245.515 134.156 242.719 134.502 239.933 134.332C236.894 133.426 233.736 132.825 230.524 132.542C228.463 132.767 226.375 132.767 224.314 132.542L223.467 133.009L218.48 135.578C213.117 134.255 207.472 133.009 205.966 132.776L205.402 133.165L201.92 135.344C198.022 134.066 193.681 134.066 189.783 135.344L185.925 133.71C184.607 133.087 181.597 134.644 179.621 133.087C179.056 133.087 172.187 135.967 169.741 134.877C169.175 134.622 168.553 134.465 167.912 134.413C167.27 134.361 166.623 134.417 166.008 134.577C165.394 134.737 164.824 134.997 164.334 135.343C163.844 135.689 163.443 136.113 163.155 136.589C160.108 136.152 157.159 135.339 154.404 134.177C151.488 132.698 148.853 137.212 146.312 134.177C143.415 135.326 140.697 136.764 138.221 138.457H133.892H130.881C126.159 138.851 121.615 140.158 117.615 142.271C115.921 143.283 117.615 144.45 120.626 144.761L119.685 147.875L119.496 150.054C119.657 153.136 120.757 156.135 122.695 158.771L120.061 161.028L118.932 162.039C118.179 163.44 114.698 166.865 114.698 167.954C114.698 169.044 112.346 170.912 109.523 172.235L106.982 173.558C104.822 176.76 103.417 180.273 102.842 183.909L105.289 185.621C104.827 186.643 104.111 187.572 103.187 188.35C102.263 189.127 101.152 189.736 99.9254 190.136H96.6324C95.3152 191.303 97.1969 192.937 98.1378 193.171C99.0787 193.404 92.3039 199.164 89.3871 201.343C86.4703 203.522 86.9409 206.246 88.0699 206.635C89.199 207.024 88.9169 209.359 87.5055 211.772L85.8119 213.173L84.3065 214.496C81.4838 214.963 79.3196 219.088 81.1073 219.321C82.7133 219.605 84.1464 220.349 85.1532 221.423C85.1532 221.89 87.5996 220.255 90.3282 217.765L94.2802 219.321L96.6324 220.333C95.5034 221.734 101.243 224.614 104.348 225.392C107.453 226.17 100.961 228.038 98.6083 228.349C96.256 228.661 87.8819 228.349 87.035 226.715C86.1882 225.081 84.1181 225.703 82.6127 227.96L79.0375 226.17L78.0966 225.625C75.9325 224.458 76.2147 224.614 73.392 226.715L71.6041 228.038C69.0637 228.972 67.5582 230.84 68.3109 232.241L69.3461 233.33L72.2628 236.132C71.7514 238.553 71.7514 241.028 72.2628 243.448C72.7333 243.915 80.6368 244.849 82.1422 246.484C86.2796 249.435 91.1198 251.636 96.35 252.943C100.76 252.998 105.148 253.468 109.429 254.344C112.864 255.271 115.859 257.068 117.991 259.481L116.203 261.271C114.264 262.912 112.53 264.712 111.028 266.641C110.464 267.731 111.028 269.443 112.251 270.688C113.475 271.934 115.356 272.089 117.238 270.688C119.12 269.287 119.308 270.688 119.967 271.622C120.342 272.061 120.834 272.423 121.405 272.679C121.976 272.936 122.611 273.08 123.26 273.101C125.424 272.712 128.717 272.011 129.282 270.922L132.011 266.096C133.774 266.532 135.27 267.507 136.197 268.822C137.123 270.138 137.409 271.695 136.997 273.179C135.738 274.681 134.695 276.301 133.892 278.004H137.091C138.032 278.004 139.256 276.992 140.196 276.292C141.137 275.591 141.043 274.891 141.137 274.969L145.56 275.825C150.452 276.915 157.039 273.49 159.391 272.945C163.674 273.292 167.783 274.523 171.341 276.525C172.514 276.948 173.813 277.071 175.071 276.876C176.329 276.682 177.488 276.18 178.397 275.436C179.338 274.502 180.938 277.304 181.126 278.238C181.314 279.172 182.537 278.238 183.855 276.214H191.288C194.017 273.334 200.697 267.264 199.286 265.552C197.874 263.839 202.673 264.228 204.743 264.851C206.819 265.193 208.974 264.947 210.859 264.151C214.129 263.965 217.395 264.559 220.268 265.863C221.964 267.235 223.252 268.913 224.032 270.766C224.032 271.934 218.198 273.257 216.128 273.412C214.058 273.568 216.128 275.28 221.115 277.226H222.526C224.126 277.226 224.69 276.603 224.502 276.214C224.314 275.825 226.102 275.125 226.854 275.047C227.607 274.969 229.771 279.094 232.312 279.016C234.852 278.938 233.817 279.794 232.312 280.183C230.806 280.573 248.119 282.285 248.966 282.985C249.813 283.686 248.966 285.398 247.931 285.787C246.896 286.176 247.931 287.032 248.872 287.655L249.907 288.278L251.224 289.523C252.259 290.457 248.025 293.414 246.331 294.348C244.638 295.282 240.78 290.69 240.874 288.978C240.968 287.266 240.874 285.865 240.874 285.865C238.71 287.266 236.546 288.589 234.57 290.068L232.876 291.313C231.233 292.92 230.216 294.9 229.959 296.994C230.234 298.673 230.838 300.302 231.747 301.82C232.97 303.143 241.156 303.843 241.156 305.089C241.156 306.334 236.922 306.956 231.747 306.256H226.666C225.443 306.256 223.185 307.579 223.091 308.435V310.459C223.655 312.794 227.325 316.763 229.207 316.452C231.088 316.14 233.253 313.261 231.841 313.027C230.43 312.794 230.524 310.926 230.618 310.07C230.712 309.213 232.594 308.435 234.852 308.357C235.699 311.548 237.393 312.327 241.25 309.836H241.815C242.536 309.876 243.222 310.11 243.766 310.504C244.31 310.898 244.683 311.429 244.826 312.015V312.949C244.826 313.961 242.944 315.362 243.414 315.829C245.316 317.392 247.396 318.799 249.624 320.032C250.406 319.159 251.01 318.186 251.412 317.152C251.412 316.374 256.023 321.822 259.034 322.444C262.044 323.067 265.055 320.576 265.62 316.996L270.042 321.277C270.778 321.11 271.477 320.848 272.112 320.499L273.147 319.876C274.088 319.176 281.333 318.397 282.556 317.386C283.779 316.374 289.425 315.206 289.519 315.985C289.613 316.763 293.565 316.529 295.07 316.996C296.576 317.463 301.939 318.242 302.315 316.996C302.682 315.903 303.154 314.836 303.727 313.805C305.09 313.891 306.411 314.238 307.585 314.817L319.534 319.565L325.744 317.23L326.685 316.841C328.19 316.841 330.26 319.409 330.637 320.499C331.013 321.588 334.024 319.72 335.153 319.253C338.102 319.181 341.041 319.577 343.809 320.421C345.503 321.043 349.079 319.331 350.02 318.319C350.961 317.308 355.853 320.421 357.077 319.798L360.276 317.852H360.934C361.781 317.852 364.51 319.176 365.262 319.72C366.015 320.265 370.72 317.541 372.413 317.775C374.107 318.008 374.671 322.211 372.413 322.6C370.155 322.989 370.155 324.546 372.413 326.18L374.577 327.503C376.177 327.503 377.494 323.067 377.494 321.355C377.494 319.643 380.505 318.864 384.269 319.798H387.091C392.643 320.343 392.737 320.265 393.396 324.157C393.382 324.338 393.382 324.52 393.396 324.701C397.159 324.701 397.724 327.27 399.888 328.515L402.617 329.06C406.192 328.671 406.568 325.402 403.463 321.9L405.157 319.176L407.227 315.829C412.59 316.452 415.789 321.822 414.566 322.444C413.058 323.08 411.69 323.922 410.52 324.935C410.52 325.402 411.837 326.18 412.59 326.336C417.347 325.477 422.214 325.111 427.08 325.246C431.72 326.65 436.508 327.692 441.382 328.359C443.452 328.359 444.299 326.881 444.017 326.491C443.734 326.102 450.038 324.701 450.979 323.145C451.92 321.588 452.955 321.043 453.238 321.9V322.678C453.238 323.456 451.732 324.857 452.014 325.013L454.555 326.258C457.472 327.503 464.905 326.258 466.881 326.725C468.028 327.121 469.26 327.325 470.503 327.325C471.747 327.325 472.978 327.121 474.126 326.725C474.866 326.335 475.761 326.199 476.621 326.344C477.481 326.489 478.239 326.905 478.736 327.503L480.148 328.593C480.148 328.593 481.089 328.593 481.371 328.593L483.253 329.06C485.417 328.437 488.898 327.97 490.498 327.503C495.284 326.264 500.256 325.583 505.27 325.48C507.904 326.024 513.644 326.881 517.878 327.348L522.3 328.282C524.653 328.826 524.088 327.503 522.959 326.414V325.947C523.806 324.779 522.018 323.223 518.913 322.444L516.09 321.51L514.679 321.277C514.679 320.265 515.338 317.697 515.996 318.319C519.398 319.685 522.697 321.218 525.876 322.911C527.287 324.157 530.298 326.725 530.957 327.114C531.615 327.503 536.226 327.737 536.602 327.114C539.408 325.496 542.403 324.115 545.541 322.989C547.799 322.133 545.541 321.51 543.847 321.51C541.769 321.122 539.911 320.162 538.578 318.786C537.919 318.086 537.731 314.662 539.707 314.117C541.683 313.572 549.116 314.817 551.657 314.117C555.415 313.823 559.207 314.086 562.854 314.895C562.854 313.883 564.171 312.716 565.018 312.871C565.865 313.027 567.558 315.518 569.44 316.919C570.552 317.15 571.685 317.306 572.827 317.386C574.735 316.65 576.535 315.736 578.19 314.662L581.013 315.44C583.742 314.817 584.118 316.763 579.696 317.463H576.873L575.085 318.242H574.521C572.239 319.013 569.877 319.612 567.464 320.032L563.983 319.176C562.101 318.709 561.442 318.709 561.442 318.008C558.271 317.99 555.109 318.304 552.033 318.942C550.434 319.954 557.208 322.211 560.313 322.367C562.533 322.328 564.72 322.814 566.617 323.767V324.234V324.779C567.464 325.635 568.875 323.067 569.158 322.055C569.44 321.043 579.602 323.145 583.46 322.911C587.317 322.678 596.256 319.565 597.197 321.277C598.138 322.989 604.724 321.822 606.606 321.277C608.488 320.732 616.015 323.378 617.615 323.067C619.214 322.756 622.601 322.055 623.26 321.977C623.919 321.9 628.247 321.977 632.669 322.678H637.656C638.785 321.588 640.573 319.954 641.702 319.02L646.406 321.977C647.01 322.399 647.781 322.621 648.571 322.6C650.006 321.779 651.756 321.421 653.489 321.593C655.222 321.765 656.819 322.455 657.98 323.534L660.52 325.558L671.717 322.989L674.634 324.312C678.209 325.947 681.408 326.102 682.632 322.133C682.632 321.043 686.113 321.043 686.96 322.989V323.69C686.96 324.234 691.947 323.3 693.358 322.756C694.111 322.616 694.898 322.676 695.608 322.927C696.317 323.179 696.913 323.609 697.31 324.157C697.31 324.857 701.826 321.666 703.143 320.421C704.461 319.176 706.625 319.643 707.754 321.588H711.423H713.211C713.472 321.877 713.821 322.102 714.222 322.242C714.623 322.382 715.062 322.43 715.494 322.382C715.925 322.335 716.334 322.193 716.677 321.971C717.02 321.749 717.285 321.456 717.445 321.121C717.445 320.187 720.927 321.121 721.868 321.822C722.808 322.522 726.76 321.043 727.984 320.343C729.207 319.643 734.664 321.977 735.981 322.834C736.88 323.181 737.859 323.361 738.851 323.361C739.843 323.361 740.822 323.181 741.721 322.834C741.721 322.444 749.154 324.157 751.694 323.767C753.765 323.408 755.721 322.692 757.434 321.666L760.351 318.942C762.992 318.667 765.672 318.799 768.254 319.331L773.147 320.265C774.182 324.701 776.817 322.911 779.545 321.121C783.311 320.422 787.166 320.108 791.024 320.187L795.823 322.055C800.151 323.534 804.103 322.834 804.574 320.499L806.079 320.032C809.655 318.786 808.996 321.744 810.407 322.756C811.68 323.157 813.086 323.157 814.359 322.756L815.112 321.199C816.805 321.199 828.285 320.81 832.236 320.654C836.188 320.499 843.245 319.565 844.468 320.654C845.119 321.342 846.047 321.814 847.082 321.985C848.118 322.157 849.193 322.016 850.114 321.588V320.732C850.114 317.463 852.372 317.308 855.571 319.176L857.641 320.343C858.947 319.628 860.374 319.077 861.875 318.709C861.875 318.709 865.545 322.756 867.615 321.9C869.685 321.043 875.048 319.409 879.564 318.164L884.269 319.798C887.324 320.533 890.497 320.875 893.678 320.81H896.595C899.606 320.421 909.015 322.6 911.743 322.211C914.472 321.822 916.636 317.23 916.636 315.751C916.636 314.272 920.588 314.428 922.093 314.895C923.599 315.362 923.317 315.907 922.093 316.062H921.152C919.082 316.996 918.8 319.253 920.494 319.331H927.551C935.078 318.086 941.852 318.631 942.605 320.499H949.662C955.998 320.266 962.296 319.563 968.48 318.397L975.725 321.277C977.092 321.505 978.499 321.505 979.865 321.277L980.43 314.895C985.605 317.152 991.909 320.421 992.756 320.966C993.603 321.51 996.99 320.265 998.307 320.187C999.624 320.11 1007.72 319.643 1010.26 319.331C1012.8 319.02 1017.69 321.277 1019.67 320.888L1028.51 318.864H1031.62C1034.89 319.087 1038.17 318.49 1041.02 317.152C1042.98 316.49 1045.18 316.49 1047.14 317.152L1050.53 318.709C1054.52 317.755 1058.57 316.975 1062.67 316.374V319.72V320.499C1066.72 321.05 1070.85 321.05 1074.9 320.499C1077.13 320.216 1079.17 319.276 1080.64 317.852C1080.64 317.23 1083.93 318.475 1084.87 319.098C1088.18 320.125 1091.68 320.678 1095.22 320.732H1102.84C1107.28 320.172 1111.65 319.313 1115.92 318.164L1117.99 318.942C1119.43 319.583 1121.09 319.786 1122.69 319.516C1124.29 319.246 1125.72 318.519 1126.74 317.463C1132.52 317.535 1138.31 317.301 1144.05 316.763L1150.92 320.499C1156.42 319.38 1162.02 318.651 1167.67 318.319C1171.81 318.319 1183.67 316.218 1185.45 318.319C1187.24 320.421 1189.22 319.331 1189.5 318.319C1189.78 317.308 1194.3 319.487 1196.27 319.253C1200.79 319.054 1205.31 319.054 1209.82 319.253L1214.81 319.643L1232.03 318.008C1232.7 317.531 1233.49 317.174 1234.34 316.958C1235.18 316.742 1236.08 316.672 1236.96 316.752C1237.84 316.832 1238.69 317.061 1239.46 317.424C1240.23 317.788 1240.91 318.278 1241.44 318.864L1243.51 321.277L1255.55 318.631H1259.13H1260.26C1262.16 317.857 1263.83 316.74 1265.15 315.362H1268.25C1271.83 315.362 1273.43 316.763 1275.69 317.93L1276.82 317.775C1281.34 317.44 1285.79 316.656 1290.08 315.44C1294.7 314.705 1299.43 314.548 1304.1 314.973C1306.38 314.88 1308.65 315.037 1310.88 315.44L1311.82 315.907L1317.28 318.475C1317.28 315.595 1324.05 316.14 1326.69 315.907C1329.32 315.673 1334.31 314.895 1335.44 314.895C1338.58 314.914 1341.72 315.069 1344.84 315.362L1347.76 313.494C1350.4 313.931 1352.99 314.583 1355.48 315.44C1358.64 315.418 1361.78 315.157 1364.89 314.662C1370.01 315.246 1375.2 315.246 1380.32 314.662C1384.6 313.541 1389.09 313.04 1393.58 313.183C1395.91 314.036 1398.02 315.251 1399.79 316.763C1400.73 317.697 1406.38 315.206 1407.6 314.428C1408.17 314.113 1408.85 313.946 1409.53 313.946C1410.22 313.946 1410.89 314.113 1411.46 314.428C1414.56 315.009 1417.77 315.009 1420.87 314.428L1424.73 315.128L1428.12 315.751C1430.71 314.808 1433.38 314.028 1436.11 313.416C1437.15 313.416 1444.58 314.817 1446.56 313.416C1448.53 312.015 1450.6 313.416 1451.26 315.284L1455.59 314.662L1461.61 313.883C1464.6 314.426 1467.55 315.102 1470.46 315.907H1471.02L1474.41 314.272C1478.64 314.272 1487.2 311.782 1489.09 312.794C1490.97 313.805 1502.64 311.937 1504.89 313.494C1507.15 315.051 1512.23 313.494 1515.81 310.07L1521.45 314.662C1522.59 314.794 1523.76 314.602 1524.75 314.117L1527.29 312.404C1529.95 313.173 1532.82 313.308 1535.57 312.794H1537.07C1539.52 312.794 1535.66 308.357 1540.65 310.614C1542.72 311.548 1544.32 311.86 1545.54 310.147C1545.54 309.68 1545.54 308.98 1545.54 308.435V307.657C1546.2 306.1 1547.89 308.669 1548.18 309.603C1548.57 310.211 1549.15 310.72 1549.86 311.076C1550.57 311.432 1551.39 311.622 1552.22 311.626H1553.07L1556.17 310.225C1557.68 311.782 1559.47 313.416 1560.03 313.883L1560.88 313.494L1563.23 315.051C1565.39 312.716 1574.43 311.937 1577.25 312.171C1580.68 311.789 1583.79 310.308 1585.91 308.046C1586.85 306.801 1588.35 307.501 1589.11 309.758L1590.89 310.77C1593.04 311.985 1595.67 312.46 1598.23 312.093C1604.64 310.671 1611.33 310.327 1617.9 311.081H1621.47C1624.39 310.07 1628.06 303.299 1624.95 302.754C1621.85 302.209 1621.94 300.964 1624.95 300.341L1627.4 299.563L1633.14 297.928C1636.57 299.206 1639.74 300.912 1642.55 302.987V303.454V303.921C1641.8 303.921 1631.82 303.454 1630.79 305.633C1630.17 307.144 1629.21 308.544 1627.96 309.758C1627.96 309.758 1627.96 310.381 1628.81 311.159H1629.56L1633.42 311.782C1637.03 312.217 1640.71 311.553 1643.77 309.914C1644.53 308.545 1645.1 307.109 1645.47 305.633L1647.82 306.879C1648.76 307.423 1650.08 307.968 1650.26 308.669V309.447C1649.51 310.303 1650.26 310.926 1651.96 310.692L1653.09 310.07L1654.4 309.447C1655.44 308.435 1665.7 311.471 1668.52 311.004L1675.76 309.68H1685.17L1688.84 308.98H1690.91C1692.98 307.501 1697.22 310.303 1698.06 311.626C1698.91 312.949 1702.86 311.626 1703.9 310.381C1706.45 308.757 1709.23 307.398 1712.18 306.334L1714.81 309.525C1715.46 309.761 1716.17 309.882 1716.88 309.882C1717.59 309.882 1718.3 309.761 1718.95 309.525L1724.31 305.711C1727.93 307.926 1732.33 309.077 1736.83 308.98C1738.9 308.839 1740.98 309.051 1742.94 309.603L1744.36 308.28C1745.48 307.268 1745.95 305.867 1747.18 304.855L1747.27 304.622C1748.87 304.622 1750 305.011 1749.91 305.711V307.268C1749.91 308.357 1751.04 309.213 1752.82 309.136L1753.95 308.669L1756.02 307.89C1757.49 307.299 1759.1 306.991 1760.73 306.991C1762.36 306.991 1763.97 307.299 1765.43 307.89L1766.09 308.357L1769.1 310.07C1772.58 309.525 1777.38 307.813 1777.19 306.801C1777.21 306.181 1777.46 305.581 1777.92 305.09C1778.38 304.6 1779.01 304.244 1779.73 304.077C1781.33 305.166 1782.37 306.723 1783.97 307.813L1784.91 308.435C1787.26 308.9 1789.65 309.238 1792.06 309.447L1794.22 308.357L1796.67 307.112C1800.61 306.52 1804.67 306.68 1808.53 307.579C1810.13 308.28 1813.32 307.034 1815.77 304.622L1816.71 306.567C1817.84 309.058 1818.41 310.07 1822.26 308.28L1823.77 307.579C1826.03 307.579 1833.18 310.381 1833.18 308.669C1833.18 306.956 1836.56 307.112 1837.88 306.801C1840.55 305.688 1843.41 304.902 1846.35 304.466C1848.33 304.466 1854.44 306.723 1856.89 306.879C1859.33 307.034 1870.63 303.454 1874.67 303.765C1881.22 304.742 1887.88 305.082 1894.52 304.777C1897.72 303.688 1900.64 303.999 1900.92 305.478V306.801C1904.8 305.406 1908.8 304.236 1912.87 303.299C1915.65 303.306 1918.42 303.674 1921.06 304.388L1923.03 303.143L1927.46 300.263C1930.01 300.939 1932.69 301.203 1935.36 301.041C1935.96 300.282 1936.46 299.473 1936.87 298.629C1936.87 297.695 1934.14 293.57 1934.98 292.247C1935.83 290.924 1940.35 290.535 1944.39 291.391H1948.53H1952.86C1956.55 291.552 1960.25 291.317 1963.87 290.69C1965.19 290.69 1971.4 291.235 1971.87 290.068C1972.34 288.9 1976.01 287.655 1976.48 288.433C1976.95 289.212 1979.49 289.367 1980.15 289.99C1980.81 290.612 1980.15 294.27 1982.12 294.504C1985.66 295.457 1988.97 296.905 1991.91 298.784L1995.01 299.407H1996.8C1998.59 300.341 2003.86 295.905 2005.18 294.037C2006.49 292.169 2008.56 291.157 2009.88 291.702L2010.73 292.48L2015.34 293.881C2018.03 292.215 2020.86 290.706 2023.81 289.367C2024.56 289.367 2025.69 289.99 2026.25 291.157V291.936L2025.59 292.869C2023.63 294.176 2022.19 295.938 2021.45 297.928L2025.88 299.641H2026.72C2027.85 300.263 2032.84 296.216 2034.25 294.582C2036.39 292.37 2038.71 290.289 2041.21 288.355H2044.98H2047.33C2049.68 288.355 2050.53 291.002 2050.25 291.858C2049.96 292.714 2053.63 295.905 2055.23 296.994C2056.83 298.084 2063.7 295.204 2066.62 295.126C2071.24 295.052 2075.86 294.767 2080.45 294.27C2083.79 293.256 2087.22 292.449 2090.7 291.858H2096.54L2097.39 292.247L2098.98 293.025C2100.49 294.193 2104.07 293.726 2106.79 291.936C2113.29 295.905 2116.2 291.936 2120.06 289.523L2126.27 285.554C2131.63 287.032 2136.9 286.643 2138.03 284.775L2138.5 282.985V281.429C2138.52 281.023 2138.64 280.626 2138.87 280.264C2139.09 279.902 2139.4 279.584 2139.79 279.333C2140.17 279.081 2140.62 278.901 2141.09 278.807C2141.57 278.712 2142.07 278.703 2142.55 278.782C2144.78 279.325 2147.1 279.561 2149.42 279.483H2151.96C2153.28 279.483 2154.59 276.448 2155.82 276.448C2158.39 276.807 2160.87 277.517 2163.15 278.549H2164.28C2165.32 279.016 2166.26 276.837 2166.26 275.825C2166.26 274.813 2168.8 274.191 2172 274.58L2173.98 275.28L2176.14 276.058C2178.5 276.309 2180.72 277.12 2182.54 278.393C2182.54 278.86 2184.61 277.537 2185.92 275.28L2189.5 274.58L2191.85 273.101C2193.55 270.066 2195.71 269.521 2196.75 271.856L2197.78 273.568V274.191C2198.49 274.511 2199.28 274.679 2200.09 274.679C2200.89 274.679 2201.68 274.511 2202.39 274.191V273.568V270.766C2201.77 268.919 2201.54 266.996 2201.73 265.085C2203.67 266.861 2205.43 268.76 2207 270.766C2207.74 271.384 2208.7 271.781 2209.74 271.894C2210.78 272.007 2211.84 271.829 2212.74 271.389C2213.59 270.844 2216.79 271.934 2217.63 272.478C2219.66 272.788 2221.76 272.599 2223.66 271.934C2224.78 271.934 2225.16 270.922 2224.5 270.455V269.988C2224.39 269.808 2224.33 269.608 2224.33 269.404C2224.33 269.201 2224.39 269 2224.5 268.82C2225.59 268.206 2226.8 267.758 2228.08 267.497H2229.02C2230.15 268.042 2241.53 265.318 2245.77 265.863L2253.86 266.797C2254.52 266.252 2255.74 265.24 2255.65 265.085C2254.74 264.289 2253.56 263.745 2252.26 263.528C2251.04 263.528 2248.97 264.695 2248.68 264.462C2248.4 264.228 2245.67 262.205 2245.86 261.193V260.415C2248.5 259.637 2244.64 257.769 2242.38 257.302C2240.12 256.835 2238.05 257.302 2237.67 258.547V259.17V259.948C2238.9 260.726 2235.51 261.427 2234.19 261.427C2232.88 261.427 2232.22 257.224 2232.31 255.745C2232.41 254.266 2235.79 253.021 2239.74 252.943L2243.32 254.344L2248.02 256.212C2251.32 252.866 2250.28 249.83 2249.62 249.83C2248.97 249.83 2244.92 249.83 2240.22 249.83L2237.67 247.417C2237.02 246.873 2237.11 245.861 2236.64 245.16C2235.79 245.16 2234.38 247.34 2234.19 248.118C2234.01 248.896 2230.34 249.519 2229.21 249.519C2228.08 249.519 2227.98 248.04 2228.27 247.651C2228.55 247.262 2223.09 245.705 2222.15 247.028C2221.21 248.351 2218.67 248.274 2216.5 247.028L2214.34 246.639C2211.14 246.017 2212.36 248.663 2211.14 249.208L2209.64 249.908C2206.84 249.722 2204.14 249.003 2201.73 247.807V245.627C2204.17 244.194 2207.03 243.333 2210.01 243.137L2212.18 242.047C2213.2 241.546 2214.38 241.328 2215.56 241.425C2217.45 241.814 2219.14 242.592 2220.93 243.059L2222.81 243.604C2225.54 244.071 2229.11 240.491 2230.81 235.821L2222.06 233.564H2221.11C2221.18 232.534 2220.78 231.521 2220 230.718C2219.22 229.914 2218.11 229.376 2216.88 229.206C2215.75 229.206 2215.38 228.272 2216.03 227.026L2216.5 225.781V225.081C2212.55 224.063 2208.32 224.063 2204.37 225.081C2203.72 225.273 2203.14 225.588 2202.66 226C2202.19 226.412 2201.84 226.91 2201.63 227.454C2201.43 227.998 2201.39 228.573 2201.5 229.134C2201.62 229.695 2201.89 230.225 2202.3 230.684L2197.78 231.307L2194.2 231.852H2193.36C2192.32 231.852 2192.13 230.918 2192.42 230.451C2192.7 229.984 2193.26 227.96 2193.92 225.937V224.38C2193.36 221.189 2189.69 222.746 2187.24 223.057C2186.77 223.057 2186.68 224.458 2186.58 225.236C2187.17 225.333 2187.78 225.333 2188.37 225.236C2191.95 225.236 2192.13 225.236 2191.01 226.871L2190.35 227.805C2189.31 228.739 2183.67 227.182 2182.26 226.559C2179.99 225.277 2177.48 224.329 2174.82 223.758C2172.73 223.887 2170.66 224.147 2168.61 224.536C2165.52 225.113 2162.37 225.4 2159.2 225.392L2156 223.213C2153.28 221.345 2151.39 218.387 2146.03 218.777C2142.27 218.777 2138.41 218.777 2134.55 218.777C2130.69 218.777 2126.93 218.777 2123.07 218.777C2119.4 219.101 2115.69 218.809 2112.16 217.92C2109.9 217.064 2105.67 218.465 2102.75 218.854C2101.24 218.854 2098.61 218.854 2098.33 219.71C2098.04 220.567 2097.86 222.746 2094.94 222.201H2093.25C2092.89 221.905 2092.6 221.553 2092.41 221.166C2092.21 220.778 2092.11 220.363 2092.11 219.944C2092.11 219.525 2092.21 219.11 2092.41 218.722C2092.6 218.335 2092.89 217.983 2093.25 217.687H2094.56H2097.86C2099.66 216.212 2101.95 215.21 2104.44 214.807H2105.76H2107.17C2109.05 215.43 2111.12 213.095 2111.31 212.161C2111.5 211.227 2115.07 212.161 2119.21 214.496L2126.08 211.538C2126.89 211.177 2127.81 211.04 2128.72 211.149H2131.92C2135.66 211.822 2139.47 212.212 2143.3 212.317H2148.19C2150.36 211.85 2156.29 212.317 2157.6 211.305C2158.97 209.832 2160.55 208.499 2162.31 207.336C2163.44 206.869 2167.95 208.659 2169.08 209.359C2172.27 209.692 2175.51 209.344 2178.49 208.347C2179.3 208.173 2180.14 208.199 2180.93 208.42C2181.72 208.641 2182.41 209.049 2182.91 209.593C2182.91 210.215 2185.83 208.97 2186.49 208.503C2189.05 208.181 2191.65 208.181 2194.2 208.503C2197.54 208.481 2200.86 208.115 2204.08 207.414C2207.88 206.864 2211.77 206.864 2215.56 207.414H2219.61C2223.1 207.192 2226.52 206.536 2229.77 205.468C2231.18 205.001 2231.46 202.822 2232.78 202.51C2235.7 201.81 2235.89 203.6 2236.08 205.001C2236.08 205.001 2237.58 205.468 2237.67 205.001C2239.03 204.217 2240.59 203.709 2242.22 203.52C2243.86 203.33 2245.52 203.465 2247.08 203.911L2251.98 204.456C2251.98 202.277 2253.11 201.81 2254.71 203.289H2256.49L2258.66 203.678C2261.29 203.095 2263.86 202.367 2266.37 201.499H2268.35C2269.47 201.374 2270.55 201.084 2271.55 200.642C2275.25 199.784 2279.11 199.52 2282.93 199.864H2285.47C2288.2 199.864 2298.65 196.128 2302.22 196.284C2305.8 196.44 2316.81 197.996 2318.31 196.284C2319.82 194.572 2322.26 193.871 2323.67 195.117L2324.8 196.206L2325.27 196.751C2328.45 197.764 2331.88 198.085 2335.25 197.685L2339.01 196.051C2343.44 194.555 2348.36 194.363 2352.94 195.506C2356.05 195.955 2359.23 195.955 2362.35 195.506L2365.07 195.039C2368.27 193.794 2373.07 191.614 2375.8 190.213L2379.38 192.704C2380.41 193.56 2385.59 191.303 2387.66 192.081L2393.96 194.494C2397.44 192.472 2401.68 191.56 2405.91 191.926C2407.59 192.238 2409.35 191.986 2410.8 191.225H2412.12L2419.93 192.237C2425.29 188.968 2429.34 188.268 2428.59 190.525L2434.14 188.968C2436.3 188.357 2438.65 188.357 2440.82 188.968C2441.78 189.5 2442.91 189.784 2444.06 189.784C2445.22 189.784 2446.35 189.5 2447.31 188.968C2448.91 188.268 2452.48 190.213 2454.46 189.746L2457.28 188.968C2461.04 188.25 2464.84 187.704 2468.67 187.334C2469.89 187.723 2476.38 182.975 2478.08 183.053L2484.95 183.598L2486.26 181.185C2487.02 180.251 2491.06 180.718 2492.57 179.784C2494.89 178.486 2496.64 176.602 2497.55 174.414C2497.55 172.468 2496.14 170.289 2495.2 168.266L2494.36 166.398C2493.41 164.296 2496.8 161.806 2498.02 161.572C2499.25 161.339 2498.02 157.136 2499.34 155.969C2500.66 154.801 2499.34 153.478 2497.65 153.323C2495.95 153.167 2496.71 150.754 2498.68 147.875L2497.55 146.863L2492.76 142.66C2491.33 138.281 2488.65 134.25 2484.95 130.908L2487.2 128.729C2488.52 127.483 2487.2 126.549 2484.76 125.927L2481.56 125.071C2483.65 123.507 2485.96 122.149 2488.43 121.024C2489.56 120.557 2487.49 118.222 2486.64 117.521C2486.17 116.962 2485.85 116.321 2485.72 115.647C2485.59 114.973 2485.65 114.283 2485.89 113.63L2486.36 112.307C2486.92 110.439 2485.42 109.349 2482.59 109.738L2476.85 110.439C2477.7 108.805 2479.39 104.524 2480.71 101.022L2472.9 97.7529L2471.02 96.9746C2467.65 96.2969 2464.22 95.8286 2460.76 95.5737H2457.66L2453.05 94.7954C2448.25 93.6279 2434.23 88.7247 2430 88.1799C2425.45 87.6264 2420.86 87.3144 2416.26 87.246L2413.44 86.0786C2411.37 84.9466 2408.95 84.3504 2406.47 84.3663C2402.43 85.0668 2399.42 82.9654 2395.37 83.5102C2391.14 83.7445 2386.9 83.7445 2382.67 83.5102C2380.17 83.706 2377.65 83.706 2375.14 83.5102H2372.88C2370.42 82.5413 2367.66 82.2416 2364.98 82.6541L2363.29 81.6423L2361.5 80.4749L2356.04 76.7391C2355.48 76.7391 2358.02 75.2604 2359.33 74.7934C2360.65 74.3264 2358.21 73.159 2353.6 72.0694L2352 76.35L2351.05 79.074C2347.21 78.2192 2343.51 76.9639 2340.05 75.3382C2338.8 74.6704 2337.89 73.6448 2337.51 72.4585L2338.16 71.8359L2339.29 70.7463C2341.18 69.968 2341.27 67.4775 2339.29 65.2983L2337.13 64.7535C2334.31 63.9752 2334.12 63.0412 2335.34 61.796C2336.56 60.5507 2338.45 61.796 2339.39 61.796L2342.77 63.3526C2343.83 61.6332 2345.16 60.0369 2346.73 58.605C2347.57 58.138 2353.12 60.4729 2355.01 61.4847C2356.89 62.4965 2360.75 59.1498 2359.33 58.2159C2357.92 57.2819 2348.61 54.8692 2346.35 53.3127C2344.09 51.7561 2343.06 56.0367 2342.21 57.1263C2341.36 58.2159 2339.2 57.1263 2337.51 55.3362L2336.75 53.157V52.3787C2334.59 51.9118 2327.34 53.0792 2326.12 51.7561C2324.9 50.433 2328.66 45.1406 2330.17 43.9732C2331.39 42.7092 2332.82 41.584 2334.4 40.6266H2334.97C2335.93 40.8416 2336.79 41.305 2337.41 41.9497C2337.41 42.728 2337.41 43.8176 2337.41 44.4402L2338.07 45.452C2339.48 46.3081 2344.56 45.452 2345.88 45.452C2347.2 45.452 2350.87 44.8293 2350.11 43.7397C2349.74 43.279 2349.54 42.7373 2349.54 42.1832C2349.54 41.629 2349.74 41.0873 2350.11 40.6266L2351.05 40.0818C2352.84 38.9144 2353.12 37.0465 2351.05 36.8908C2345.69 36.4238 2348.51 35.412 2350.02 34.089C2351.53 32.7659 2348.89 32.0654 2348.33 32.0654C2343.23 32.5141 2338.09 31.7015 2333.55 29.7306L2331.86 28.8745C2328.14 29.4706 2324.34 29.6278 2320.57 29.3414C2319.41 29.108 2318.33 28.6661 2317.4 28.0472C2316.48 27.4284 2315.73 26.6478 2315.21 25.7613H2314.27C2312.85 25.7613 2311.07 26.4618 2309.47 26.5396C2308.42 26.3742 2307.49 25.9046 2306.83 25.2165C2305.7 24.2047 2305.04 22.3368 2303.63 22.0255C2296.87 20.3714 2289.99 19.0717 2283.03 18.1341L2279.73 17.7449C2275.08 18.5911 2270.27 18.5911 2265.62 17.7449C2263.82 17.1801 2261.96 16.7377 2260.07 16.4219C2256.3 19.3015 2251.32 17.7449 2246.99 17.9784C2243.35 18.5052 2239.59 17.9833 2236.36 16.4997C2235.51 15.9549 2232.22 17.9006 2229.96 17.9006C2227.7 17.9006 2226.01 14.8653 2223.94 16.8888L2221.49 19.2237C2218.79 17.5743 2215.85 16.2144 2212.74 15.1766L2209.82 16.344L2207 17.5115C2202.55 17.7115 2198.16 18.3918 2193.92 19.535L2191.48 17.9006L2188.28 15.7214C2185.64 16.8888 2178.87 15.3323 2177.27 15.7214C2173.35 16.9457 2169.22 17.6293 2165.04 17.7449C2162.68 17.1223 2156.85 17.7449 2155.63 17.7449C2154.49 17.7005 2153.36 17.8428 2152.3 18.1634C2151.23 18.4841 2150.25 18.9768 2149.42 19.6129L2146.31 17.4336C2143.02 18.9124 2139.35 19.2237 2138.22 18.0563L2137.09 16.9667V16.4997C2137.09 15.9549 2136.06 15.9549 2135.4 16.4997V17.0445V17.5115C2131.11 17.8018 2126.8 17.8018 2122.51 17.5115C2120.92 17.7915 2119.42 18.3542 2118.12 19.1606C2116.82 19.9669 2115.75 20.9977 2114.98 22.1812C2114.69 22.7462 2114.14 23.1937 2113.45 23.4268C2112.77 23.6598 2112 23.6597 2111.31 23.4265L2110.46 22.8817L2107.74 21.4029C2105.05 21.6735 2102.35 21.8035 2099.64 21.7921L2090.8 19.6129L2086.85 21.4029C2085.46 21.7064 2084 21.7064 2082.61 21.4029H2081.48C2080.35 21.4029 2072.07 23.3486 2068.59 23.1151C2067.21 22.9133 2065.79 22.9693 2064.44 23.2791C2063.09 23.5888 2061.84 24.1444 2060.78 24.9052L2059.56 22.9594C2059.56 22.4925 2060.78 20.7803 2061.72 20.7025C2064.74 20.7025 2065.11 19.2237 2063.98 17.8228C2062.85 16.4218 2056.83 17.1223 2057.02 18.5232V23.3486C2052.27 23.5675 2047.6 22.2249 2044.04 19.6129C2043.28 18.4454 2040.93 17.4337 2040.18 17.6671C2039.43 17.9006 2039.33 19.1459 2040.18 20.3133C2038.67 21.1694 2036.41 21.4029 2035.19 22.3369L2034.53 22.8038C2035.28 24.5161 2030.96 24.2047 2029.08 23.8156C2027.19 23.4264 2022.39 20.3133 2019.67 19.535C2018.23 19.1913 2016.71 19.2322 2015.3 19.6517C2013.9 20.0712 2012.69 20.8478 2011.86 21.8699L2010.35 23.4265L2009.5 24.2047L2001.69 27.3957L2000 25.5278L1998.21 23.6599C1995.47 22.5902 1992.8 21.395 1990.22 20.0798L1988.33 21.1694L1986.55 22.1812C1983.91 23.7378 1979.02 20.7803 1978.17 19.535C1977.32 18.2897 1974.22 18.6789 1973.28 19.535C1972.34 20.3911 1969.7 18.9124 1968.95 19.535C1967.61 20.0423 1966.23 20.4588 1964.81 20.7803H1963.21H1961.33C1960.58 20.8278 1959.86 21.0312 1959.24 21.3715C1958.61 21.7118 1958.1 22.1779 1957.75 22.726C1958.82 24.4052 1960.08 25.9951 1961.52 27.4735H1966.41H1968.57C1966.76 28.9569 1964.78 30.2866 1962.65 31.4428C1961.99 31.4428 1959.17 29.7306 1958.32 28.9523C1956.84 27.5474 1955.66 25.9413 1954.84 24.2047C1954.63 23.7505 1954.3 23.3401 1953.88 23.0036C1953.46 22.667 1952.95 22.4127 1952.39 22.259C1951.73 22.259 1949.94 23.5821 1948.34 25.2943L1946.56 26.7731C1946.09 26.7731 1944.3 26.7731 1943.26 26.7731H1942.79C1942.68 25.5284 1942.91 24.2789 1943.45 23.1151C1946.47 21.8218 1949.62 20.7539 1952.86 19.9241C1955.03 19.3015 1963.21 16.9666 1962.27 15.6436C1961.33 14.3205 1954.84 14.6318 1954.18 15.6436C1953.52 16.6553 1949.76 19.6907 1948.06 18.7567C1946.37 17.8228 1938.65 23.5043 1936.02 25.9948C1933.38 28.4853 1934.23 23.3486 1936.02 20.8581C1936.66 20.0481 1937 19.1016 1937 18.1341C1937 17.1666 1936.66 16.2201 1936.02 15.4101C1935.45 15.4101 1929.71 14.7096 1929.06 15.4101C1928.4 16.1106 1927.27 20.5468 1925.76 20.9359C1924.26 21.3251 1922.94 18.5232 1922.94 17.5115C1922.94 16.4997 1920.21 14.8653 1916.82 13.9313L1914.19 13.3865C1913.89 13.3913 1913.59 13.4493 1913.31 13.5566C1913.03 13.6639 1912.79 13.8181 1912.59 14.0092V14.554C1913.16 15.6818 1913.89 16.7523 1914.75 17.7449C1916.17 18.2897 1913.63 19.1458 1912.5 18.8345C1910.09 18.3596 1907.63 18.0987 1905.16 18.0563C1903.75 18.0563 1901.68 14.9431 1901.39 13.62C1901.11 12.2969 1897.72 18.8346 1895.56 20.2355C1893.44 21.4337 1891.51 22.8455 1889.82 24.4382C1889.82 24.983 1886.43 27.1622 1885.02 26.9287C1884.32 26.6978 1883.68 26.3509 1883.15 25.9093C1882.62 25.4677 1882.2 24.9406 1881.92 24.3604C1881.92 23.8156 1880.22 25.5278 1878.53 28.2518L1872.98 25.5278L1870.44 24.2826C1865.83 24.2826 1866.3 21.6364 1866.96 21.7921C1867.61 21.9477 1871.66 22.726 1876.37 23.4265L1878.34 19.9241C1880.22 19.9241 1876.08 18.8345 1868.93 17.1223L1864.7 18.9902L1857.74 22.1034C1855.9 21.316 1854.29 20.2148 1853.01 18.873C1851.73 17.5312 1850.8 15.9794 1850.3 14.3205C1850.3 13.5422 1847.57 13.3866 1843.15 14.3205L1838.54 12.4526L1835.62 11.2852C1830.07 12.0634 1826.78 14.0092 1827.16 14.3205C1827.53 14.6318 1827.16 15.2545 1826.4 15.5658H1824.99C1824.14 15.5658 1815.58 12.5304 1813.42 13.3087C1811.35 14.2989 1809.22 15.1826 1807.02 15.9549L1805.23 14.6318L1800.62 11.1295C1795.54 13.9314 1794.22 17.278 1795.26 17.7449C1796.29 18.2119 1791.4 17.7449 1790.84 16.1884C1790.28 14.8041 1789.49 13.4933 1788.48 12.2969H1787.64C1787.12 12.3211 1786.61 12.4298 1786.14 12.6168C1785.67 12.8038 1785.25 13.0654 1784.91 13.3865L1783.59 14.6318C1783.19 14.9854 1782.71 15.2676 1782.18 15.4605C1781.65 15.6534 1781.07 15.753 1780.49 15.753C1779.9 15.753 1779.33 15.6534 1778.79 15.4605C1778.26 15.2676 1777.78 14.9854 1777.38 14.6318C1776.63 13.7757 1775.5 13.9313 1774.84 14.6318V15.0988C1774.84 16.344 1776.06 18.2119 1772.77 18.4454C1769.48 18.6789 1769.67 17.2002 1769.76 15.7214V14.3983C1769.76 12.8417 1767.69 11.5187 1765.24 11.363H1763.64C1760.65 11.8227 1757.74 12.6078 1754.99 13.6978L1749.62 16.344C1749.54 14.6251 1749.06 12.9353 1748.21 11.363C1748.21 11.363 1742.85 11.363 1742.76 12.5304C1742.66 13.6979 1739.09 13.5422 1737.86 12.5304C1733.02 11.1442 1728 10.23 1722.9 9.80643C1720.1 9.46932 1717.24 9.76512 1714.62 10.6625L1713.78 11.363C1713.31 11.9078 1705.68 8.56117 1702.2 8.48334C1698.72 8.40551 1695.99 12.5304 1695.99 13.5422C1695.99 14.5539 1693.17 13.5422 1689.69 10.3512H1683.85C1681.93 10.1736 1680.03 9.80792 1678.21 9.26163H1675.01C1671.53 9.80643 1671.06 10.8182 1671.81 10.9738C1672.56 11.1295 1670.78 12.7639 1667.86 14.554L1664.75 15.6436C1663.85 15.9582 1662.87 16.1203 1661.88 16.1203C1660.9 16.1203 1659.92 15.9582 1659.01 15.6436C1656.94 14.087 1659.01 11.5187 1655.44 9.72861C1651.86 7.93855 1649.98 12.5304 1647.25 9.72861L1645.28 7.62723C1642.45 8.37344 1639.48 8.66407 1636.53 8.48334H1635.02C1634.11 8.41502 1633.2 8.41502 1632.29 8.48334C1630.88 8.48334 1628.72 8.87248 1628.15 8.48334C1624.48 5.52585 1622.32 9.80642 1619.59 9.10596L1616.3 8.24985C1612.82 8.34387 1609.38 8.92272 1606.14 9.96207L1601.05 6.84891C1595.13 7.07672 1589.27 7.99375 1583.65 9.57294C1583.65 10.7404 1581.86 10.1955 1580.64 8.40549H1580.07L1573.67 9.10596C1566.71 9.10596 1559.28 9.57292 1558.43 9.49509C1557.58 9.41726 1552.03 8.56115 1546.39 7.54938L1535.85 8.95029C1535.19 8.95029 1534.25 9.72859 1534.16 9.65076L1530.67 7.00458C1525.22 7.59817 1519.7 7.75456 1514.21 7.47156C1510.27 6.67741 1506.2 6.4146 1502.16 6.69327C1500.28 7.50052 1498.11 7.72147 1496.05 7.31589H1494.54C1492.57 7.31589 1489.74 6.30411 1488.71 6.84891C1486.83 7.72903 1484.73 8.22999 1482.57 8.31113C1480.41 8.39226 1478.26 8.0513 1476.29 7.31589L1472.53 6.61545C1469.44 7.32934 1466.29 7.8753 1463.12 8.24985C1459.54 5.75933 1457.57 6.22629 1456.81 9.65076C1455.46 9.97084 1454.03 9.97084 1452.67 9.65076C1449.01 8.51881 1445.27 7.55741 1441.48 6.77109L1436.87 5.60367C1430.67 6.6074 1424.36 7.05103 1418.05 6.92676H1406.19C1399.44 6.34718 1392.62 6.34718 1385.87 6.92676C1385.12 7.93853 1380.32 6.92676 1375.24 5.60367L1369.68 7.16025C1365.49 7.45455 1361.27 7.05775 1357.26 5.99283L1355.48 5.52585C1353.22 5.52585 1346.07 6.69326 1339.95 7.86069L1334.02 5.83716C1332.01 5.44317 1329.92 5.44317 1327.91 5.83716C1326.21 5.83716 1324.52 7.00459 1322.83 6.92676C1321.13 6.84893 1319.16 5.91498 1317.28 5.91498H1316.43C1313.7 8.0288 1310.5 9.69289 1307.02 10.8182C1304.48 11.2852 1307.02 8.63899 1308.34 7.70505C1309.65 6.7711 1306.83 5.44802 1305.42 6.07065C1304.01 6.69328 1291.4 3.42446 1286.6 3.73578C1283.44 3.89279 1280.29 4.25713 1277.19 4.82538H1276.63C1271.92 7.39373 1272.02 7.39373 1268.63 4.82538L1267.97 4.28058C1266.18 4.28058 1263.93 6.61543 1263.64 7.54938C1263.48 8.21755 1263.05 8.8207 1262.42 9.26163C1261.79 8.20883 1261.38 7.0783 1261.2 5.91498C1261.2 4.98103 1257.34 4.28059 1253.2 4.43625L1249.53 4.04712H1245.95C1242.1 4.04712 1236.08 4.66973 1232.69 4.74756H1229.58H1227.04C1226.2 6.07065 1223.66 8.56117 1222.53 7.93854C1221.22 7.12626 1220.1 6.12408 1219.23 4.98105C1217.11 5.68013 1214.9 6.17626 1212.65 6.45978H1210.29C1207.57 6.45978 1203.8 6.45978 1202.96 6.45978C1200.73 6.8239 1198.61 7.5659 1196.75 8.63901L1194.39 5.75931C1193.55 4.66971 1188.09 5.05885 1184.98 5.21451H1179.34C1173.43 5.83203 1167.44 5.56846 1161.65 4.43625L1159.2 5.13669C1155.91 6.07063 1155.16 2.10137 1151.77 4.28058C1150.39 4.97541 1148.77 5.25435 1147.18 5.06985C1145.58 4.88536 1144.11 4.24884 1143.02 3.2688C1134.6 4.20034 1126.11 4.66833 1117.61 4.66971C1114.48 3.24223 1111.02 2.39259 1107.45 2.1792C1105.76 3.42446 1104.07 -0.155662 1101.9 2.1792L1100.96 3.19098C1099.2 3.33073 1097.42 3.11323 1095.78 2.55728C1094.14 2.00133 1092.69 1.12363 1091.55 0L1088.63 1.47873L1084.59 3.50229C1079.84 2.77411 1075.22 1.54477 1070.85 -0.15564L1067.93 1.55655C1064.92 3.34661 1061.35 -1.47876 1058.53 2.25702V2.724C1053.97 2.14163 1049.47 1.28322 1045.07 0.15567L1040.84 2.41269C1039.87 2.75749 1038.83 2.93536 1037.78 2.93536C1036.73 2.93536 1035.69 2.75749 1034.72 2.41269L1029.64 -0.38916C1023.9 0.778271 1013.83 1.16741 1011.76 1.55655C1009.69 1.94569 1003.39 1.01175 1002.35 1.55655C999.32 2.37418 996.129 2.7173 992.944 2.56833L986.075 1.0896H984.664C982.406 1.0896 980.242 2.17919 977.889 2.49051C975.871 2.5193 973.858 2.67542 971.868 2.95749C970.08 3.50229 971.868 6.45979 967.539 6.07065H965.563C963.211 6.77111 960.765 4.28058 960.577 3.19098C953.751 2.16958 946.732 2.46255 940.065 4.04712L929.903 2.80185C929.432 2.80185 928.586 4.35841 927.645 5.05887C925.965 4.70852 924.435 3.98135 923.222 2.95749L921.247 2.1792L917.671 0.85614C913.225 1.73194 908.688 2.25316 904.122 2.41269C903.773 2.39887 903.425 2.45522 903.108 2.57693C902.791 2.69865 902.514 2.88209 902.301 3.11157C902.088 3.34106 901.946 3.60975 901.886 3.89465C901.826 4.17956 901.851 4.47222 901.958 4.74756C902.428 5.37019 899.982 5.915 896.501 5.99283V5.60367L894.995 1.16742C889.914 1.86788 867.897 2.33487 861.122 2.33487C853.782 2.39942 846.469 3.07737 839.293 4.3584L836.094 3.65793L832.048 2.87967C827.814 2.87967 818.123 3.65796 816.053 2.87967C812.187 2.37802 808.251 2.37802 804.385 2.87967C802.315 3.34664 794.035 1.32306 791.213 1.55655C788.39 1.79004 780.11 2.33485 777.852 2.49051C775.594 2.64617 767.502 4.82539 765.902 3.89145C764.303 2.9575 757.058 4.59189 754.799 4.28058C752.541 3.96926 733.817 2.64617 727.513 2.49051C721.209 2.33485 712.082 4.12493 710.671 3.42447C709.259 2.72401 705.308 4.51406 703.99 5.13669C702.711 5.67417 701.35 6.06682 699.944 6.30411C699.474 6.30411 698.251 5.1367 697.31 3.73578H693.452C689.218 3.73578 684.89 3.73578 680.656 3.73578H677.08C672.128 2.72916 667.023 2.33572 661.932 2.56833C656.157 3.78065 650.181 4.20133 644.242 3.8136H636.997H634.457C631.822 4.28057 609.805 3.8136 603.407 4.3584L584.589 6.38196L581.484 4.9032C579.884 4.12491 579.225 3.58011 577.72 4.9032C576.215 6.22629 574.051 2.56834 572.169 4.9032C572.169 4.9032 568.593 3.65795 567.182 3.96927C566.293 4.29533 565.331 4.46378 564.359 4.46378C563.387 4.46378 562.425 4.29533 561.536 3.96927C559.795 3.50751 557.95 3.37964 556.141 3.5954C554.331 3.81115 552.605 4.36485 551.092 5.21451C548.74 6.38194 544.788 2.25704 541.119 3.96927C539.295 4.94118 537.172 5.45804 535.003 5.45804C532.833 5.45804 530.71 4.94118 528.887 3.96927L527.664 3.42447C525.688 3.42447 517.502 6.38195 515.15 5.37018C514.161 4.99142 513.065 4.84901 511.984 4.95905C510.903 5.06908 509.881 5.4272 509.033 5.99283C508.563 6.61546 506.775 5.52583 506.305 4.9032C505.834 4.28057 502.635 4.9032 501.412 4.9032C500.189 4.9032 495.484 2.80182 494.355 3.58011C493.226 4.3584 478.548 2.02354 473.279 2.95749C468.221 4.20989 463.017 5.01858 457.754 5.37018C454.917 4.63484 451.974 4.21605 449.004 4.12491C445.218 4.82122 441.529 5.83838 437.995 7.16025C436.019 7.93853 432.067 6.30414 431.22 5.52585C430.374 4.74756 426.516 6.07065 425.01 5.52585C421.357 5.16953 417.655 5.38068 414.096 6.14847L411.461 5.05887L406.85 3.19098C402.052 3.73578 393.396 6.30414 391.326 5.99283C387.672 5.59115 383.971 5.59115 380.317 5.99283L376.553 4.59189C374.389 3.8136 370.72 6.53763 367.144 3.89145L366.109 3.11313C363.255 3.3257 360.424 3.71597 357.641 4.28058C352.506 5.39191 347.288 6.22386 342.022 6.77109C337.976 6.77109 325.556 6.77108 313.795 6.30411L303.539 5.60367H300.998C298.552 6.30413 291.589 4.90321 290.93 5.60367C290.93 5.60367 290.93 4.9032 290.93 4.3584L286.32 5.37018C284.316 5.95494 282.228 6.32122 280.11 6.45978C277.381 6.45978 274.653 5.52583 271.83 5.448C269.007 5.37017 264.02 7.08242 262.421 6.07065L258.093 3.8136C255.74 5.52583 249.813 4.98102 248.213 5.21451C243.584 6.85175 238.759 8.07794 233.817 8.87247C230.147 8.87247 218.198 5.44802 214.999 6.61545C211.868 7.68399 208.506 8.21362 205.12 8.17203C204.085 8.17203 200.226 7.00459 199.474 7.47156C198.721 7.93853 194.957 10.0399 193.734 9.65076C190.654 9.01969 187.498 8.68028 184.325 8.63901C182.255 8.63901 174.916 10.2734 173.787 9.18381C172.658 8.09421 169.929 9.8064 168.33 10.3512L161.085 12.6861V11.363L160.52 7.39371C157.039 8.40548 149.794 12.2191 148.1 11.363C144.854 10.7962 141.533 10.5869 138.221 10.7404C135.646 10.6126 133.093 10.2737 130.599 9.72861C125.262 10.3165 119.892 10.6802 114.51 10.8182C111.397 10.366 108.213 10.366 105.1 10.8182H103.972H100.396C95.9767 11.012 91.5482 11.012 87.129 10.8182L83.4596 12.2969L80.0724 13.6978C75.441 13.5854 70.8784 14.6443 66.9938 16.7332C65.8647 17.6671 64.0766 15.0209 63.7943 13.9313C63.512 12.8417 58.8077 16.0327 57.3964 17.278C55.985 18.5232 54.103 17.278 53.8207 16.0327C53.5384 14.7875 47.2344 14.6318 44.9762 14.7874C42.718 14.9431 42.5298 17.4336 44.5057 20.5468L39.7072 21.2473L33.8734 22.1034C34.5321 23.4265 32.0856 24.8274 30.8624 24.983C29.6392 25.1387 30.204 29.1858 28.9808 29.8862C27.7577 30.5867 25.9699 28.8745 25.6876 28.0183C25.4053 27.1622 20.8889 28.641 15.6198 31.365V36.0347V40.1596C16.0315 43.9778 17.9874 47.5697 21.1713 50.3552C22.4885 50.9778 21.6418 52.6122 19.1954 53.9353H17.7841H16.2784C14.773 52.3009 13.1736 52.2231 13.0795 52.6901C11.1226 54.5771 8.9129 56.2742 6.49304 57.7489L0.189087 60.9399L0.0948486 61.4847ZM120.343 246.406H107.265C105.665 243.215 104.912 240.179 105.665 239.635C107.45 239.057 109.432 239.057 111.216 239.635C112.063 240.179 114.98 239.635 117.803 238.234L120.626 237.767H121.755C123.919 239.323 123.26 243.448 120.343 246.406ZM161.179 268.976L156.756 268.431H153.745C152.966 268.303 152.237 268.016 151.624 267.597C151.011 267.177 150.534 266.638 150.235 266.029C149.937 265.419 149.826 264.757 149.913 264.104C150.001 263.45 150.283 262.824 150.735 262.283C152.711 260.026 165.225 266.797 167.013 267.886C168.8 268.976 166.542 269.287 161.179 268.976ZM271.83 282.363C270.889 282.907 271.265 284.308 271.83 284.775C272.395 285.242 266.09 284.775 264.209 283.919C263.215 283.627 262.133 283.614 261.13 283.881C260.127 284.148 259.258 284.681 258.657 285.398C257.998 286.41 257.34 285.943 257.246 284.386C257.46 283.156 258.156 282.019 259.226 281.147C260.297 280.275 261.683 279.718 263.173 279.561L266.279 280.495L268.443 281.195C273.524 279.95 272.865 281.584 271.83 282.363ZM302.41 283.297L300.151 283.997C295.917 282.752 294.788 280.339 295.541 279.872C299.236 280.163 302.854 280.924 306.267 282.129L302.41 283.297ZM2215.19 259.014L2219.23 256.835C2222.37 255.144 2225.75 253.784 2229.3 252.788H2229.77V253.177C2228.83 255.568 2227.07 257.679 2224.69 259.247C2222.56 260.204 2220.23 260.812 2217.82 261.038C2217.06 260.993 2216.33 260.761 2215.73 260.373C2215.12 259.985 2214.67 259.458 2214.43 258.858L2215.19 259.014ZM2180.09 247.106C2177.95 248.02 2175.5 248.332 2173.13 247.995C2170.75 247.658 2168.57 246.691 2166.92 245.238C2174.45 241.58 2174.54 241.58 2180.09 247.106ZM2138.41 243.837L2145.28 244.382H2148.95C2153.09 244.382 2154.22 247.651 2152.52 246.873C2150.83 246.094 2149.32 246.873 2149.23 247.962C2149.06 249.472 2148.68 250.96 2148.1 252.399C2147.37 251.454 2146.8 250.433 2146.41 249.363C2146.41 248.429 2140.01 247.34 2137.84 247.729C2135.68 248.118 2135.68 246.561 2138.22 243.448L2138.41 243.837ZM2107.26 287.421C2107.91 286.211 2108.32 284.924 2108.49 283.608C2108.49 283.141 2111.03 283.608 2114.23 283.608L2115.17 283.063C2117.52 281.506 2118.37 282.596 2119.78 283.53C2121.19 284.464 2121.94 285.943 2119.78 286.954C2117.61 287.966 2116.77 291.002 2113.76 289.601L2110.46 287.966C2108.39 289.445 2106.42 288.433 2107.08 287.421H2107.26ZM2250.38 39.8483L2253.01 40.7044L2255.36 41.0936C2257.61 42.5481 2259.49 44.3446 2260.92 46.3859H2260.44C2257.53 47.7868 2256.68 46.8529 2255.83 44.5959C2254.99 42.3388 2253.76 44.5958 2252.64 44.985L2249.25 45.6076C2248.97 43.6384 2249.36 41.6439 2250.38 39.8483ZM2059.65 287.188L2061.44 285.476C2063.79 283.219 2065.11 283.841 2065.11 286.488C2066.81 286.488 2072.64 288.978 2072.26 290.068C2071.41 291.521 2070.03 292.718 2068.31 293.492L2065.49 291.157C2060.6 291.313 2057.77 289.523 2059.65 287.188ZM1980.99 252.321C1981.33 251.822 1981.86 251.436 1982.5 251.231H1984.48C1987.5 251.953 1990.43 252.918 1993.23 254.111C1993.5 254.24 1993.73 254.427 1993.89 254.652C1994.04 254.878 1994.13 255.134 1994.13 255.395C1994.13 255.656 1994.04 255.912 1993.89 256.137C1993.73 256.363 1993.5 256.55 1993.23 256.679C1992 257.457 1986.92 256.679 1983.82 255.123L1980.99 253.644C1980.62 253.722 1980.71 252.788 1980.99 252.321ZM1904.4 293.726C1903.55 296.202 1902.15 298.524 1900.26 300.575L1897.35 300.964C1894.15 301.431 1895 299.329 1893.96 298.395L1892.55 297.15C1895.04 295.356 1897.87 293.91 1900.92 292.869C1903.09 292.247 1904.59 292.558 1904.4 293.726ZM1889.16 31.4428C1891.8 30.7423 1895.84 33.2329 1896.59 34.5559C1897.35 35.879 1895.84 36.9687 1893.21 36.9687C1890.57 36.9687 1886.53 32.1432 1889.16 31.4428ZM1869.59 296.372C1871.1 295.204 1872.41 293.57 1875.61 294.426L1879 295.282C1883.7 296.216 1885.12 297.85 1882.1 298.94L1879.66 299.796C1876.15 299.91 1872.65 299.515 1869.31 298.629C1869.03 297.928 1868.93 296.839 1869.59 296.372ZM1717.54 297.928C1719.33 296.45 1720.83 296.06 1721.02 297.15C1721.21 298.24 1723.84 300.185 1724.69 300.108C1725.54 300.03 1725.82 301.041 1725.73 301.431C1723.12 302.47 1720.37 303.229 1717.54 303.688C1715.19 304.232 1715.75 299.563 1717.54 297.928ZM1380.32 306.879C1383.37 305.876 1386.52 305.07 1389.73 304.466L1393.21 303.921C1395.37 306.023 1392.36 307.423 1386.43 307.112L1382.1 309.525C1381.73 309.556 1381.36 309.524 1381 309.43C1380.65 309.336 1380.32 309.183 1380.03 308.98C1380.32 308.28 1380.32 306.956 1380.32 306.879ZM1075.84 309.758L1078.47 311.548C1079.04 311.937 1077.25 313.338 1074.43 314.739L1073.2 314.35L1067.56 312.56C1069.06 308.902 1072.73 307.579 1076.03 309.758H1075.84ZM1007.9 310.848L1011.2 308.669L1011.95 308.124C1013.4 308.648 1014.59 309.567 1015.33 310.727C1016.06 311.887 1016.3 313.22 1016 314.506C1015.24 315.751 1009.79 312.093 1007.34 310.926C1004.89 309.758 1005.36 309.758 1008.09 310.848H1007.9ZM968.198 307.89H969.139L972.244 308.669C975.255 310.692 975.725 312.404 973.373 312.404C971.021 312.404 965.375 310.459 968.386 307.89H968.198ZM938.748 6.84891C939.051 7.79084 939.24 8.75556 939.312 9.72861C939.312 10.4291 936.583 10.8182 935.737 10.7404C934.89 10.6625 934.231 13.4643 934.231 14.6318C934.231 15.7992 933.008 16.2662 931.597 15.7214C930.185 15.1766 926.892 12.8417 926.892 11.4408V10.1956V8.24985C930.869 7.58292 934.891 7.11507 938.936 6.84891H938.748ZM681.032 316.452C682.349 314.895 686.866 312.015 688.842 312.716H690.535C693.734 313.338 692.417 314.973 692.417 316.218V316.996C691.382 317.619 685.36 316.996 683.008 317.852C680.656 318.709 679.715 318.086 681.032 316.452ZM616.297 312.404C616.297 311.704 618.085 312.404 620.437 313.183C622.79 313.961 621.849 318.631 619.026 318.475C616.203 318.319 615.074 316.374 615.451 315.751C615.93 314.676 616.215 313.548 616.297 312.404ZM480.43 315.673C483.817 315.051 484.57 320.81 483.064 321.277C481.624 321.352 480.181 321.183 478.822 320.782C477.463 320.38 476.218 319.754 475.161 318.942C474.596 317.775 477.043 316.296 480.43 315.673ZM421.435 317.23C422.137 316.416 423.166 315.835 424.339 315.593C425.512 315.35 426.75 315.462 427.833 315.907C429.338 316.996 431.879 320.888 429.15 321.822L427.362 322.756C426.98 323.017 426.534 323.208 426.054 323.316C425.575 323.423 425.073 323.444 424.583 323.378C424.092 323.311 423.625 323.159 423.212 322.931C422.799 322.703 422.449 322.404 422.187 322.055C421.701 321.587 421.333 321.042 421.107 320.454C420.881 319.866 420.8 319.246 420.87 318.631L421.435 317.23ZM352.56 124.292C354.327 122.414 356.535 120.852 359.052 119.701H360.652H361.875C362.307 120.597 362.448 121.572 362.283 122.528C362.118 123.484 361.653 124.388 360.934 125.149L358.864 125.927L356.982 126.549C353.783 126.705 351.807 125.382 352.56 124.292ZM325.932 121.335C329.225 121.335 337.976 122.892 335.341 123.281C332.707 123.67 325.462 124.604 323.58 123.281C321.698 121.958 322.733 121.491 325.932 121.335ZM299.305 109.349C302.033 109.349 308.714 112.696 311.16 112.307C313.606 111.918 314.735 112.307 313.606 113.085C308.59 114.088 303.423 114.481 298.269 114.253C295.823 114.019 296.576 109.427 299.305 109.349ZM285.755 91.5266L288.108 90.7483L290.178 90.1256C292.53 89.3474 292.154 92.0714 290.648 92.9275C289.143 93.7836 288.202 94.8732 288.578 95.1845C288.706 95.3424 288.788 95.5225 288.819 95.7108C288.85 95.8992 288.828 96.0908 288.755 96.2711C288.683 96.4514 288.561 96.6156 288.4 96.751C288.239 96.8864 288.042 96.9895 287.825 97.0524H286.696C286.132 97.0524 285.473 96.5076 284.909 96.1185L283.215 95.0289C281.333 93.7836 282.462 92.1492 285.755 91.5266ZM68.7811 54.7914C70.757 52.5344 73.2975 50.8221 74.4266 51.0556C75.5557 51.2891 74.4267 54.4023 75.5558 55.5697C76.6849 56.7371 75.5561 59.8503 76.403 60.9399C77.2498 62.0295 78.8492 64.5978 78.3788 65.2205C77.9083 65.8431 75.0855 65.7653 72.2628 65.2205V63.4304C72.451 62.4964 66.8052 56.6593 68.7811 54.7914ZM72.4508 85.3781C74.0504 86.1564 78.3788 83.8215 79.0375 84.2885H79.6959C81.9541 85.3781 84.4005 86.2342 86.5646 87.3238C86.7507 87.5542 86.85 87.825 86.85 88.1021C86.85 88.3792 86.7507 88.65 86.5646 88.8804C83.7726 88.7563 81.0006 88.4176 78.2845 87.8686L74.3329 90.5148L72.1686 91.9935C71.5099 90.9039 68.1228 86.8568 68.6874 85.6894C69.2519 84.522 70.3808 84.5998 72.4508 85.3781ZM43.5648 73.4703C44.2235 71.5246 50.1513 68.4114 50.5277 70.1237L51.4684 70.5906C54.7616 72.225 52.8802 73.3925 50.8102 74.2486L48.1757 75.2604C44.2238 76.1943 42.4361 75.3382 43.1888 73.4703H43.5648Z" fill="white"/>
<path d="M49.2099 91.3709C44.6308 89.2342 39.8476 87.4121 34.9081 85.9229L32.1794 88.1799L30.1094 89.97C27.6937 91.4503 25.146 92.7771 22.488 93.9392H21.7351C19.1006 92.9275 21.7353 92.4605 22.488 91.6822C23.2408 90.9039 21.6412 90.6704 21.2648 90.6704C20.8884 90.6704 18.2539 90.6704 18.0657 91.3709L17.1248 93.9392C20.2887 95.3602 23.9815 95.7489 27.4748 95.0288C29.9985 94.5221 32.611 94.3904 35.1904 94.6397V95.2623L36.2252 99.2316C40.467 97.269 44.8685 95.5526 49.3979 94.0949C51.7502 93.4722 51.5621 92.3826 49.2099 91.3709Z" fill="white"/>
<path d="M1940.06 301.898C1943.63 302.454 1947.26 302.715 1950.88 302.676C1952.86 302.777 1954.84 302.777 1956.81 302.676H1957.85L1963.49 300.574C1966.03 296.527 1965.56 293.726 1964.72 294.115C1963.87 294.504 1959.63 297.15 1957.75 297.15C1955.87 297.15 1948.34 295.905 1945.52 296.138C1942.67 296.671 1940.16 298.057 1938.46 300.03C1938.48 300.436 1938.65 300.828 1938.93 301.16C1939.21 301.491 1939.61 301.747 1940.06 301.898Z" fill="white"/>
<path d="M212.081 114.253C210.67 114.253 209.353 113.241 207.847 112.852L202.672 111.684C202.672 115.186 206.342 115.653 208.129 116.12C210.343 116.884 212.697 117.332 215.092 117.443C215.939 116.977 218.856 115.42 219.797 115.031C220.738 114.642 221.49 112.618 221.49 111.995C221.49 111.373 218.668 109.816 215.374 108.571L212.175 107.481C211.628 107.421 211.071 107.452 210.537 107.572C210.004 107.692 209.505 107.9 209.07 108.182C208.795 108.499 208.646 108.881 208.646 109.271C208.646 109.662 208.795 110.044 209.07 110.361C210.105 111.062 211.893 111.139 213.21 111.684C214.528 112.229 213.21 112.774 213.21 113.241C213.21 113.708 212.458 114.33 212.081 114.253Z" fill="white"/>
<path d="M2176.23 283.452C2175.39 283.452 2173.03 278.315 2171.72 279.716C2170.4 281.117 2165.51 285.398 2163.15 285.164C2160.77 284.903 2158.42 284.513 2156.1 283.997H2154.59H2150.36C2151.02 286.021 2156.1 287.577 2161.74 287.421L2166.26 288.433L2169.08 289.056C2171.06 288.511 2175.86 286.565 2177.36 286.098C2178.87 285.631 2177.08 283.763 2176.23 283.452Z" fill="white"/>
<path d="M358.864 322.6C356.135 324.468 353.595 326.569 349.455 323.378C347.855 323.845 343.245 325.48 342.21 324.857C341.695 324.611 341.111 324.482 340.516 324.482C339.921 324.482 339.337 324.611 338.822 324.857V325.402C338.822 325.791 338.822 326.803 339.575 326.803C342.115 326.803 344.562 326.803 347.102 326.803C349.643 326.803 349.172 329.371 351.901 327.581L352.654 327.114C354.177 327.638 355.835 327.842 357.477 327.706C359.119 327.57 360.695 327.099 362.063 326.336L363.192 324.857C363.192 324.39 362.533 323.223 361.686 322.6C360.84 321.977 359.334 322.289 358.864 322.6Z" fill="white"/>
<path d="M188.935 115.498L192.322 116.432C194.042 113.752 194.414 110.62 193.357 107.715C192.511 106.625 189.123 109.894 186.959 111.139C184.795 112.385 184.889 114.097 186.959 114.953L188.935 115.498Z" fill="white"/>
<path d="M2240.03 232.007C2241.34 230.996 2242.1 230.762 2243.7 232.007L2244.54 232.552C2246.61 232.552 2243.41 228.583 2240.78 228.816C2239.5 228.97 2238.32 229.476 2237.43 230.253C2236.55 231.03 2236 232.032 2235.89 233.097L2234.76 233.875C2232.12 235.51 2234.1 236.21 2235.6 236.833L2236.54 237.222C2237.37 237.256 2238.18 237.048 2238.83 236.635C2239.49 236.222 2239.94 235.63 2240.12 234.965L2239.37 234.498C2237.77 233.33 2238.9 232.864 2240.03 232.007Z" fill="white"/>
<path d="M2146.12 286.098H2143.49C2141.8 286.098 2140.38 287.888 2138.69 288.745H2138.13C2137.09 288.745 2136.24 289.445 2136.34 290.612C2136.43 291.78 2146.31 290.145 2148.1 289.367C2149.89 288.589 2149.04 286.799 2146.12 286.098Z" fill="white"/>
<path d="M2046.2 294.348H2044.6H2043C2041.4 293.803 2038.67 298.551 2041.12 299.485C2043.09 300.315 2045.17 300.943 2047.33 301.353C2048.36 301.353 2049.21 298.084 2049.21 296.839C2049.27 296.5 2049.24 296.153 2049.11 295.826C2048.98 295.5 2048.76 295.203 2048.47 294.96C2048.18 294.717 2047.82 294.535 2047.42 294.429C2047.03 294.323 2046.61 294.295 2046.2 294.348Z" fill="white"/>
<path d="M1869.59 14.1648L1872.04 15.9548H1872.6C1875.99 14.7874 1878.34 12.686 1877.87 11.3629H1877.02L1871.94 10.429C1867.61 12.5304 1866.48 14.0869 1869.59 14.1648Z" fill="white"/>
</g>
<defs>
<clipPath id="clip0_549_34">
<rect width="2500" height="329.06" fill="white" transform="matrix(-1 0 0 -1 2500 329.06)"/>
</clipPath>
</defs>
</svg>
