<svg width="1440" height="230" viewBox="0 0 1440 230" fill="none" xmlns="http://www.w3.org/2000/svg">
<g clip-path="url(#clip0_421_1556)">
<path d="M265.299 221.013C263.808 221.208 262.283 221.208 260.792 221.013H260.291C259.647 221.013 258.932 221.013 258.216 220.525C257.143 220.345 256.108 220.053 255.14 219.658C254.517 219.436 253.871 219.255 253.208 219.116C253.144 219.312 253.144 219.517 253.208 219.712V220.254C252.949 220.702 252.78 221.177 252.707 221.663L264.441 221.121L265.299 221.013Z" fill="white"/>
<path d="M54.1648 82.8121V83.4625H55.9535L54.1648 82.8121Z" fill="white"/>
<path d="M-174.928 42.8152C-174.928 44.3327 -167.773 46.2837 -165.412 45.5792H-164.625C-163.823 44.5267 -163.427 43.3251 -163.481 42.1106L-161.406 41.677C-160.23 41.4793 -158.999 41.6347 -157.972 42.1106C-157.721 42.4501 -157.589 42.8326 -157.589 43.2216C-157.589 43.6106 -157.721 43.9931 -157.972 44.3327C-158.522 45.0898 -159.373 45.6965 -160.404 46.067L-163.338 47.2593C-166.986 48.56 -165.627 50.0233 -164.125 50.1317C-162.622 50.2401 -162.837 52.5163 -163.266 53.2209C-163.695 53.9254 -160.619 54.7384 -159.546 54.8468C-158.472 54.9552 -159.546 56.4727 -160.476 56.9604C-161.406 57.4482 -160.476 58.5321 -159.188 59.4535L-157.041 58.4237C-156.078 57.8612 -154.895 57.5562 -153.679 57.5562C-152.462 57.5562 -151.28 57.8612 -150.316 58.4237C-149.601 59.0741 -148.313 58.4237 -148.098 57.9902C-147.883 57.5566 -145.522 58.4779 -144.807 58.8573C-144.092 59.2367 -141.158 58.8573 -140.299 58.8573C-139.034 59.6381 -138.009 60.6183 -137.294 61.7297C-137.294 62.4343 -136.15 62.5427 -135.363 62.0007L-134.218 61.1336C-133.443 60.1174 -132.583 59.1398 -131.642 58.2069C-131.262 58.0716 -130.846 58.0014 -130.426 58.0014C-130.005 58.0014 -129.59 58.0716 -129.21 58.2069C-128.637 58.4779 -128.136 59.5077 -128.423 59.6703C-131.785 61.4045 -129.854 63.735 -130.068 65.7945C-126.276 66.2809 -122.388 66.1142 -118.692 65.3067L-115.043 64.5479H-114.4C-114.042 64.5479 -112.253 66.6616 -111.681 67.4745C-111.108 68.2875 -106.887 67.4745 -105.671 66.8784L-100.806 65.0357H-100.305L-99.3746 65.5777C-98.9454 66.3906 -96.2981 66.0654 -93.5078 64.8189H-93.15C-90.4313 66.5532 -88.2848 64.0602 -85.9954 64.8189C-85.9954 64.8189 -84.2782 64.3311 -84.1351 64.006V63.5182C-84.7075 62.9762 -88.9287 62.5427 -89.0002 61.7297C-89.0719 60.9168 -89.5012 60.4832 -89.9304 60.8626V61.1878C-89.9304 62.7595 -89.5012 64.7647 -93.8656 63.1388C-94.5289 63.0569 -95.2054 63.0569 -95.8689 63.1388H-97.0137C-99.2014 62.9885 -101.323 62.4899 -103.238 61.6755L-105.17 60.8084C-104.621 60.3041 -103.996 59.8495 -103.31 59.4535C-102.809 59.1825 -101.092 59.9954 -99.5177 61.1878H-98.9454L-94.0087 60.0496C-89.7601 58.7112 -85.028 58.5387 -80.6293 59.5619C-79.4846 60.3748 -81.4164 64.6563 -79.127 64.9815C-78.1664 65.1587 -77.1548 65.0836 -76.2579 64.7686C-75.3611 64.4535 -74.6321 63.9171 -74.1902 63.2472C-74.1902 62.4343 -71.0421 63.2472 -70.3267 63.6808C-69.8796 64.0675 -69.5721 64.5353 -69.4343 65.0386C-69.2964 65.5419 -69.3328 66.0636 -69.5397 66.5532L-67.6079 65.8486L-62.1703 63.9518C-57.2542 64.8807 -52.2118 65.3718 -47.1455 65.4151C-46.2372 64.3073 -45.7427 63.0336 -45.7145 61.7297L-42.7811 62.5427C-41.7794 62.8678 -41.7794 64.5479 -41.2786 65.5777C-39.9347 64.8191 -38.6671 63.9858 -37.4866 63.0846C-37.0081 62.6621 -36.745 62.1238 -36.745 61.5671C-36.745 61.0104 -37.0081 60.4721 -37.4866 60.0496L-38.7029 61.0252C-39.1658 60.8856 -39.5562 60.6355 -39.8143 60.3127C-40.0726 59.9899 -40.1848 59.6121 -40.1339 59.2367C-40.1339 58.9657 -40.8492 58.8031 -42.0656 58.9115L-43.0673 59.2367L-46.3584 60.2664C-50.2935 60.6458 -54.2286 60.2664 -51.2952 59.2367C-48.9452 58.7667 -46.5543 58.4226 -44.1405 58.2069C-47.4316 57.7192 -51.2952 57.2856 -54.0139 57.0688L-52.0106 56.4185L-48.3617 55.2803C-48.004 57.123 -46.2153 57.6108 -45.6429 57.2856C-45.0706 56.9604 -41.207 53.8712 -39.2753 54.3048C-37.1649 54.8069 -35.2817 55.7454 -33.8378 57.0146L-27.0408 56.2559C-25.109 55.9307 -28.2571 58.1528 -29.2588 58.6947C-30.2604 59.2367 -26.6116 63.0846 -24.2505 62.8136C-21.8894 62.5427 -20.6731 64.5479 -21.5316 67.2578L-22.2472 68.0165C-22.748 68.5585 -23.2488 69.4798 -22.8911 69.9134L-22.6049 71.9729C-20.4584 73.4904 -16.6664 71.6477 -15.4502 70.6179C-15.151 70.3239 -14.9989 69.9591 -15.0209 69.5882C-15.9446 69.7054 -16.8876 69.7054 -17.8112 69.5882V69.2088C-17.8262 68.9275 -17.7411 68.6483 -17.5649 68.4005C-17.3887 68.1526 -17.1278 67.9451 -16.8096 67.7997H-15.3787C-15.6899 67.0914 -16.1229 66.4172 -16.6665 65.7945L-13.3754 63.3556L-6.2207 66.3906L-1.71313 67.5829C0.548828 66.0228 3.3551 64.9881 6.37158 64.6021L6.94397 64.9815L9.09033 66.4448C5.69617 68.4653 1.68579 69.8071 -2.57178 70.347L-6.14917 69.6424C-8.86792 69.1004 -10.2988 70.2928 -11.5151 70.0218L-13.5184 69.6424H-14.3054C-13.8584 70.5467 -13.5931 71.4967 -13.5184 72.4606L-11.8728 73.382L-11.3005 73.7071C-9.51172 73.3018 -7.90344 72.5333 -6.6499 71.4851H-4.43201L0.862549 71.2141C5.79932 73.3278 6.37158 75.1162 2.0072 75.1162H-4.07422C-5.34082 76.293 -6.20129 77.6898 -6.57837 79.181V80.5359C-6.59802 80.6826 -6.578 80.8308 -6.51941 80.9715C-6.46082 81.1121 -6.36487 81.2422 -6.23767 81.3539C-6.11047 81.4655 -5.95447 81.5562 -5.7793 81.6206C-5.60413 81.685 -5.41345 81.7216 -5.21899 81.7282H-4.57507C-3.50195 81.7282 -1.92773 81.2404 -1.35535 81.7282L0.361694 82.6496C2.45142 82.2966 4.63599 82.4678 6.58618 83.1373L8.23181 83.7335H8.66113C9.37659 83.7335 13.2401 81.6198 14.8142 81.9992C17.5862 82.2961 20.3898 82.3868 23.1851 82.2702L25.9039 80.8611L26.5479 80.4817C28.4081 80.8611 28.0503 82.1618 25.6893 83.3541H23.042C23.042 83.8419 25.2599 84.4922 26.2616 84.6006C27.2632 84.709 27.3348 85.793 27.1918 86.1181C27.0486 86.4433 28.1218 86.6059 29.7675 86.5517V86.2265L30.1967 85.4136C30.1967 84.0045 35.849 85.9555 38.21 86.4975C39.5938 86.6577 41.0092 86.5069 42.2809 86.0638C43.5526 85.6206 44.6249 84.9046 45.3647 84.0045L47.2964 82.8663L48.942 81.8366C50.5964 82.1874 52.2019 82.6593 53.7356 83.2457C53.7356 82.8663 54.2365 82.5412 54.5942 82.487C54.9519 82.4328 55.9536 82.9205 56.3828 83.8419H55.3097L56.5975 84.4922C56.7129 85.1033 56.7129 85.7238 56.5975 86.3349L58.243 85.4136C60.3179 86.5517 61.6057 87.6356 61.0333 88.015C60.4609 88.3944 56.3828 90.508 55.8104 90.1287C54.4905 89.011 53.5348 87.6746 53.0201 86.2265C52.8972 85.4525 52.8972 84.6701 53.0201 83.8961H51.8038V84.2213V86.1723C51.7056 87.1054 51.3489 88.0123 50.7572 88.834C50.1655 89.6557 49.3521 90.3738 48.3696 90.9416C47.5111 91.2126 46.2233 90.5622 45.5793 89.5325L44.1483 90.508C43.6475 90.8874 43.2183 91.4294 42.5028 91.592L39.9987 92.1881C37.2799 92.7843 33.631 93.7056 31.9138 94.2476L30.1251 93.2179C29.0084 92.8263 27.7635 92.6943 26.5479 92.8385H24.0437C20.588 92.6978 17.125 92.6978 13.6694 92.8385C11.6892 93.4203 9.56299 93.661 7.44482 93.543C5.1344 92.9122 2.7323 92.4937 0.290161 92.2965C-1.2771 92.4533 -2.86475 92.4533 -4.43201 92.2965L-5.07593 92.6217L-8.8678 94.4102C-12.946 93.4888 -17.2389 92.6217 -18.3835 92.4591L-18.8129 92.7301L-21.4602 94.2476C-24.4244 93.3573 -27.7253 93.3573 -30.6897 94.2476L-33.623 93.1095C-34.6248 92.6759 -36.9142 93.7598 -38.4167 92.6759C-38.8461 92.6759 -44.069 94.6812 -45.9292 93.9224C-46.3595 93.745 -46.8325 93.6351 -47.3201 93.5992C-47.8077 93.5632 -48.3 93.6021 -48.7675 93.7133C-49.2349 93.8246 -49.6677 94.0061 -50.0405 94.2468C-50.4135 94.4876 -50.7184 94.7828 -50.9374 95.1147C-53.2539 94.8104 -55.4969 94.244 -57.5912 93.4346C-59.8092 92.4049 -61.8125 95.5483 -63.7443 93.4346C-65.9476 94.235 -68.0139 95.236 -69.8973 96.4155H-73.1885H-75.4779C-79.0688 96.6899 -82.5244 97.5995 -85.566 99.0711C-86.8539 99.7756 -85.5662 100.589 -83.2766 100.805L-83.9921 102.973L-84.1351 104.491C-84.0131 106.637 -83.1763 108.725 -81.7026 110.561L-83.7059 112.132L-84.5645 112.837C-85.1368 113.813 -87.7841 116.197 -87.7841 116.956C-87.7841 117.715 -89.5728 119.015 -91.7191 119.937L-93.6509 120.858C-95.2935 123.088 -96.3617 125.534 -96.799 128.066L-94.9387 129.259C-95.2899 129.97 -95.8345 130.617 -96.537 131.158C-97.2395 131.7 -98.0845 132.124 -99.017 132.402H-101.521C-102.523 133.215 -101.092 134.353 -100.376 134.516C-99.6609 134.678 -104.812 138.689 -107.03 140.206C-109.248 141.724 -108.89 143.621 -108.032 143.892C-107.173 144.163 -107.388 145.788 -108.461 147.469L-109.749 148.444L-110.894 149.365C-113.04 149.691 -114.686 152.563 -113.326 152.726C-112.105 152.923 -111.015 153.442 -110.25 154.189C-110.25 154.514 -108.39 153.376 -106.315 151.642L-103.31 152.726L-101.521 153.43C-102.38 154.406 -98.0153 156.411 -95.6542 156.953C-93.2932 157.495 -98.2299 158.796 -100.019 159.012C-101.807 159.229 -108.175 159.012 -108.819 157.874C-109.463 156.736 -111.037 157.17 -112.182 158.741L-114.9 157.495L-115.616 157.115C-117.261 156.303 -117.047 156.411 -119.193 157.874L-120.552 158.796C-122.484 159.446 -123.629 160.747 -123.057 161.722L-122.27 162.481L-120.052 164.432C-120.44 166.117 -120.44 167.841 -120.052 169.526C-119.694 169.852 -113.684 170.502 -112.539 171.64C-109.393 173.696 -105.713 175.228 -101.736 176.138C-98.3826 176.176 -95.046 176.504 -91.7908 177.114C-89.1788 177.759 -86.901 179.011 -85.2799 180.691L-86.6394 181.937C-88.1139 183.08 -89.4321 184.333 -90.5743 185.677C-91.0037 186.436 -90.5745 187.628 -89.6443 188.495C-88.7142 189.362 -87.2833 189.471 -85.8523 188.495C-84.4214 187.52 -84.2782 188.495 -83.7775 189.146C-83.4923 189.451 -83.1182 189.703 -82.684 189.882C-82.2498 190.06 -81.7671 190.161 -81.2733 190.175C-79.6278 189.904 -77.1237 189.417 -76.6943 188.658L-74.6194 185.298C-73.2787 185.601 -72.1406 186.28 -71.4364 187.196C-70.7322 188.112 -70.5144 189.196 -70.8274 190.23C-71.7854 191.276 -72.5779 192.403 -73.1885 193.59H-70.756C-70.0405 193.59 -69.1104 192.885 -68.3949 192.397C-67.6794 191.91 -67.7509 191.422 -67.6793 191.476L-64.3167 192.072C-60.5962 192.831 -55.5879 190.446 -53.7993 190.067C-50.5426 190.308 -47.4182 191.166 -44.7129 192.56C-43.8208 192.854 -42.8328 192.94 -41.8762 192.804C-40.9196 192.669 -40.0386 192.32 -39.3469 191.801C-38.6313 191.151 -37.415 193.102 -37.272 193.752C-37.1289 194.403 -36.1989 193.752 -35.1971 192.343H-29.5449C-27.47 190.338 -22.3903 186.111 -23.4635 184.918C-24.5366 183.726 -20.8878 183.997 -19.3137 184.431C-17.7352 184.669 -16.0968 184.497 -14.6631 183.943C-12.1768 183.813 -9.6936 184.227 -7.50842 185.135C-6.21875 186.09 -5.23914 187.259 -4.64661 188.549C-4.64661 189.362 -9.08252 190.284 -10.6565 190.392C-12.2306 190.501 -10.6565 191.693 -6.8645 193.048H-5.79138C-4.57507 193.048 -4.14575 192.614 -4.28882 192.343C-4.43188 192.072 -3.07251 191.584 -2.50012 191.53C-1.92786 191.476 -0.282227 194.348 1.64954 194.294C3.5813 194.24 2.79431 194.836 1.64954 195.107C0.504761 195.378 13.6693 196.571 14.3132 197.058C14.9572 197.546 14.3132 198.738 13.5262 199.009C12.7393 199.28 13.5262 199.876 14.2418 200.31L15.0288 200.744L16.0304 201.611C16.8175 202.261 13.5978 204.321 12.3099 204.971C11.0221 205.621 8.08875 202.424 8.16028 201.231C8.23181 200.039 8.16028 199.064 8.16028 199.064C6.51465 200.039 4.86914 200.96 3.36658 201.99L2.07886 202.857C0.829468 203.976 0.0562744 205.356 -0.13916 206.814C0.0697021 207.982 0.528809 209.117 1.22021 210.174C2.15027 211.095 8.37488 211.583 8.37488 212.45C8.37488 213.317 5.15527 213.751 1.22021 213.263H-2.64331C-3.57336 213.263 -5.29053 214.184 -5.36206 214.781V216.19C-4.93286 217.816 -2.14246 220.58 -0.711548 220.363C0.719482 220.146 2.36499 218.141 1.29175 217.978C0.218628 217.816 0.290161 216.515 0.361694 215.919C0.433228 215.322 1.86414 214.781 3.5813 214.726C4.22522 216.948 5.51306 217.49 8.44653 215.756H8.87573C9.42432 215.784 9.9458 215.947 10.3596 216.221C10.7734 216.496 11.0565 216.865 11.1653 217.274V217.924C11.1653 218.628 9.73425 219.604 10.092 219.929C11.5382 221.017 13.1195 221.998 14.8142 222.856C15.4086 222.248 15.8678 221.571 16.1736 220.851C16.1736 220.309 19.6793 224.102 21.9689 224.536C24.2583 224.969 26.5479 223.235 26.9771 220.742L30.3398 223.723C30.8993 223.607 31.4307 223.424 31.9138 223.181L32.7008 222.747C33.4164 222.26 38.9254 221.718 39.8556 221.013C40.7856 220.309 45.0785 219.496 45.15 220.038C45.2216 220.58 48.2266 220.417 49.3713 220.742C50.516 221.067 54.5941 221.609 54.8804 220.742C55.1589 219.981 55.5178 219.238 55.9536 218.52C56.9901 218.58 57.9943 218.821 58.8871 219.225L67.9734 222.531L72.6956 220.905L73.411 220.634C74.5558 220.634 76.1298 222.422 76.416 223.181C76.7021 223.94 78.9917 222.639 79.8502 222.314C82.0928 222.263 84.3273 222.539 86.4325 223.127C87.7203 223.56 90.4392 222.368 91.1547 221.663C91.8701 220.959 95.5906 223.127 96.5206 222.693L98.9532 221.338H99.4541C100.098 221.338 102.173 222.26 102.745 222.639C103.318 223.018 106.895 221.122 108.183 221.284C109.471 221.447 109.9 224.373 108.183 224.644C106.466 224.915 106.466 225.999 108.183 227.137L109.828 228.059C111.045 228.059 112.046 224.969 112.046 223.777C112.046 222.585 114.336 222.043 117.198 222.693H119.344C123.565 223.073 123.637 223.018 124.138 225.728C124.127 225.855 124.127 225.981 124.138 226.108C127 226.108 127.429 227.896 129.074 228.763L131.149 229.143C133.868 228.872 134.154 226.595 131.793 224.157L133.081 222.26L134.655 219.929C138.733 220.363 141.166 224.102 140.236 224.536C139.089 224.979 138.049 225.565 137.159 226.27C137.159 226.595 138.161 227.137 138.733 227.246C142.35 226.648 146.052 226.393 149.751 226.487C153.28 227.465 156.92 228.19 160.627 228.655C162.201 228.655 162.845 227.625 162.63 227.354C162.415 227.083 167.209 226.108 167.924 225.024C168.64 223.94 169.427 223.56 169.641 224.157V224.698C169.641 225.24 168.497 226.216 168.711 226.324L170.643 227.192C172.861 228.059 178.513 227.192 180.016 227.517C180.889 227.792 181.825 227.934 182.77 227.934C183.716 227.934 184.652 227.792 185.525 227.517C186.088 227.245 186.768 227.15 187.422 227.251C188.076 227.352 188.653 227.642 189.031 228.059L190.104 228.817C190.104 228.817 190.819 228.817 191.034 228.817L192.465 229.143C194.111 228.709 196.758 228.384 197.974 228.059C201.614 227.195 205.394 226.721 209.207 226.65C211.21 227.029 215.575 227.625 218.794 227.95L222.157 228.601C223.946 228.98 223.516 228.059 222.658 227.3V226.975C223.302 226.162 221.942 225.078 219.581 224.536L217.435 223.886L216.362 223.723C216.362 223.018 216.862 221.23 217.363 221.663C219.95 222.614 222.459 223.682 224.876 224.861C225.949 225.728 228.238 227.517 228.739 227.788C229.24 228.059 232.746 228.221 233.032 227.788C235.166 226.661 237.443 225.699 239.829 224.915C241.546 224.319 239.829 223.886 238.541 223.886C236.961 223.615 235.548 222.946 234.534 221.989C234.034 221.501 233.891 219.116 235.393 218.737C236.896 218.357 242.548 219.225 244.479 218.737C247.338 218.532 250.221 218.716 252.994 219.279C252.994 218.574 253.995 217.761 254.639 217.87C255.283 217.978 256.571 219.712 258.002 220.688C258.847 220.849 259.709 220.958 260.578 221.013C262.028 220.501 263.397 219.865 264.656 219.116L266.802 219.658C268.877 219.225 269.163 220.58 265.801 221.067H263.654L262.295 221.609H261.865C260.13 222.146 258.334 222.564 256.499 222.856L253.852 222.26C252.421 221.934 251.92 221.934 251.92 221.447C249.509 221.434 247.105 221.653 244.766 222.097C243.549 222.802 248.701 224.373 251.062 224.482C252.75 224.455 254.413 224.793 255.855 225.457V225.782V226.162C256.499 226.758 257.573 224.969 257.787 224.265C258.002 223.56 265.729 225.024 268.662 224.861C271.596 224.698 278.393 222.531 279.108 223.723C279.824 224.915 284.832 224.102 286.263 223.723C287.694 223.344 293.418 225.186 294.634 224.969C295.85 224.753 298.426 224.265 298.927 224.211C299.427 224.157 302.719 224.211 306.081 224.698H309.873C310.732 223.94 312.091 222.802 312.95 222.151L316.527 224.211C316.986 224.504 317.572 224.659 318.173 224.644C319.265 224.073 320.595 223.823 321.913 223.943C323.231 224.063 324.445 224.543 325.328 225.295L327.259 226.704L335.773 224.915L337.991 225.837C340.71 226.975 343.143 227.083 344.073 224.319C344.073 223.56 346.72 223.56 347.364 224.915V225.403C347.364 225.782 351.156 225.132 352.229 224.753C352.802 224.655 353.401 224.697 353.94 224.872C354.479 225.047 354.932 225.347 355.234 225.728C355.234 226.216 358.668 223.994 359.67 223.127C360.672 222.26 362.317 222.585 363.176 223.94H365.966H367.326C367.524 224.141 367.789 224.298 368.094 224.395C368.399 224.492 368.733 224.526 369.061 224.493C369.389 224.46 369.7 224.361 369.961 224.206C370.222 224.052 370.423 223.848 370.545 223.615C370.545 222.964 373.192 223.615 373.908 224.102C374.623 224.59 377.628 223.56 378.558 223.073C379.488 222.585 383.638 224.211 384.64 224.807C385.323 225.049 386.068 225.174 386.822 225.174C387.576 225.174 388.321 225.049 389.004 224.807C389.004 224.536 394.656 225.728 396.588 225.457C398.162 225.207 399.65 224.709 400.953 223.994L403.17 222.097C405.179 221.905 407.216 221.997 409.18 222.368L412.901 223.018C413.688 226.108 415.691 224.861 417.766 223.615C420.629 223.127 423.561 222.909 426.495 222.964L430.144 224.265C433.435 225.295 436.44 224.807 436.797 223.181L437.942 222.856C440.661 221.989 440.16 224.048 441.233 224.753C442.201 225.032 443.271 225.032 444.238 224.753L444.811 223.669C446.099 223.669 454.827 223.398 457.832 223.289C460.837 223.181 466.203 222.531 467.133 223.289C467.629 223.768 468.334 224.097 469.121 224.216C469.908 224.335 470.726 224.237 471.426 223.94V223.344C471.426 221.067 473.143 220.959 475.576 222.26L477.15 223.073C478.143 222.574 479.228 222.191 480.37 221.934C480.37 221.934 483.16 224.753 484.734 224.157C486.308 223.56 490.386 222.422 493.82 221.555L497.398 222.693C499.721 223.205 502.134 223.443 504.552 223.398H506.77C509.06 223.127 516.214 224.644 518.289 224.373C520.364 224.102 522.01 220.905 522.01 219.875C522.01 218.845 525.015 218.954 526.16 219.279C527.304 219.604 527.09 219.983 526.16 220.092H525.444C523.87 220.742 523.655 222.314 524.943 222.368H530.309C536.033 221.501 541.184 221.88 541.757 223.181H547.123C551.941 223.019 556.73 222.529 561.432 221.718L566.941 223.723C567.98 223.882 569.05 223.882 570.089 223.723L570.519 219.279C574.454 220.851 579.247 223.127 579.891 223.506C580.535 223.886 583.111 223.018 584.112 222.964C585.114 222.91 591.267 222.585 593.199 222.368C595.131 222.151 598.851 223.723 600.354 223.452L607.079 222.043H609.44C611.929 222.198 614.422 221.783 616.595 220.851C618.085 220.39 619.755 220.39 621.245 220.851L623.821 221.934C626.858 221.27 629.938 220.728 633.051 220.309V222.639V223.181C636.13 223.565 639.272 223.565 642.352 223.181C644.051 222.984 645.601 222.33 646.716 221.338C646.716 220.905 649.22 221.772 649.936 222.205C652.455 222.921 655.116 223.306 657.806 223.344H663.601C666.975 222.954 670.301 222.356 673.546 221.555L675.12 222.097C676.213 222.544 677.477 222.685 678.694 222.497C679.91 222.309 681 221.803 681.774 221.067C686.171 221.117 690.568 220.954 694.938 220.58L700.161 223.181C704.342 222.402 708.602 221.894 712.897 221.663C716.045 221.663 725.06 220.2 726.419 221.663C727.779 223.127 729.281 222.368 729.496 221.663C729.71 220.959 733.145 222.476 734.647 222.314C738.079 222.175 741.518 222.175 744.95 222.314L748.742 222.585L761.835 221.447C762.348 221.115 762.945 220.866 763.589 220.715C764.234 220.565 764.912 220.516 765.583 220.572C766.253 220.628 766.901 220.787 767.487 221.04C768.073 221.293 768.584 221.634 768.99 222.043L770.564 223.723L779.722 221.88H782.44H783.299C784.748 221.342 786.019 220.564 787.019 219.604H789.38C792.099 219.604 793.315 220.58 795.033 221.392L795.891 221.284C799.328 221.051 802.715 220.505 805.979 219.658C809.491 219.147 813.085 219.037 816.64 219.333C818.368 219.269 820.1 219.378 821.791 219.658L822.507 219.983L826.656 221.772C826.656 219.767 831.808 220.146 833.811 219.983C835.814 219.821 839.606 219.279 840.465 219.279C842.856 219.292 845.244 219.4 847.62 219.604L849.837 218.303C851.847 218.607 853.812 219.061 855.704 219.658C858.106 219.643 860.501 219.462 862.859 219.116C866.752 219.523 870.7 219.523 874.593 219.116C877.852 218.336 881.265 217.987 884.681 218.087C886.451 218.68 888.055 219.527 889.403 220.58C890.118 221.23 894.411 219.496 895.341 218.954C895.776 218.735 896.286 218.618 896.808 218.618C897.33 218.618 897.84 218.735 898.275 218.954C900.63 219.358 903.074 219.358 905.429 218.954L908.363 219.441L910.939 219.875C912.909 219.218 914.942 218.675 917.02 218.249C917.807 218.249 923.459 219.225 924.962 218.249C926.464 217.274 928.038 218.249 928.539 219.55L931.83 219.116L936.409 218.574C938.683 218.952 940.928 219.423 943.135 219.983H943.564L946.14 218.845C949.359 218.845 955.87 217.111 957.301 217.816C958.732 218.52 967.604 217.219 969.321 218.303C971.038 219.387 974.901 218.303 977.62 215.919L981.913 219.116C982.78 219.208 983.663 219.075 984.417 218.737L986.349 217.545C988.373 218.08 990.554 218.173 992.645 217.816H993.79C995.65 217.816 992.717 214.726 996.509 216.298C998.083 216.948 999.299 217.165 1000.23 215.973C1000.23 215.648 1000.23 215.16 1000.23 214.781V214.239C1000.73 213.155 1002.02 214.943 1002.23 215.593C1002.53 216.017 1002.97 216.371 1003.51 216.619C1004.06 216.868 1004.68 217 1005.31 217.003H1005.95L1008.31 216.027C1009.46 217.111 1010.82 218.249 1011.25 218.574L1011.89 218.303L1013.68 219.387C1015.33 217.761 1022.19 217.219 1024.34 217.382C1026.95 217.116 1029.31 216.085 1030.92 214.51C1031.64 213.642 1032.78 214.13 1033.36 215.702L1034.71 216.406C1036.35 217.253 1038.35 217.583 1040.3 217.328C1045.17 216.338 1050.25 216.098 1055.25 216.623H1057.97C1060.19 215.919 1062.98 211.204 1060.61 210.824C1058.25 210.445 1058.33 209.578 1060.61 209.144L1062.47 208.602L1066.84 207.464C1069.45 208.353 1071.86 209.542 1073.99 210.987V211.312V211.637C1073.42 211.637 1065.84 211.312 1065.05 212.829C1064.58 213.882 1063.85 214.857 1062.9 215.702C1062.9 215.702 1062.9 216.135 1063.55 216.677H1064.12L1067.05 217.111C1069.8 217.414 1072.6 216.952 1074.92 215.81C1075.5 214.857 1075.93 213.857 1076.21 212.829L1078 213.697C1078.72 214.076 1079.72 214.455 1079.86 214.943V215.485C1079.29 216.081 1079.86 216.515 1081.15 216.352L1082.01 215.919L1083.01 215.485C1083.8 214.781 1091.59 216.894 1093.74 216.569L1099.25 215.648H1106.4L1109.19 215.16H1110.77C1112.34 214.13 1115.56 216.081 1116.21 217.003C1116.85 217.924 1119.86 217.003 1120.64 216.135C1122.58 215.005 1124.7 214.058 1126.94 213.317L1128.94 215.539C1129.44 215.703 1129.97 215.788 1130.52 215.788C1131.06 215.788 1131.59 215.703 1132.09 215.539L1136.17 212.884C1138.92 214.426 1142.27 215.227 1145.68 215.16C1147.26 215.062 1148.84 215.209 1150.33 215.593L1151.41 214.672C1152.27 213.968 1152.62 212.992 1153.55 212.287L1153.63 212.125C1154.84 212.125 1155.7 212.396 1155.63 212.884V213.968C1155.63 214.726 1156.49 215.322 1157.85 215.268L1158.71 214.943L1160.28 214.401C1161.39 213.989 1162.62 213.775 1163.86 213.775C1165.1 213.775 1166.32 213.989 1167.43 214.401L1167.93 214.726L1170.22 215.919C1172.87 215.539 1176.52 214.347 1176.38 213.642C1176.39 213.211 1176.58 212.793 1176.93 212.451C1177.28 212.11 1177.76 211.862 1178.31 211.746C1179.53 212.504 1180.31 213.588 1181.53 214.347L1182.24 214.781C1184.03 215.104 1185.85 215.34 1187.68 215.485L1189.33 214.726L1191.19 213.859C1194.19 213.447 1197.27 213.558 1200.2 214.184C1201.42 214.672 1203.85 213.805 1205.71 212.125L1206.43 213.48C1207.29 215.214 1207.71 215.919 1210.65 214.672L1211.79 214.184C1213.51 214.184 1218.95 216.135 1218.95 214.943C1218.95 213.751 1221.52 213.859 1222.53 213.642C1224.56 212.868 1226.73 212.32 1228.96 212.016C1230.47 212.016 1235.12 213.588 1236.98 213.697C1238.84 213.805 1247.42 211.312 1250.5 211.529C1255.48 212.209 1260.55 212.445 1265.6 212.233C1268.03 211.475 1270.25 211.691 1270.46 212.721V213.642C1273.41 212.671 1276.45 211.856 1279.55 211.204C1281.66 211.209 1283.76 211.465 1285.77 211.962L1287.27 211.095L1290.64 209.09C1292.58 209.561 1294.62 209.745 1296.65 209.632C1297.1 209.103 1297.49 208.54 1297.79 207.952C1297.79 207.301 1295.72 204.429 1296.36 203.508C1297.01 202.586 1300.44 202.315 1303.52 202.911H1306.66H1309.96C1312.76 203.024 1315.58 202.86 1318.33 202.424C1319.33 202.424 1324.05 202.803 1324.41 201.99C1324.77 201.177 1327.56 200.31 1327.91 200.852C1328.27 201.394 1330.2 201.502 1330.7 201.936C1331.2 202.37 1330.7 204.917 1332.21 205.079C1334.89 205.743 1337.41 206.751 1339.65 208.06L1342.01 208.494H1343.37C1344.73 209.144 1348.73 206.055 1349.74 204.754C1350.74 203.453 1352.31 202.749 1353.31 203.128L1353.96 203.67L1357.46 204.646C1359.51 203.485 1361.66 202.435 1363.9 201.502C1364.47 201.502 1365.33 201.936 1365.76 202.749V203.291L1365.26 203.941C1363.77 204.851 1362.67 206.078 1362.11 207.464L1365.48 208.656H1366.12C1366.98 209.09 1370.77 206.272 1371.84 205.134C1373.47 203.593 1375.24 202.144 1377.14 200.798H1380H1381.79C1383.58 200.798 1384.22 202.641 1384.01 203.237C1383.79 203.833 1386.58 206.055 1387.8 206.814C1389.01 207.572 1394.24 205.567 1396.46 205.513C1399.97 205.461 1403.48 205.262 1406.97 204.917C1409.51 204.21 1412.12 203.649 1414.77 203.237H1419.21L1419.85 203.508L1421.07 204.05C1422.21 204.863 1424.93 204.537 1427.01 203.291C1431.94 206.055 1434.16 203.291 1437.09 201.611L1441.82 198.847C1445.89 199.876 1449.9 199.606 1450.76 198.305L1451.12 197.058V195.974C1451.13 195.692 1451.23 195.415 1451.39 195.163C1451.56 194.911 1451.8 194.69 1452.09 194.515C1452.39 194.34 1452.73 194.215 1453.09 194.148C1453.45 194.082 1453.83 194.077 1454.19 194.132C1455.89 194.509 1457.65 194.674 1459.42 194.619H1461.35C1462.35 194.619 1463.35 192.506 1464.28 192.506C1466.24 192.756 1468.12 193.25 1469.86 193.969H1470.72C1471.51 194.294 1472.22 192.777 1472.22 192.072C1472.22 191.368 1474.16 190.934 1476.59 191.205L1478.09 191.693L1479.74 192.235C1481.53 192.41 1483.22 192.974 1484.6 193.861C1484.6 194.186 1486.18 193.265 1487.18 191.693L1489.9 191.205L1491.68 190.175C1492.97 188.062 1494.62 187.682 1495.4 189.308L1496.19 190.501V190.934C1496.73 191.157 1497.33 191.274 1497.94 191.274C1498.56 191.274 1499.16 191.157 1499.7 190.934V190.501V188.549C1499.22 187.264 1499.05 185.924 1499.2 184.593C1500.67 185.83 1502.01 187.153 1503.2 188.549C1503.76 188.98 1504.5 189.256 1505.29 189.335C1506.08 189.413 1506.88 189.29 1507.57 188.983C1508.21 188.604 1510.64 189.362 1511.29 189.742C1512.83 189.957 1514.42 189.826 1515.87 189.362C1516.73 189.362 1517.01 188.658 1516.51 188.333V188.007C1516.42 187.882 1516.38 187.743 1516.38 187.601C1516.38 187.459 1516.42 187.32 1516.51 187.195C1517.34 186.767 1518.26 186.455 1519.23 186.273H1519.95C1520.8 186.653 1529.46 184.756 1532.68 185.135L1538.83 185.785C1539.33 185.406 1540.26 184.701 1540.19 184.593C1539.5 184.039 1538.6 183.66 1537.62 183.509C1536.69 183.509 1535.11 184.322 1534.9 184.16C1534.68 183.997 1532.61 182.588 1532.75 181.883V181.341C1534.76 180.799 1531.82 179.499 1530.11 179.173C1528.39 178.848 1526.81 179.173 1526.53 180.041V180.474V181.016C1527.46 181.558 1524.88 182.046 1523.88 182.046C1522.88 182.046 1522.38 179.119 1522.45 178.09C1522.52 177.06 1525.1 176.193 1528.1 176.138L1530.82 177.114L1534.4 178.415C1536.9 176.084 1536.11 173.971 1535.61 173.971C1535.11 173.971 1532.04 173.971 1528.46 173.971L1526.53 172.29C1526.03 171.911 1526.1 171.207 1525.74 170.719C1525.1 170.719 1524.02 172.236 1523.88 172.778C1523.74 173.32 1520.95 173.754 1520.09 173.754C1519.23 173.754 1519.16 172.724 1519.37 172.453C1519.59 172.182 1515.44 171.098 1514.72 172.02C1514.01 172.941 1512.08 172.887 1510.43 172.02L1508.78 171.749C1506.35 171.315 1507.28 173.158 1506.35 173.537L1505.21 174.025C1503.08 173.895 1501.02 173.394 1499.2 172.561V171.044C1501.05 170.046 1503.23 169.447 1505.49 169.31L1507.14 168.551C1507.91 168.202 1508.82 168.05 1509.71 168.117C1511.15 168.388 1512.43 168.93 1513.79 169.255L1515.22 169.635C1517.3 169.96 1520.02 167.467 1521.3 164.215L1514.65 162.644H1513.94C1513.98 161.927 1513.68 161.221 1513.09 160.662C1512.49 160.102 1511.65 159.727 1510.72 159.609C1509.86 159.609 1509.57 158.958 1510.07 158.091L1510.43 157.224V156.736C1507.42 156.027 1504.21 156.027 1501.2 156.736C1500.71 156.87 1500.26 157.089 1499.9 157.376C1499.54 157.663 1499.28 158.01 1499.12 158.389C1498.97 158.767 1498.94 159.168 1499.02 159.558C1499.11 159.949 1499.32 160.319 1499.63 160.638L1496.19 161.072L1493.47 161.451H1492.83C1492.04 161.451 1491.9 160.801 1492.11 160.476C1492.33 160.15 1492.76 158.741 1493.26 157.332V156.248C1492.83 154.026 1490.04 155.11 1488.18 155.327C1487.82 155.327 1487.75 156.303 1487.68 156.845C1488.13 156.912 1488.59 156.912 1489.04 156.845C1491.76 156.845 1491.9 156.845 1491.04 157.983L1490.54 158.633C1489.75 159.283 1485.46 158.199 1484.39 157.766C1482.67 156.873 1480.75 156.213 1478.73 155.815C1477.14 155.905 1475.57 156.086 1474.01 156.357C1471.66 156.758 1469.26 156.958 1466.86 156.953L1464.42 155.435C1462.35 154.135 1460.92 152.075 1456.84 152.346C1453.98 152.346 1451.05 152.346 1448.11 152.346C1445.18 152.346 1442.32 152.346 1439.38 152.346C1436.59 152.572 1433.77 152.369 1431.08 151.75C1429.37 151.154 1426.15 152.129 1423.93 152.4C1422.78 152.4 1420.78 152.4 1420.57 152.997C1420.35 153.593 1420.21 155.11 1417.99 154.731H1416.7C1416.43 154.524 1416.21 154.279 1416.07 154.01C1415.92 153.74 1415.84 153.451 1415.84 153.159C1415.84 152.867 1415.92 152.578 1416.07 152.308C1416.21 152.039 1416.43 151.794 1416.7 151.587H1417.7H1420.21C1421.58 150.56 1423.32 149.863 1425.22 149.582H1426.22H1427.29C1428.72 150.016 1430.3 148.39 1430.44 147.739C1430.58 147.089 1433.3 147.739 1436.45 149.365L1441.67 147.306C1442.28 147.054 1442.99 146.959 1443.68 147.035H1446.11C1448.96 147.503 1451.85 147.775 1454.77 147.848H1458.49C1460.13 147.523 1464.64 147.848 1465.64 147.143C1466.68 146.117 1467.89 145.189 1469.22 144.379C1470.08 144.054 1473.51 145.301 1474.37 145.788C1476.8 146.02 1479.26 145.778 1481.52 145.084C1482.14 144.963 1482.78 144.98 1483.38 145.134C1483.98 145.289 1484.5 145.573 1484.89 145.951C1484.89 146.385 1487.11 145.517 1487.61 145.192C1489.55 144.968 1491.53 144.968 1493.47 145.192C1496.01 145.177 1498.53 144.922 1500.99 144.434C1503.87 144.051 1506.83 144.051 1509.71 144.434H1512.79C1515.44 144.279 1518.05 143.822 1520.52 143.079C1521.59 142.753 1521.81 141.236 1522.81 141.019C1525.03 140.531 1525.17 141.778 1525.31 142.753C1525.31 142.753 1526.46 143.079 1526.53 142.753C1527.56 142.207 1528.74 141.854 1529.98 141.722C1531.23 141.59 1532.5 141.684 1533.68 141.995L1537.4 142.374C1537.4 140.857 1538.26 140.531 1539.48 141.561H1540.84L1542.48 141.832C1544.48 141.426 1546.44 140.919 1548.35 140.315H1549.85C1550.7 140.228 1551.53 140.026 1552.28 139.718C1555.1 139.121 1558.04 138.937 1560.94 139.176H1562.87C1564.95 139.176 1572.89 136.575 1575.61 136.683C1578.33 136.792 1586.7 137.876 1587.84 136.683C1588.99 135.491 1590.85 135.003 1591.92 135.87L1592.78 136.629L1593.14 137.009C1595.55 137.714 1598.16 137.938 1600.72 137.659L1603.58 136.521C1606.95 135.48 1610.69 135.346 1614.17 136.141C1616.54 136.454 1618.96 136.454 1621.33 136.141L1623.4 135.816C1625.83 134.949 1629.48 133.432 1631.56 132.456L1634.28 134.19C1635.06 134.787 1639 133.215 1640.57 133.757L1645.37 135.437C1648.01 134.029 1651.24 133.394 1654.45 133.648C1655.73 133.866 1657.07 133.69 1658.17 133.161H1659.18L1665.11 133.865C1669.19 131.589 1672.27 131.101 1671.7 132.673L1675.92 131.589C1677.56 131.164 1679.35 131.164 1681 131.589C1681.73 131.959 1682.59 132.157 1683.47 132.157C1684.34 132.157 1685.2 131.959 1685.93 131.589C1687.15 131.101 1689.87 132.456 1691.37 132.131L1693.52 131.589C1696.37 131.089 1699.26 130.709 1702.18 130.451C1703.11 130.722 1708.04 127.416 1709.33 127.47L1714.55 127.849L1715.55 126.169C1716.13 125.519 1719.2 125.844 1720.35 125.194C1722.11 124.29 1723.44 122.978 1724.14 121.454C1724.14 120.099 1723.07 118.582 1722.35 117.173L1721.71 115.872C1720.99 114.409 1723.57 112.674 1724.5 112.512C1725.43 112.349 1724.5 109.423 1725.5 108.61C1726.5 107.797 1725.5 106.875 1724.21 106.767C1722.92 106.659 1723.5 104.978 1725 102.973L1724.14 102.269L1720.49 99.3421C1719.41 96.2927 1717.37 93.4857 1714.55 91.1584L1716.27 89.6409C1717.27 88.7738 1716.27 88.1234 1714.41 87.6898L1711.98 87.0937C1713.57 86.0046 1715.32 85.0589 1717.2 84.2755C1718.06 83.9503 1716.48 82.3244 1715.84 81.8366C1715.48 81.4471 1715.24 81.0009 1715.14 80.5315C1715.04 80.0621 1715.09 79.5818 1715.27 79.1268L1715.63 78.2054C1716.06 76.9047 1714.91 76.146 1712.76 76.417L1708.4 76.9047C1709.04 75.7666 1710.33 72.7858 1711.33 70.347L1705.39 68.0707L1703.96 67.5287C1701.4 67.0568 1698.79 66.7307 1696.17 66.5532H1693.8L1690.3 66.0112C1686.65 65.1983 1675.99 61.7839 1672.77 61.4045C1669.31 61.0191 1665.82 60.8018 1662.32 60.7542L1660.18 59.9412C1658.61 59.153 1656.76 58.7378 1654.88 58.7489C1651.81 59.2367 1649.52 57.7734 1646.44 58.1528C1643.22 58.3159 1640 58.3159 1636.78 58.1528C1634.88 58.2891 1632.96 58.2891 1631.06 58.1528H1629.34C1627.47 57.4781 1625.37 57.2693 1623.33 57.5566L1622.04 56.852L1620.68 56.0391L1616.53 53.4377C1616.1 53.4377 1618.04 52.4079 1619.04 52.0828C1620.04 51.7576 1618.18 50.9446 1614.67 50.1859L1613.46 53.1667L1612.74 55.0636C1609.82 54.4683 1607 53.5942 1604.37 52.4621C1603.42 51.9971 1602.73 51.2829 1602.44 50.4568L1602.94 50.0233L1603.8 49.2645C1605.23 48.7226 1605.3 46.9883 1603.8 45.4708L1602.15 45.0914C1600.01 44.5495 1599.86 43.8991 1600.79 43.0319C1601.72 42.1648 1603.15 43.0319 1603.87 43.0319L1606.45 44.1159C1607.25 42.9186 1608.26 41.807 1609.45 40.8099C1610.09 40.4847 1614.32 42.1106 1615.75 42.8152C1617.18 43.5197 1620.11 41.1893 1619.04 40.5389C1617.96 39.8885 1610.88 38.2085 1609.16 37.1245C1607.45 36.0406 1606.66 39.0214 1606.02 39.7802C1605.37 40.5389 1603.73 39.7802 1602.44 38.5336L1601.87 37.0161V36.4742C1600.22 36.149 1594.71 36.9619 1593.78 36.0406C1592.85 35.1192 1595.71 31.4339 1596.86 30.6209C1597.79 29.7407 1598.87 28.9572 1600.08 28.2905H1600.51C1601.24 28.4402 1601.89 28.7629 1602.37 29.2119C1602.37 29.7538 1602.37 30.5126 1602.37 30.9461L1602.87 31.6507C1603.94 32.2469 1607.8 31.6507 1608.81 31.6507C1609.81 31.6507 1612.6 31.2171 1612.03 30.4584C1611.74 30.1375 1611.59 29.7603 1611.59 29.3744C1611.59 28.9886 1611.74 28.6113 1612.03 28.2905L1612.74 27.9111C1614.1 27.0982 1614.32 25.7975 1612.74 25.6891C1608.66 25.3639 1610.81 24.6593 1611.95 23.738C1613.1 22.8167 1611.1 22.3289 1610.67 22.3289C1606.79 22.6413 1602.88 22.0755 1599.43 20.703L1598.15 20.1068C1595.32 20.5219 1592.43 20.6314 1589.56 20.432C1588.68 20.2695 1587.86 19.9618 1587.15 19.5308C1586.45 19.0999 1585.88 18.5563 1585.48 17.939H1584.77C1583.69 17.939 1582.33 18.4268 1581.12 18.481C1580.33 18.3658 1579.61 18.0388 1579.11 17.5596C1578.26 16.855 1577.76 15.5543 1576.68 15.3376C1571.54 14.1857 1566.31 13.2806 1561.01 12.6277L1558.51 12.3568C1554.97 12.946 1551.31 12.946 1547.78 12.3568C1546.41 11.9634 1544.99 11.6553 1543.56 11.4354C1540.69 13.4407 1536.9 12.3567 1533.61 12.5193C1530.84 12.8862 1527.99 12.5227 1525.53 11.4896C1524.88 11.1102 1522.38 12.4651 1520.66 12.4651C1518.94 12.4651 1517.66 10.3515 1516.08 11.7606L1514.22 13.3865C1512.17 12.2379 1509.93 11.2909 1507.57 10.5683L1505.35 11.3812L1503.2 12.1942C1499.82 12.3335 1496.48 12.8072 1493.26 13.6033L1491.4 12.4651L1488.97 10.9476C1486.96 11.7606 1481.81 10.6767 1480.59 10.9476C1477.62 11.8002 1474.47 12.2762 1471.29 12.3568C1469.5 11.9232 1465.07 12.3568 1464.14 12.3568C1463.28 12.3258 1462.42 12.4249 1461.61 12.6481C1460.79 12.8714 1460.05 13.2145 1459.42 13.6575L1457.06 12.14C1454.55 13.1697 1451.76 13.3865 1450.9 12.5735L1450.04 11.8148V11.4896C1450.04 11.1102 1449.26 11.1102 1448.76 11.4896V11.869V12.1942C1445.49 12.3963 1442.22 12.3963 1438.95 12.1942C1437.75 12.3891 1436.61 12.781 1435.62 13.3425C1434.63 13.9041 1433.82 14.6218 1433.23 15.4459C1433.01 15.8394 1432.59 16.151 1432.07 16.3133C1431.55 16.4756 1430.96 16.4755 1430.44 16.3131L1429.8 15.9337L1427.72 14.904C1425.68 15.0924 1423.62 15.183 1421.57 15.175L1414.84 13.6575L1411.84 14.904C1410.78 15.1154 1409.67 15.1154 1408.62 14.904H1407.76C1406.9 14.904 1400.61 16.2589 1397.96 16.0963C1396.91 15.9558 1395.83 15.9948 1394.8 16.2105C1393.78 16.4261 1392.82 16.813 1392.02 17.3428L1391.09 15.9879C1391.09 15.6627 1392.02 14.4704 1392.74 14.4162C1395.02 14.4162 1395.31 13.3865 1394.45 12.4109C1393.59 11.4354 1389.01 11.9232 1389.16 12.8987V16.2589C1385.54 16.4113 1381.99 15.4764 1379.28 13.6575C1378.71 12.8445 1376.92 12.14 1376.35 12.3026C1375.78 12.4651 1375.71 13.3323 1376.35 14.1452C1375.21 14.7414 1373.49 14.904 1372.56 15.5543L1372.06 15.8795C1372.63 17.0719 1369.34 16.855 1367.91 16.5841C1366.48 16.3131 1362.83 14.1452 1360.75 13.6033C1359.66 13.3639 1358.5 13.3924 1357.44 13.6845C1356.37 13.9766 1355.45 14.5174 1354.82 15.2292L1353.67 16.3131L1353.03 16.8551L1347.09 19.0771L1345.8 17.7764L1344.44 16.4757C1342.35 15.7308 1340.32 14.8985 1338.36 13.9826L1336.93 14.7414L1335.57 15.4459C1333.57 16.5299 1329.85 14.4704 1329.2 13.6033C1328.56 12.7361 1326.2 13.0071 1325.48 13.6033C1324.77 14.1994 1322.76 13.1697 1322.19 13.6033C1321.17 13.9565 1320.12 14.2466 1319.04 14.4704H1317.83H1316.39C1315.83 14.5035 1315.28 14.6452 1314.8 14.8821C1314.33 15.1191 1313.94 15.4436 1313.68 15.8253C1314.49 16.9946 1315.45 18.1018 1316.54 19.1313H1320.26H1321.9C1320.53 20.1642 1319.02 21.0902 1317.4 21.8953C1316.9 21.8953 1314.75 20.703 1314.11 20.161C1312.98 19.1828 1312.08 18.0643 1311.46 16.8551C1311.3 16.5387 1311.05 16.253 1310.73 16.0186C1310.41 15.7843 1310.02 15.6071 1309.6 15.5002C1309.1 15.5002 1307.74 16.4215 1306.52 17.6138L1305.16 18.6435C1304.8 18.6435 1303.44 18.6435 1302.66 18.6435H1302.3C1302.22 17.7768 1302.39 16.9067 1302.8 16.0963C1305.09 15.1957 1307.49 14.452 1309.96 13.8742C1311.6 13.4407 1317.83 11.8148 1317.11 10.8934C1316.39 9.97211 1311.46 10.1889 1310.96 10.8934C1310.46 11.598 1307.59 13.7117 1306.31 13.0613C1305.02 12.4109 1299.15 16.3673 1297.15 18.1016C1295.15 19.8359 1295.79 16.2589 1297.15 14.5246C1297.63 13.9606 1297.89 13.3014 1297.89 12.6277C1297.89 11.954 1297.63 11.2949 1297.15 10.7309C1296.72 10.7309 1292.35 10.2431 1291.85 10.7309C1291.35 11.2186 1290.49 14.3078 1289.35 14.5788C1288.21 14.8498 1287.2 12.8987 1287.2 12.1942C1287.2 11.4896 1285.13 10.3515 1282.55 9.70111L1280.55 9.32173C1280.32 9.32509 1280.09 9.36545 1279.88 9.44016C1279.67 9.51488 1279.48 9.62227 1279.33 9.75533V10.1347C1279.77 10.9201 1280.32 11.6655 1280.98 12.3568C1282.05 12.7361 1280.12 13.3323 1279.26 13.1155C1277.43 12.7848 1275.56 12.6031 1273.68 12.5735C1272.61 12.5735 1271.03 10.4057 1270.82 9.48434C1270.6 8.563 1268.03 13.1155 1266.38 14.091C1264.77 14.9254 1263.31 15.9085 1262.02 17.0176C1262.02 17.397 1259.44 18.9145 1258.37 18.7519C1257.84 18.5911 1257.35 18.3495 1256.95 18.042C1256.54 17.7345 1256.22 17.3675 1256.01 16.9634C1256.01 16.5841 1254.72 17.7764 1253.43 19.6733L1249.21 17.7764L1247.28 16.9093C1243.77 16.9093 1244.13 15.0666 1244.63 15.175C1245.13 15.2834 1248.21 15.8253 1251.79 16.3131L1253.29 13.8742C1254.72 13.8742 1251.57 13.1155 1246.14 11.9232L1242.92 13.2239L1237.62 15.3918C1236.23 14.8434 1235 14.0767 1234.03 13.1423C1233.05 12.2079 1232.35 11.1273 1231.97 9.97211C1231.97 9.43015 1229.89 9.32175 1226.53 9.97211L1223.03 8.67139L1220.81 7.85843C1216.59 8.40039 1214.08 9.75533 1214.37 9.97211C1214.65 10.1889 1214.37 10.6225 1213.8 10.8392H1212.72C1212.08 10.8392 1205.57 8.72559 1203.92 9.26755C1202.35 9.95708 1200.73 10.5725 1199.06 11.1102L1197.7 10.1889L1194.19 7.75006C1190.33 9.70113 1189.33 12.0316 1190.11 12.3568C1190.9 12.6819 1187.18 12.3567 1186.75 11.2728C1186.33 10.3089 1185.73 9.39612 1184.96 8.56299H1184.32C1183.92 8.57985 1183.54 8.65555 1183.18 8.78575C1182.83 8.91595 1182.51 9.09808 1182.24 9.32173L1181.24 10.1889C1180.94 10.4351 1180.58 10.6316 1180.17 10.7659C1179.76 10.9003 1179.32 10.9697 1178.88 10.9697C1178.44 10.9697 1178 10.9003 1177.59 10.7659C1177.19 10.6316 1176.82 10.4351 1176.52 10.1889C1175.95 9.59271 1175.09 9.70111 1174.59 10.1889V10.5141C1174.59 11.3812 1175.52 12.6819 1173.01 12.8445C1170.51 13.0071 1170.65 11.9774 1170.73 10.9476V10.0263C1170.73 8.94237 1169.15 8.02103 1167.29 7.91264H1166.07C1163.8 8.23277 1161.58 8.77945 1159.49 9.53853L1155.41 11.3812C1155.35 10.1842 1154.98 9.00752 1154.34 7.91264C1154.34 7.91264 1150.26 7.91264 1150.19 8.7256C1150.12 9.53854 1147.4 9.43015 1146.47 8.7256C1142.79 7.76028 1138.97 7.12367 1135.09 6.8287C1132.96 6.59396 1130.79 6.79994 1128.8 7.42487L1128.15 7.91264C1127.8 8.29201 1122 5.96158 1119.35 5.90738C1116.71 5.85318 1114.63 8.72559 1114.63 9.43013C1114.63 10.1347 1112.49 9.43013 1109.84 7.20808H1105.4C1103.94 7.08443 1102.5 6.82974 1101.11 6.44933H1098.68C1096.03 6.8287 1095.67 7.53326 1096.24 7.64166C1096.82 7.75006 1095.46 8.88817 1093.24 10.1347L1090.88 10.8934C1090.19 11.1126 1089.45 11.2254 1088.7 11.2254C1087.95 11.2254 1087.21 11.1126 1086.51 10.8934C1084.94 9.80951 1086.51 8.02104 1083.8 6.77452C1081.08 5.528 1079.65 8.72559 1077.57 6.77452L1076.07 5.31122C1073.92 5.83084 1071.66 6.03323 1069.41 5.90738H1068.27C1067.58 5.8598 1066.89 5.8598 1066.2 5.90738C1065.12 5.90738 1063.48 6.17836 1063.05 5.90738C1060.26 3.84792 1058.61 6.8287 1056.54 6.34094L1054.03 5.74477C1051.39 5.81024 1048.77 6.21335 1046.31 6.9371L1042.44 4.76924C1037.93 4.92787 1033.48 5.56645 1029.21 6.66612C1029.21 7.47906 1027.85 7.09969 1026.92 5.85316H1026.49L1021.62 6.34094C1016.33 6.34094 1010.67 6.66611 1010.03 6.61191C1009.39 6.55772 1005.17 5.96156 1000.87 5.257L992.86 6.23254C992.359 6.23254 991.643 6.77451 991.572 6.72031L988.925 4.87762C984.775 5.29099 980.582 5.39989 976.404 5.20282C973.41 4.64981 970.317 4.46681 967.246 4.66086C965.814 5.22299 964.164 5.37685 962.595 5.09442H961.451C959.948 5.09442 957.802 4.38986 957.015 4.76924C955.585 5.38211 953.985 5.73096 952.344 5.78746C950.703 5.84396 949.068 5.60652 947.57 5.09442L944.709 4.60666C942.359 5.10378 939.969 5.48396 937.554 5.74477C934.835 4.01048 933.333 4.33566 932.76 6.72031C931.732 6.94321 930.641 6.94321 929.612 6.72031C926.826 5.93207 923.983 5.2626 921.098 4.71504L917.592 3.90208C912.881 4.60104 908.083 4.90999 903.283 4.82344H894.268C889.13 4.41985 883.952 4.41985 878.814 4.82344C878.242 5.528 874.593 4.82343 870.729 3.90208L866.508 4.98602C863.32 5.19096 860.11 4.91466 857.064 4.1731L855.704 3.8479C853.987 3.8479 848.55 4.66084 843.899 5.4738L839.392 4.0647C837.863 3.79034 836.27 3.79034 834.741 4.0647C833.453 4.0647 832.165 4.87764 830.878 4.82344C829.59 4.76924 828.087 4.11888 826.656 4.11888H826.012C823.935 5.59085 821.507 6.74965 818.858 7.53326C816.926 7.85844 818.858 6.01576 819.859 5.3654C820.861 4.71504 818.715 3.7937 817.641 4.22728C816.568 4.66084 806.981 2.3846 803.332 2.60139C800.924 2.71072 798.532 2.96443 796.177 3.36014H795.748C792.171 5.14862 792.242 5.14862 789.667 3.36014L789.166 2.98076C787.806 2.98076 786.089 4.60664 785.875 5.257C785.75 5.72229 785.422 6.14229 784.945 6.44933C784.469 5.71622 784.154 4.92897 784.014 4.11888C784.014 3.46852 781.081 2.98076 777.933 3.08916L775.143 2.81818H772.424C769.49 2.81818 764.911 3.25175 762.336 3.30595H759.975H758.043C757.399 4.22729 755.467 5.96158 754.609 5.528C753.616 4.96237 752.767 4.2645 752.104 3.46854C750.492 3.95534 748.812 4.30083 747.096 4.49826H745.307C743.233 4.49826 740.371 4.49826 739.727 4.49826C738.031 4.75182 736.424 5.26851 735.005 6.01578L733.216 4.01048C732.572 3.25174 728.422 3.52272 726.061 3.63112H721.769C717.278 4.06113 712.723 3.87758 708.318 3.08916L706.458 3.57692C703.953 4.22728 703.381 1.46326 700.805 2.98076C699.76 3.46461 698.525 3.65884 697.312 3.53036C696.099 3.40189 694.982 2.95866 694.151 2.2762C687.748 2.92488 681.295 3.25078 674.834 3.25174C672.454 2.25771 669.818 1.66605 667.107 1.51746C665.819 2.3846 664.531 -0.108444 662.886 1.51746L662.17 2.22202C660.829 2.31934 659.477 2.16788 658.23 1.78075C656.984 1.3936 655.88 0.78241 655.015 -4.57764e-05L652.797 1.02969L649.721 2.43878C646.109 1.93172 642.599 1.07565 639.275 -0.108429L637.057 1.08388C634.768 2.3304 632.049 -1.02979 629.902 1.57164V1.89684C626.439 1.49129 623.019 0.893539 619.671 0.108353L616.452 1.68004C615.717 1.92014 614.926 2.04401 614.126 2.04401C613.327 2.04401 612.535 1.92014 611.801 1.68004L607.938 -0.271042C603.573 0.541916 595.918 0.812897 594.344 1.08388C592.77 1.35486 587.976 0.704498 587.189 1.08388C584.883 1.65323 582.456 1.89217 580.034 1.78844L574.811 0.758713H573.738C572.021 0.758713 570.375 1.51746 568.587 1.73425C567.052 1.7543 565.521 1.86299 564.008 2.05942C562.648 2.43878 564.008 4.49826 560.717 4.22728H559.214C557.425 4.71504 555.565 2.98076 555.422 2.22202C550.232 1.51076 544.895 1.71475 539.825 2.81818L532.098 1.95103C531.74 1.95103 531.096 3.03494 530.381 3.52272C529.103 3.27875 527.94 2.77238 527.018 2.05942L525.516 1.51746L522.797 0.59613C519.416 1.20599 515.966 1.56895 512.494 1.68004C512.229 1.67041 511.964 1.70966 511.723 1.7944C511.482 1.87917 511.271 2.00691 511.109 2.16672C510.948 2.32651 510.839 2.51363 510.794 2.71202C510.749 2.91042 510.767 3.11421 510.849 3.30595C511.206 3.73952 509.346 4.1189 506.699 4.1731V3.90208L505.554 0.812897C501.69 1.30066 484.949 1.62585 479.797 1.62585C474.216 1.67081 468.654 2.1429 463.198 3.03494L460.766 2.54718L457.689 2.00522C454.469 2.00522 447.1 2.5472 445.526 2.00522C442.587 1.6559 439.594 1.6559 436.654 2.00522C435.08 2.3304 428.784 0.92128 426.638 1.08388C424.491 1.24646 418.195 1.62585 416.478 1.73425C414.761 1.84264 408.608 3.36014 407.392 2.70978C406.175 2.05943 400.666 3.19754 398.949 2.98076C397.232 2.76398 382.994 1.84264 378.201 1.73425C373.407 1.62585 366.467 2.87236 365.394 2.3846C364.321 1.89684 361.316 3.14336 360.314 3.57692C359.341 3.9512 358.306 4.22462 357.237 4.38986C356.88 4.38986 355.95 3.57692 355.234 2.60139H352.301C349.081 2.60139 345.79 2.60139 342.57 2.60139H339.851C336.086 1.90042 332.204 1.62645 328.332 1.78844C323.942 2.63264 319.398 2.92558 314.882 2.65558H309.373H307.441C305.437 2.98076 288.695 2.65558 283.83 3.03494L269.521 4.44406L267.16 3.41432C265.944 2.87236 265.443 2.49298 264.298 3.41432C263.153 4.33566 261.508 1.78842 260.077 3.41432C260.077 3.41432 257.358 2.54718 256.285 2.76398C255.609 2.99103 254.878 3.10832 254.138 3.10832C253.399 3.10832 252.668 2.99103 251.992 2.76398C250.668 2.44243 249.265 2.35339 247.889 2.50365C246.513 2.65388 245.2 3.03944 244.05 3.63112C242.262 4.44406 239.257 1.57166 236.466 2.76398C235.08 3.44077 233.465 3.80069 231.816 3.80069C230.166 3.80069 228.552 3.44077 227.165 2.76398L226.235 2.3846C224.733 2.3846 218.508 4.44406 216.719 3.7395C215.968 3.47577 215.134 3.37659 214.312 3.45322C213.49 3.52983 212.713 3.77921 212.069 4.1731C211.711 4.60666 210.352 3.8479 209.994 3.41432C209.636 2.98076 207.204 3.41432 206.273 3.41432C205.343 3.41432 201.766 1.95103 200.907 2.493C200.049 3.03496 188.888 1.40906 184.881 2.05942C181.035 2.93153 177.078 3.49467 173.076 3.7395C170.919 3.22745 168.681 2.93584 166.422 2.87236C163.543 3.35724 160.738 4.06554 158.051 4.98602C156.548 5.52798 153.544 4.38986 152.9 3.8479C152.256 3.30594 149.322 4.22728 148.177 3.8479C145.4 3.59978 142.585 3.74681 139.878 4.28146L137.875 3.52272L134.369 2.22202C130.72 2.60139 124.138 4.38988 122.564 4.1731C119.786 3.89339 116.971 3.89339 114.193 4.1731L111.331 3.19756C109.685 2.65559 106.895 4.55246 104.176 2.70978L103.389 2.1678C101.219 2.31583 99.0663 2.58759 96.95 2.98076C93.0452 3.75465 89.0778 4.33398 85.0731 4.71504C81.9966 4.71504 72.5524 4.71504 63.609 4.38986L55.8104 3.90208H53.8787C52.0184 4.38986 46.724 3.41432 46.2233 3.90208C46.2233 3.90208 46.2233 3.41432 46.2233 3.03494L42.7174 3.7395C41.1935 4.14671 39.6062 4.40176 37.9954 4.49826C35.9205 4.49826 33.8456 3.8479 31.6992 3.7937C29.5529 3.7395 25.7609 4.93184 24.5446 4.22728L21.2533 2.65558C19.4646 3.8479 14.9572 3.46852 13.7408 3.63112C10.2213 4.77121 6.55188 5.62509 2.79419 6.17836C0.00390625 6.17836 -9.08252 3.7937 -11.5151 4.60666C-13.8961 5.35074 -16.4521 5.71954 -19.0275 5.69058C-19.8145 5.69058 -22.7479 4.87764 -23.3203 5.20282C-23.8927 5.528 -26.7546 6.99129 -27.6847 6.72031C-30.0266 6.28087 -32.427 6.04451 -34.8394 6.01578C-36.4135 6.01578 -41.994 7.1539 -42.8525 6.39514C-43.7112 5.6364 -45.786 6.8287 -47.0023 7.20808L-52.5115 8.83397V7.91264L-52.9407 5.14861C-55.588 5.85316 -61.0972 8.5088 -62.385 7.91264C-64.8529 7.51797 -67.3789 7.37218 -69.8973 7.47905C-71.8551 7.39012 -73.7965 7.15413 -75.6926 6.77452C-79.7513 7.1839 -83.8347 7.43715 -87.9271 7.53326C-90.2939 7.21834 -92.7151 7.21834 -95.0818 7.53326H-95.9403H-98.6592C-102.02 7.66818 -105.387 7.66818 -108.747 7.53326L-111.537 8.56299L-114.113 9.53853C-117.635 9.46022 -121.104 10.1976 -124.058 11.6522C-124.917 12.3026 -126.276 10.4599 -126.491 9.70111C-126.706 8.94237 -130.283 11.1644 -131.356 12.0316C-132.429 12.8987 -133.86 12.0316 -134.075 11.1644C-134.29 10.2973 -139.083 10.1889 -140.8 10.2973C-142.517 10.4057 -142.661 12.14 -141.158 14.3078L-144.807 14.7956L-149.243 15.3918C-148.742 16.3131 -150.602 17.2886 -151.532 17.397C-152.463 17.5054 -152.033 20.3236 -152.963 20.8114C-153.893 21.2992 -155.253 20.1068 -155.467 19.5107C-155.682 18.9145 -159.116 19.9442 -163.123 21.8411V25.0929V27.9653C-162.81 30.6241 -161.323 33.1254 -158.902 35.065C-157.9 35.4986 -158.544 36.6368 -160.404 37.5581H-161.477H-162.622C-163.767 36.42 -164.983 36.3658 -165.055 36.691C-166.543 38.005 -168.223 39.1868 -170.063 40.2137L-174.857 42.4358L-174.928 42.8152ZM-83.4912 171.586H-93.4363C-94.6526 169.364 -95.225 167.25 -94.6526 166.871C-93.2955 166.469 -91.7883 166.469 -90.4313 166.871C-89.7874 167.25 -87.5693 166.871 -85.423 165.895L-83.2766 165.57H-82.418C-80.7725 166.654 -81.2733 169.526 -83.4912 171.586ZM-52.4399 187.303L-55.8026 186.924H-58.0922C-58.6852 186.834 -59.2395 186.634 -59.7054 186.342C-60.1714 186.05 -60.5341 185.675 -60.7611 185.25C-60.9882 184.826 -61.0724 184.365 -61.0061 183.91C-60.9398 183.455 -60.7252 183.019 -60.3816 182.642C-58.879 181.07 -49.3634 185.785 -48.004 186.544C-46.6445 187.303 -48.3618 187.52 -52.4399 187.303ZM31.6992 196.625C30.9838 197.004 31.2699 197.98 31.6992 198.305C32.1285 198.63 27.3348 198.305 25.9039 197.709C25.1487 197.505 24.326 197.496 23.5631 197.682C22.8 197.868 22.1392 198.239 21.6826 198.738C21.1818 199.443 20.681 199.118 20.6094 198.034C20.7723 197.177 21.3014 196.385 22.1155 195.778C22.9296 195.171 23.9839 194.783 25.1169 194.674L27.478 195.324L29.1235 195.812C32.9871 194.945 32.4862 196.083 31.6992 196.625ZM54.9519 197.275L53.2347 197.763C50.0151 196.896 49.1566 195.216 49.729 194.89C52.5385 195.093 55.2897 195.623 57.8854 196.462L54.9519 197.275ZM1509.43 180.366L1512.5 178.848C1514.89 177.671 1517.46 176.724 1520.16 176.03H1520.52V176.301C1519.8 177.966 1518.46 179.436 1516.65 180.528C1515.04 181.195 1513.26 181.618 1511.43 181.775C1510.85 181.744 1510.3 181.583 1509.84 181.312C1509.38 181.042 1509.04 180.675 1508.86 180.257L1509.43 180.366ZM1482.74 172.074C1481.11 172.71 1479.25 172.928 1477.45 172.693C1475.64 172.458 1473.98 171.784 1472.72 170.773C1478.45 168.226 1478.52 168.226 1482.74 172.074ZM1451.05 169.797L1456.27 170.177H1459.06C1462.21 170.177 1463.07 172.453 1461.78 171.911C1460.49 171.369 1459.35 171.911 1459.27 172.67C1459.14 173.721 1458.86 174.758 1458.42 175.759C1457.86 175.101 1457.43 174.39 1457.13 173.645C1457.13 172.995 1452.26 172.236 1450.62 172.507C1448.97 172.778 1448.97 171.694 1450.9 169.526L1451.05 169.797ZM1427.36 200.147C1427.85 199.304 1428.17 198.408 1428.29 197.492C1428.29 197.167 1430.23 197.492 1432.66 197.492L1433.37 197.112C1435.16 196.029 1435.81 196.787 1436.88 197.438C1437.95 198.088 1438.53 199.118 1436.88 199.822C1435.23 200.527 1434.59 202.641 1432.3 201.665L1429.8 200.527C1428.22 201.557 1426.72 200.852 1427.22 200.147H1427.36ZM1536.19 27.7485L1538.19 28.3447L1539.98 28.6157C1541.68 29.6286 1543.12 30.8796 1544.2 32.301H1543.84C1541.62 33.2766 1540.98 32.6262 1540.34 31.0545C1539.69 29.4828 1538.76 31.0545 1537.9 31.3255L1535.33 31.7591C1535.12 30.3878 1535.41 28.9989 1536.19 27.7485ZM1391.16 199.985L1392.52 198.793C1394.31 197.221 1395.31 197.654 1395.31 199.497C1396.6 199.497 1401.03 201.231 1400.75 201.99C1400.1 203.002 1399.05 203.836 1397.74 204.375L1395.6 202.749C1391.88 202.857 1389.73 201.611 1391.16 199.985ZM1331.35 175.705C1331.6 175.358 1332 175.089 1332.49 174.946H1334C1336.29 175.449 1338.52 176.121 1340.65 176.951C1340.86 177.041 1341.03 177.172 1341.15 177.329C1341.27 177.486 1341.33 177.664 1341.33 177.846C1341.33 178.027 1341.27 178.206 1341.15 178.363C1341.03 178.52 1340.86 178.65 1340.65 178.74C1339.72 179.282 1335.86 178.74 1333.49 177.656L1331.35 176.626C1331.06 176.68 1331.13 176.03 1331.35 175.705ZM1273.11 204.537C1272.46 206.262 1271.39 207.879 1269.96 209.307L1267.74 209.578C1265.31 209.903 1265.95 208.44 1265.17 207.789L1264.09 206.922C1265.99 205.673 1268.14 204.666 1270.46 203.941C1272.11 203.508 1273.25 203.724 1273.11 204.537ZM1261.52 21.8953C1263.52 21.4075 1266.6 23.1418 1267.17 24.0632C1267.74 24.9845 1266.6 25.7433 1264.59 25.7433C1262.59 25.7433 1259.51 22.3831 1261.52 21.8953ZM1246.64 206.38C1247.78 205.567 1248.78 204.429 1251.22 205.025L1253.79 205.621C1257.37 206.272 1258.44 207.41 1256.15 208.169L1254.29 208.765C1251.63 208.844 1248.96 208.569 1246.42 207.952C1246.21 207.464 1246.14 206.705 1246.64 206.38ZM1131.02 207.464C1132.38 206.434 1133.52 206.163 1133.66 206.922C1133.81 207.681 1135.81 209.036 1136.45 208.981C1137.1 208.927 1137.31 209.632 1137.24 209.903C1135.26 210.627 1133.17 211.155 1131.02 211.475C1129.23 211.854 1129.66 208.602 1131.02 207.464ZM874.593 213.697C876.917 212.999 879.309 212.437 881.747 212.016L884.395 211.637C886.04 213.1 883.751 214.076 879.243 213.859L875.952 215.539C875.669 215.561 875.384 215.539 875.113 215.473C874.842 215.408 874.592 215.301 874.378 215.16C874.593 214.672 874.593 213.751 874.593 213.697ZM643.067 215.702L645.07 216.948C645.5 217.219 644.14 218.195 641.994 219.17L641.064 218.899L636.771 217.653C637.916 215.106 640.706 214.184 643.21 215.702H643.067ZM591.41 216.461L593.914 214.943L594.487 214.564C595.59 214.929 596.497 215.568 597.056 216.376C597.615 217.184 597.794 218.112 597.563 219.008C596.991 219.875 592.841 217.328 590.981 216.515C589.121 215.702 589.479 215.702 591.553 216.461H591.41ZM561.217 214.401H561.933L564.294 214.943C566.583 216.352 566.941 217.545 565.153 217.545C563.364 217.545 559.071 216.19 561.361 214.401H561.217ZM538.823 4.76924C539.054 5.42516 539.198 6.09694 539.253 6.77452C539.253 7.26228 537.178 7.53325 536.534 7.47905C535.89 7.42487 535.389 9.37593 535.389 10.1889C535.389 11.0018 534.459 11.327 533.386 10.9476C532.312 10.5683 529.808 8.94237 529.808 7.96683V7.09969V5.74477C532.832 5.28035 535.891 4.95457 538.966 4.76924H538.823ZM342.856 220.363C343.858 219.279 347.292 217.274 348.795 217.761H350.083C352.515 218.195 351.514 219.333 351.514 220.2V220.742C350.727 221.176 346.148 220.742 344.359 221.338C342.57 221.934 341.855 221.501 342.856 220.363ZM293.632 217.545C293.632 217.057 294.992 217.545 296.78 218.087C298.569 218.628 297.854 221.88 295.707 221.772C293.561 221.663 292.702 220.309 292.988 219.875C293.353 219.126 293.57 218.341 293.632 217.545ZM190.319 219.821C192.894 219.387 193.467 223.398 192.322 223.723C191.227 223.775 190.129 223.658 189.096 223.378C188.063 223.099 187.116 222.663 186.312 222.097C185.883 221.284 187.743 220.254 190.319 219.821ZM145.459 220.905C145.992 220.338 146.775 219.934 147.667 219.765C148.559 219.596 149.501 219.673 150.324 219.983C151.469 220.742 153.4 223.452 151.326 224.102L149.966 224.753C149.675 224.935 149.336 225.068 148.971 225.143C148.607 225.217 148.225 225.232 147.852 225.186C147.48 225.14 147.124 225.034 146.81 224.875C146.496 224.716 146.23 224.508 146.031 224.265C145.661 223.939 145.382 223.56 145.21 223.15C145.037 222.74 144.976 222.308 145.029 221.88L145.459 220.905ZM93.0864 86.5517C94.4296 85.2439 96.109 84.1561 98.0232 83.3541H99.2395H100.17C100.498 83.9787 100.605 84.6576 100.48 85.3233C100.354 85.9889 100 86.618 99.4541 87.1479L97.88 87.6898L96.4491 88.1234C94.0166 88.2318 92.514 87.3105 93.0864 86.5517ZM72.8386 84.4922C75.3428 84.4922 81.9967 85.5762 79.9933 85.8471C77.99 86.1181 72.481 86.7685 71.0499 85.8471C69.619 84.9258 70.406 84.6006 72.8386 84.4922ZM52.5908 76.146C54.6658 76.146 59.7455 78.4764 61.6057 78.2054C63.4659 77.9345 64.3246 78.2054 63.4661 78.7474C59.6514 79.4458 55.7228 79.7196 51.8038 79.5603C49.9436 79.3978 50.516 76.2002 52.5908 76.146ZM42.2881 63.735L44.0768 63.193L45.6509 62.7594C47.4395 62.2175 47.1533 64.1144 46.0085 64.7105C44.8639 65.3067 44.1483 66.0654 44.4346 66.2822C44.5317 66.3922 44.5944 66.5176 44.6177 66.6487C44.6411 66.7799 44.6245 66.9133 44.5692 67.0389C44.514 67.1644 44.4216 67.2787 44.2991 67.373C44.1765 67.4673 44.027 67.5391 43.8622 67.5829H43.0037C42.5743 67.5829 42.0735 67.2036 41.6442 66.9326L40.3563 66.1738C38.9254 65.3067 39.7839 64.1686 42.2881 63.735ZM-122.699 38.1543C-121.197 36.5826 -119.265 35.3902 -118.406 35.5528C-117.548 35.7154 -118.406 37.8833 -117.548 38.6962C-116.689 39.5092 -117.547 41.677 -116.904 42.4358C-116.26 43.1945 -115.043 44.983 -115.401 45.4166C-115.759 45.8501 -117.905 45.796 -120.052 45.4166V44.1701C-119.909 43.5197 -124.202 39.455 -122.699 38.1543ZM-119.909 59.4535C-118.692 59.9954 -115.401 58.3695 -114.9 58.6947H-114.4C-112.682 59.4535 -110.822 60.0496 -109.177 60.8084C-109.035 60.9688 -108.959 61.1574 -108.959 61.3504C-108.959 61.5433 -109.035 61.7319 -109.177 61.8923C-111.3 61.8059 -113.407 61.57 -115.473 61.1878L-118.478 63.0304L-120.123 64.0602C-120.624 63.3014 -123.2 60.4832 -122.77 59.6703C-122.341 58.8573 -121.483 58.9115 -119.909 59.4535ZM-141.874 51.1614C-141.373 49.8065 -136.865 47.6386 -136.579 48.831L-135.864 49.1561C-133.359 50.2943 -134.79 51.1072 -136.364 51.7034L-138.368 52.4079C-141.373 53.0583 -142.732 52.4621 -142.16 51.1614H-141.874Z" fill="white"/>
<path d="M1300.22 210.228C1302.94 210.616 1305.69 210.797 1308.45 210.77C1309.95 210.84 1311.46 210.84 1312.96 210.77H1313.75L1318.04 209.307C1319.97 206.488 1319.61 204.537 1318.97 204.808C1318.33 205.079 1315.11 206.922 1313.68 206.922C1312.24 206.922 1306.52 206.055 1304.37 206.217C1302.21 206.589 1300.29 207.554 1299.01 208.927C1299.02 209.21 1299.15 209.483 1299.36 209.714C1299.58 209.945 1299.88 210.123 1300.22 210.228Z" fill="white"/>
<path d="M97.8798 224.644C95.8049 225.945 93.8732 227.408 90.7251 225.186C89.5088 225.511 86.003 226.65 85.216 226.216C84.8244 226.045 84.3803 225.955 83.9282 225.955C83.4761 225.955 83.0318 226.045 82.6403 226.216V226.595C82.6403 226.866 82.6403 227.571 83.2127 227.571C85.1444 227.571 87.0047 227.571 88.9364 227.571C90.8682 227.571 90.5104 229.359 92.5853 228.113L93.1577 227.788C94.3164 228.153 95.5765 228.294 96.8252 228.2C98.0739 228.105 99.2721 227.777 100.312 227.246L101.171 226.216C101.171 225.891 100.67 225.078 100.026 224.644C99.3823 224.211 98.2375 224.428 97.8798 224.644Z" fill="white"/>
<path d="M1380.93 204.971H1379.71H1378.5C1377.28 204.592 1375.21 207.898 1377.07 208.548C1378.56 209.126 1380.15 209.563 1381.79 209.849C1382.58 209.849 1383.22 207.572 1383.22 206.705C1383.27 206.469 1383.24 206.227 1383.14 206C1383.05 205.773 1382.88 205.566 1382.66 205.397C1382.43 205.228 1382.16 205.101 1381.86 205.027C1381.56 204.953 1381.24 204.934 1380.93 204.971Z" fill="white"/>
<path d="M1246.64 9.86371L1248.5 11.1102H1248.93C1251.5 10.2973 1253.29 8.83398 1252.93 7.91264H1252.29L1248.42 7.26229C1245.13 8.72559 1244.28 9.80952 1246.64 9.86371Z" fill="white"/>
</g>
<defs>
<clipPath id="clip0_421_1556">
<rect width="1901" height="229.143" fill="white" transform="matrix(-1 0 0 -1 1726 229.143)"/>
</clipPath>
</defs>
</svg>
