<svg width="114" height="24" viewBox="0 0 114 24" fill="none" xmlns="http://www.w3.org/2000/svg">
<g clip-path="url(#clip0_421_1765)">
<path d="M34.092 21.4955C33.8483 21.4955 33.61 21.5678 33.4073 21.7032C33.2046 21.8386 33.0466 22.0311 32.9533 22.2564C32.86 22.4816 32.8356 22.7294 32.8832 22.9685C32.9307 23.2076 33.0481 23.4272 33.2205 23.5996C33.3929 23.7719 33.6125 23.8893 33.8516 23.9369C34.0907 23.9844 34.3385 23.96 34.5637 23.8667C34.7889 23.7735 34.9814 23.6155 35.1169 23.4128C35.2523 23.2101 35.3246 22.9718 35.3246 22.728C35.3246 22.4011 35.1947 22.0876 34.9636 21.8565C34.7324 21.6253 34.4189 21.4955 34.092 21.4955Z" fill="white"/>
<path d="M20.7067 17.3837C20.8779 17.3837 21.0475 17.35 21.2057 17.2845C21.3639 17.2189 21.5076 17.1229 21.6287 17.0018C21.7498 16.8807 21.8459 16.7369 21.9114 16.5787C21.9769 16.4205 22.0107 16.251 22.0107 16.0797C22.0107 14.646 22.5802 13.271 23.594 12.2571C24.6078 11.2433 25.9829 10.6738 27.4166 10.6738C28.8503 10.6738 30.2253 11.2433 31.2392 12.2571C32.253 13.271 32.8225 14.646 32.8225 16.0797C32.8371 16.4161 32.981 16.7338 33.2242 16.9666C33.4674 17.1995 33.7911 17.3295 34.1278 17.3295C34.4645 17.3295 34.7881 17.1995 35.0313 16.9666C35.2745 16.7338 35.4184 16.4161 35.433 16.0797C35.4708 15.004 35.2915 13.9317 34.9059 12.9267C34.5202 11.9218 33.9362 11.0048 33.1885 10.2304C32.4409 9.45604 31.5449 8.84019 30.5541 8.41956C29.5633 7.99894 28.4979 7.78217 27.4215 7.78217C26.3451 7.78217 25.2798 7.99894 24.2889 8.41956C23.2981 8.84019 22.4022 9.45604 21.6545 10.2304C20.9069 11.0048 20.3228 11.9218 19.9372 12.9267C19.5516 13.9317 19.3723 15.004 19.41 16.0797C19.41 16.4243 19.5464 16.7548 19.7893 16.9992C20.0323 17.2435 20.3621 17.3818 20.7067 17.3837Z" fill="white"/>
<path d="M54.7247 22.5308V16.0427C54.7289 15.9312 54.7207 15.8196 54.7001 15.7099C54.6422 13.9101 53.9812 12.1819 52.8233 10.8027C51.6655 9.42354 50.0778 8.47339 48.3151 8.10475C46.5525 7.7361 44.7171 7.97036 43.1036 8.76991C41.49 9.56946 40.1919 10.8879 39.4175 12.5137C38.6432 14.1395 38.4375 15.9783 38.8335 17.735C39.2295 19.4917 40.2043 21.0644 41.6013 22.2007C42.9983 23.337 44.7366 23.971 46.5371 24.0009C48.3376 24.0308 50.096 23.4549 51.53 22.3656L52.0501 21.9688V22.6245C52.0649 22.9692 52.2123 23.2949 52.4615 23.5336C52.7106 23.7723 53.0424 23.9056 53.3874 23.9056C53.7325 23.9056 54.0642 23.7723 54.3134 23.5336C54.5626 23.2949 54.7099 22.9692 54.7247 22.6245V22.5308ZM46.6886 21.3895C45.6194 21.3895 44.5742 21.0724 43.6852 20.4784C42.7962 19.8844 42.1033 19.0401 41.6942 18.0523C41.285 17.0645 41.1779 15.9776 41.3865 14.9289C41.5951 13.8803 42.11 12.917 42.866 12.161C43.622 11.405 44.5853 10.8901 45.6339 10.6815C46.6826 10.4729 47.7695 10.58 48.7573 10.9891C49.7451 11.3983 50.5894 12.0912 51.1834 12.9802C51.7774 13.8692 52.0945 14.9144 52.0945 15.9836C52.0899 17.418 51.5172 18.7923 50.5017 19.8054C49.4863 20.8186 48.1107 21.3882 46.6762 21.3895H46.6886Z" fill="white"/>
<path d="M81.106 5.93591C81.8439 5.93591 82.4421 5.33773 82.4421 4.59984C82.4421 3.86194 81.8439 3.26376 81.106 3.26376C80.3681 3.26376 79.77 3.86194 79.77 4.59984C79.77 5.33773 80.3681 5.93591 81.106 5.93591Z" fill="white"/>
<path d="M93.0271 3.26129C92.7624 3.26129 92.5036 3.3398 92.2835 3.48688C92.0634 3.63396 91.8918 3.84301 91.7905 4.08759C91.6892 4.33218 91.6627 4.60131 91.7143 4.86096C91.766 5.12062 91.8935 5.35912 92.0806 5.54632C92.2678 5.73352 92.5063 5.861 92.766 5.91265C93.0257 5.96429 93.2948 5.93779 93.5394 5.83648C93.784 5.73517 93.993 5.5636 94.1401 5.34348C94.2872 5.12336 94.3657 4.86457 94.3657 4.59983C94.3657 4.24483 94.2247 3.90436 93.9736 3.65334C93.7226 3.40232 93.3821 3.26129 93.0271 3.26129Z" fill="white"/>
<path d="M81.1011 8.27774C80.7478 8.27969 80.4096 8.42124 80.1602 8.67152C79.9109 8.9218 79.7706 9.26051 79.7699 9.61381C79.7699 9.65572 79.7699 9.70009 79.7699 9.742C79.7699 9.83813 79.7699 9.87265 79.7699 9.90716V22.5949C79.7611 22.9493 79.8934 23.2926 80.1377 23.5494C80.3821 23.8062 80.7184 23.9554 81.0727 23.9643C81.4271 23.9731 81.7704 23.8408 82.0272 23.5965C82.284 23.3521 82.4333 23.0158 82.4421 22.6615V9.90962C82.4421 9.87511 82.4421 9.8406 82.4421 9.80609C82.4421 9.70255 82.4421 9.65818 82.4421 9.61628C82.4414 9.26105 82.2999 8.92059 82.0485 8.66964C81.797 8.41869 81.4563 8.27774 81.1011 8.27774Z" fill="white"/>
<path d="M8.01646 7.96713C5.94032 8.03998 3.97353 8.91595 2.53056 10.4104C1.08759 11.9049 0.281128 13.9012 0.281128 15.9786C0.281128 18.0561 1.08759 20.0524 2.53056 21.5468C3.97353 23.0413 5.94032 23.9173 8.01646 23.9901C9.76736 23.9934 11.4703 23.4179 12.8603 22.3533L13.3805 21.9565V22.6122C13.3953 22.9569 13.5426 23.2826 13.7918 23.5213C14.041 23.76 14.3727 23.8933 14.7178 23.8933C15.0628 23.8933 15.3946 23.76 15.6437 23.5213C15.8929 23.2826 16.0403 22.9569 16.0551 22.6122V15.9811C16.0551 15.8899 16.0452 15.799 16.0255 15.7099C15.9564 13.6323 15.0822 11.6629 13.5876 10.218C12.0931 8.77315 10.0953 7.96598 8.01646 7.96713ZM8.01646 21.3895C6.94727 21.3895 5.90209 21.0724 5.01309 20.4784C4.12409 19.8844 3.4312 19.0401 3.02204 18.0523C2.61288 17.0645 2.50583 15.9776 2.71441 14.9289C2.923 13.8803 3.43787 12.917 4.1939 12.161C4.94993 11.405 5.91317 10.8901 6.96181 10.6815C8.01046 10.4729 9.09741 10.58 10.0852 10.9892C11.073 11.3983 11.9173 12.0912 12.5113 12.9802C13.1053 13.8692 13.4224 14.9144 13.4224 15.9836C13.4178 17.4159 12.8468 18.7883 11.834 19.8011C10.8212 20.8139 9.4488 21.3849 8.01646 21.3895Z" fill="white"/>
<path d="M20.7363 21.4955C20.4925 21.4955 20.2542 21.5678 20.0515 21.7032C19.8488 21.8386 19.6908 22.0311 19.5975 22.2564C19.5043 22.4816 19.4798 22.7294 19.5274 22.9685C19.575 23.2076 19.6924 23.4272 19.8647 23.5996C20.0371 23.7719 20.2567 23.8893 20.4958 23.9369C20.7349 23.9844 20.9827 23.96 21.2079 23.8667C21.4332 23.7735 21.6256 23.6155 21.7611 23.4128C21.8965 23.2101 21.9688 22.9718 21.9688 22.728C21.9688 22.4011 21.8389 22.0876 21.6078 21.8565C21.3767 21.6253 21.0632 21.4955 20.7363 21.4955Z" fill="white"/>
<path d="M105.668 7.96713C104.082 7.96665 102.532 8.43639 101.214 9.31695C99.8951 10.1975 98.8672 11.4493 98.2601 12.9141C97.653 14.3789 97.4939 15.9908 97.8029 17.546C98.1119 19.1012 98.8752 20.5298 99.9963 21.6512C101.117 22.7725 102.546 23.5363 104.101 23.8458C105.656 24.1553 107.268 23.9967 108.733 23.39C110.198 22.7833 111.45 21.7559 112.331 20.4375C113.212 19.1192 113.682 17.5692 113.682 15.9836C113.679 13.8587 112.834 11.8216 111.332 10.3188C109.83 8.81611 107.793 7.97039 105.668 7.96713ZM105.668 21.3895C104.599 21.3895 103.554 21.0724 102.665 20.4784C101.776 19.8844 101.083 19.0401 100.674 18.0523C100.264 17.0645 100.157 15.9776 100.366 14.9289C100.575 13.8803 101.089 12.917 101.846 12.161C102.602 11.405 103.565 10.8901 104.613 10.6815C105.662 10.4729 106.749 10.58 107.737 10.9892C108.725 11.3983 109.569 12.0912 110.163 12.9802C110.757 13.8692 111.074 14.9144 111.074 15.9836C111.069 17.4159 110.498 18.7883 109.486 19.8011C108.473 20.8139 107.1 21.3849 105.668 21.3895Z" fill="white"/>
<path d="M91.7009 22.5949C91.6966 22.7704 91.7268 22.945 91.7899 23.1087C91.853 23.2725 91.9478 23.4223 92.0687 23.5494C92.1897 23.6766 92.3345 23.7786 92.495 23.8498C92.6554 23.921 92.8283 23.9599 93.0037 23.9643C93.3581 23.9731 93.7014 23.8408 93.9582 23.5965C94.215 23.3522 94.3643 23.0158 94.3731 22.6615H94.6985L94.3706 22.6097V9.90962C94.3706 9.87511 94.3706 9.84307 94.3706 9.81102C94.3706 9.70009 94.3706 9.65819 94.3706 9.61628C94.3845 9.43264 94.3603 9.24813 94.2995 9.07427C94.2388 8.90041 94.1429 8.74096 94.0177 8.60588C93.8925 8.47079 93.7409 8.36299 93.5721 8.28921C93.4034 8.21543 93.2213 8.17726 93.0371 8.17709C92.8529 8.17692 92.6707 8.21476 92.5019 8.28822C92.333 8.36169 92.1811 8.46921 92.0557 8.60406C91.9303 8.73892 91.834 8.89819 91.773 9.07194C91.712 9.24568 91.6874 9.43015 91.7009 9.61381C91.7009 9.65572 91.7009 9.69763 91.7009 9.73953C91.7009 9.8406 91.7009 9.87265 91.7009 9.90716V22.5949Z" fill="white"/>
<path d="M69.9688 23.3739C70.9129 23.6672 71.9803 24 73.0822 24C74.1017 24.006 75.0969 23.6884 75.9244 23.0929C76.0649 22.9948 76.1847 22.87 76.277 22.7256C76.3692 22.5812 76.4321 22.4201 76.4621 22.2513C76.4921 22.0826 76.4886 21.9097 76.4517 21.7424C76.4149 21.575 76.3454 21.4166 76.2473 21.2761C76.1492 21.1356 76.0244 21.0158 75.8801 20.9235C75.7357 20.8313 75.5745 20.7683 75.4058 20.7384C75.2371 20.7084 75.0642 20.7119 74.8968 20.7488C74.7295 20.7856 74.5711 20.8551 74.4306 20.9532C73.4199 21.6631 72.4215 21.4018 70.7453 20.8792C69.971 20.6191 69.1772 20.4212 68.3714 20.2876L67.834 20.2136L75.2292 9.99343C75.3698 9.79846 75.4539 9.56849 75.4722 9.32883C75.4906 9.08916 75.4424 8.84908 75.3331 8.63502C75.2238 8.42095 75.0575 8.2412 74.8526 8.11553C74.6477 7.98986 74.4121 7.92316 74.1717 7.92276H64.6417C64.3054 7.93738 63.9876 8.08129 63.7548 8.32447C63.522 8.56766 63.392 8.89134 63.392 9.22802C63.392 9.5647 63.522 9.88838 63.7548 10.1316C63.9876 10.3747 64.3054 10.5187 64.6417 10.5333H71.6204L63.5842 21.6261C63.3984 21.8805 63.311 22.1935 63.338 22.5074C63.3651 22.8212 63.5048 23.1147 63.7314 23.3335C63.9581 23.5523 64.2562 23.6816 64.5708 23.6977C64.8854 23.7137 65.1952 23.6153 65.4429 23.4207C66.0192 23.0337 66.6961 22.8237 67.3903 22.8168C68.2112 22.8266 69.0666 23.0929 69.9688 23.3739Z" fill="white"/>
<path d="M85.733 22.5949C85.7241 22.9493 85.8564 23.2926 86.1007 23.5494C86.3451 23.8062 86.6814 23.9554 87.0358 23.9643C87.3901 23.9731 87.7334 23.8408 87.9902 23.5965C88.247 23.3521 88.3963 23.0158 88.4051 22.6615H88.7428L88.4125 22.6097V1.62941C88.4149 1.59659 88.4149 1.56363 88.4125 1.53081C88.4125 1.42235 88.4125 1.38044 88.4125 1.33607C88.3977 0.991329 88.2503 0.665622 88.0012 0.42692C87.752 0.188217 87.4202 0.0549622 87.0752 0.0549622C86.7301 0.0549622 86.3984 0.188217 86.1492 0.42692C85.9001 0.665622 85.7527 0.991329 85.7379 1.33607C85.7379 1.38044 85.7379 1.42235 85.7379 1.46179C85.7379 1.56286 85.7379 1.59737 85.7379 1.62941L85.733 22.5949Z" fill="white"/>
</g>
<defs>
<clipPath id="clip0_421_1765">
<rect width="113.682" height="24" fill="white"/>
</clipPath>
</defs>
</svg>
