<svg width="242" height="55" viewBox="0 0 242 55" fill="none" xmlns="http://www.w3.org/2000/svg">
  <g clip-path="url(#clip0_274_465)">
    <path d="M80.8299 26.3268V27.1495C80.8299 34.0043 76.3477 39.4902 69.0421 39.4902C62.2563 39.4902 56.8659 33.9714 56.8659 27.1528C56.8659 20.3341 62.1971 14.8483 69.0059 14.8483C74.0441 14.8483 78.0557 17.8989 79.5629 21.5287C79.6287 21.736 79.6649 21.9072 79.4576 21.9401L76.5123 22.3778C76.4196 22.4257 76.3126 22.4382 76.2113 22.4127C76.1101 22.3872 76.0217 22.3257 75.9627 22.2395C75.2719 21.06 74.2868 20.08 73.1037 19.3953C71.9206 18.7106 70.5801 18.3447 69.2132 18.3333C64.1058 18.3333 60.782 22.5127 60.782 27.1396C60.782 31.7666 63.9709 35.9821 69.2461 35.9821C74.6628 35.9821 76.9236 31.9377 76.9236 29.2293C76.9236 29.0253 76.8216 28.9002 76.6143 28.9002H69.7266C69.6393 28.9002 69.5556 28.8656 69.4939 28.8038C69.4321 28.7421 69.3975 28.6584 69.3975 28.5711V26.3268C69.3975 26.2395 69.4321 26.1558 69.4939 26.0941C69.5556 26.0324 69.6393 25.9977 69.7266 25.9977H80.4876C80.5319 25.9959 80.5762 26.0031 80.6176 26.0189C80.6591 26.0346 80.6969 26.0586 80.7289 26.0893C80.7609 26.12 80.7863 26.1569 80.8036 26.1977C80.821 26.2385 80.8299 26.2824 80.8299 26.3268Z" fill="#FAB41E"/>
    <path d="M84.0845 37.259C84.0845 36.8184 84.2152 36.3876 84.46 36.0212C84.7048 35.6549 85.0528 35.3693 85.4599 35.2007C85.867 35.0321 86.3149 34.9879 86.7471 35.0739C87.1793 35.1599 87.5762 35.3721 87.8878 35.6836C88.1994 35.9952 88.4116 36.3922 88.4975 36.8244C88.5835 37.2565 88.5394 37.7045 88.3708 38.1116C88.2021 38.5187 87.9166 38.8666 87.5502 39.1114C87.1838 39.3562 86.7531 39.4869 86.3124 39.4869C85.7247 39.4768 85.1639 39.2388 84.7483 38.8231C84.3327 38.4075 84.0947 37.8467 84.0845 37.259Z" fill="#FAB41E"/>
    <path d="M117.253 14.9503H119.208C119.295 14.9503 119.379 14.985 119.441 15.0467C119.502 15.1084 119.537 15.1921 119.537 15.2794V39.0295C119.537 39.1168 119.502 39.2005 119.441 39.2622C119.379 39.3239 119.295 39.3586 119.208 39.3586H115.986C115.899 39.3586 115.815 39.3239 115.753 39.2622C115.692 39.2005 115.657 39.1168 115.657 39.0295V24.3062C115.657 23.9969 115.417 23.8949 115.246 24.1351L107.693 36.2323C107.555 36.4725 107.364 36.4725 107.213 36.2323L99.6733 24.168C99.5022 23.9278 99.2653 23.9969 99.2653 24.3062V39.0426C99.2653 39.0873 99.2563 39.1315 99.2387 39.1725C99.2212 39.2135 99.1955 39.2506 99.1631 39.2814C99.1308 39.3121 99.0926 39.336 99.0507 39.3516C99.0089 39.3671 98.9643 39.374 98.9197 39.3717H95.698C95.6107 39.3717 95.527 39.3371 95.4653 39.2753C95.4036 39.2136 95.3689 39.1299 95.3689 39.0426V15.2926C95.3689 15.2053 95.4036 15.1216 95.4653 15.0599C95.527 14.9982 95.6107 14.9635 95.698 14.9635H97.6527C97.7387 14.9539 97.8256 14.9682 97.904 15.0047C97.9824 15.0413 98.0492 15.0988 98.097 15.1708L107.213 29.9402C107.234 29.9854 107.269 30.0236 107.311 30.0503C107.354 30.077 107.403 30.0912 107.453 30.0912C107.503 30.0912 107.552 30.077 107.595 30.0503C107.637 30.0236 107.671 29.9854 107.693 29.9402L116.825 15.1576C116.872 15.0882 116.936 15.0324 117.011 14.996C117.086 14.9596 117.17 14.9438 117.253 14.9503Z" fill="#FAB41E"/>
    <path d="M134.043 14.9503H135.655C135.74 14.9437 135.825 14.9632 135.899 15.0061C135.972 15.049 136.031 15.1134 136.067 15.1906L146.413 38.9735C146.519 39.2138 146.413 39.3849 146.176 39.3849H143.09C143.005 39.3915 142.92 39.3721 142.846 39.3291C142.773 39.2862 142.714 39.2218 142.678 39.1447L140.76 34.758C140.732 34.6825 140.68 34.6181 140.612 34.5748C140.545 34.5314 140.465 34.5114 140.384 34.5177H129.281C129.196 34.5111 129.111 34.5306 129.038 34.5735C128.964 34.6164 128.906 34.6808 128.87 34.758L126.951 39.1611C126.922 39.2366 126.87 39.3007 126.802 39.344C126.734 39.3873 126.653 39.4074 126.573 39.4014H123.456C123.216 39.4014 123.127 39.2302 123.216 38.99L133.632 15.207C133.665 15.1268 133.723 15.0589 133.796 15.0129C133.87 14.9669 133.956 14.945 134.043 14.9503ZM130.927 31.0228H138.739C138.979 31.0228 139.068 30.8517 138.979 30.6115L135.073 21.3576C135.058 21.3056 135.026 21.2598 134.983 21.2273C134.94 21.1947 134.887 21.1771 134.833 21.1771C134.779 21.1771 134.726 21.1947 134.683 21.2273C134.639 21.2598 134.608 21.3056 134.593 21.3576L130.686 30.6049C130.584 30.8517 130.686 31.0228 130.927 31.0228Z" fill="#FAB41E"/>
    <path d="M149.533 39.0427V15.2926C149.533 15.2053 149.568 15.1216 149.629 15.0599C149.691 14.9982 149.775 14.9635 149.862 14.9635H159.32C164.22 14.9635 167.919 18.2544 167.919 23.2235C167.919 26.7513 166 29.0813 163.601 30.4634C163.561 30.4864 163.526 30.5177 163.499 30.5551C163.472 30.5926 163.452 30.6354 163.443 30.6808C163.433 30.7262 163.433 30.773 163.443 30.8184C163.453 30.8637 163.472 30.9065 163.499 30.9439L167.715 38.9966C167.853 39.2368 167.715 39.4079 167.475 39.4079H163.993C163.909 39.4107 163.826 39.3896 163.753 39.3471C163.68 39.3046 163.621 39.2424 163.582 39.1677L159.777 31.6975C159.738 31.6228 159.679 31.5606 159.606 31.5181C159.534 31.4756 159.45 31.4545 159.366 31.4572H153.772C153.684 31.4572 153.601 31.4919 153.539 31.5536C153.477 31.6153 153.443 31.6991 153.443 31.7863V39.0525C153.443 39.1398 153.408 39.2235 153.346 39.2852C153.284 39.3469 153.201 39.3816 153.113 39.3816H149.892C149.845 39.3858 149.798 39.3801 149.754 39.3649C149.71 39.3496 149.67 39.3251 149.636 39.2931C149.602 39.261 149.575 39.2221 149.558 39.1789C149.54 39.1358 149.531 39.0893 149.533 39.0427ZM159.366 27.9393C159.984 27.9394 160.596 27.8166 161.165 27.5781C161.735 27.3396 162.252 26.9902 162.686 26.5501C163.119 26.1101 163.461 25.5882 163.691 25.0149C163.921 24.4415 164.035 23.8281 164.026 23.2104C164.026 19.9195 161.627 18.4452 158.922 18.4452H153.782C153.694 18.4452 153.611 18.4799 153.549 18.5416C153.487 18.6033 153.452 18.687 153.452 18.7743V27.5971C153.452 27.6844 153.487 27.7681 153.549 27.8298C153.611 27.8915 153.694 27.9262 153.782 27.9262L159.366 27.9393Z" fill="#FAB41E"/>
    <path d="M187.467 15.2926V18.0997C187.467 18.1869 187.432 18.2706 187.37 18.3324C187.309 18.3941 187.225 18.4288 187.138 18.4288H181.125C181.038 18.4288 180.954 18.4634 180.892 18.5251C180.831 18.5869 180.796 18.6706 180.796 18.7578V39.013C180.796 39.1003 180.761 39.184 180.7 39.2457C180.638 39.3074 180.554 39.3421 180.467 39.3421H177.281C177.194 39.3421 177.11 39.3074 177.049 39.2457C176.987 39.184 176.952 39.1003 176.952 39.013V18.7875C176.952 18.7002 176.918 18.6165 176.856 18.5548C176.794 18.493 176.711 18.4584 176.623 18.4584H170.538C170.494 18.4606 170.449 18.4537 170.407 18.4382C170.366 18.4227 170.327 18.3988 170.295 18.368C170.263 18.3372 170.237 18.3002 170.219 18.2591C170.202 18.2181 170.193 18.1739 170.193 18.1293V15.2926C170.193 15.2479 170.202 15.2038 170.219 15.1627C170.237 15.1217 170.263 15.0846 170.295 15.0539C170.327 15.0231 170.366 14.9992 170.407 14.9837C170.449 14.9681 170.494 14.9613 170.538 14.9635H187.121C187.166 14.9613 187.21 14.9681 187.252 14.9837C187.294 14.9992 187.332 15.0231 187.364 15.0539C187.397 15.0846 187.423 15.1217 187.44 15.1627C187.458 15.2038 187.467 15.2479 187.467 15.2926Z" fill="#FAB41E"/>
    <path d="M195.174 39.3849H191.952C191.865 39.3849 191.781 39.3502 191.719 39.2885C191.658 39.2268 191.623 39.1431 191.623 39.0558V15.2926C191.623 15.2053 191.658 15.1216 191.719 15.0599C191.781 14.9982 191.865 14.9635 191.952 14.9635H195.174C195.261 14.9635 195.345 14.9982 195.407 15.0599C195.468 15.1216 195.503 15.2053 195.503 15.2926V39.0427C195.505 39.087 195.497 39.1312 195.482 39.1726C195.466 39.2141 195.442 39.2519 195.411 39.2839C195.381 39.3159 195.344 39.3413 195.303 39.3587C195.262 39.376 195.218 39.3849 195.174 39.3849Z" fill="#FAB41E"/>
    <path d="M219.882 39.3849H217.723C217.642 39.387 217.563 39.3691 217.491 39.3329C217.419 39.2968 217.357 39.2434 217.311 39.1776L204.839 22.799C204.632 22.4897 204.428 22.6608 204.428 22.9701V39.0427C204.428 39.0873 204.419 39.1315 204.401 39.1725C204.384 39.2135 204.358 39.2506 204.326 39.2814C204.293 39.3122 204.255 39.336 204.213 39.3516C204.171 39.3671 204.127 39.374 204.082 39.3717H200.864C200.776 39.3717 200.693 39.3371 200.631 39.2754C200.569 39.2136 200.535 39.1299 200.535 39.0427V15.2926C200.535 15.2053 200.569 15.1216 200.631 15.0599C200.693 14.9982 200.776 14.9635 200.864 14.9635H203.022C203.103 14.9617 203.182 14.9797 203.254 15.0158C203.326 15.052 203.388 15.1052 203.434 15.1708L215.906 31.5494C216.146 31.8225 216.318 31.6876 216.318 31.3783V15.2926C216.318 15.2053 216.352 15.1216 216.414 15.0599C216.476 14.9982 216.559 14.9635 216.647 14.9635H219.868C219.956 14.9635 220.039 14.9982 220.101 15.0599C220.163 15.1216 220.197 15.2053 220.197 15.2926V39.0427C220.199 39.0859 220.192 39.129 220.177 39.1696C220.163 39.2102 220.14 39.2475 220.11 39.2793C220.081 39.3111 220.046 39.3368 220.007 39.3549C219.967 39.373 219.925 39.3832 219.882 39.3849Z" fill="#FAB41E"/>
    <path d="M223.778 31.9212C223.778 31.681 223.811 31.5428 224.153 31.4737L227.115 31.0623C227.388 31.0294 227.559 31.0623 227.559 31.3717C227.559 34.4223 229.991 35.9986 233.282 35.9986C236.161 35.9986 237.942 34.6263 237.942 32.7078C237.942 30.2758 235.404 29.5222 230.916 28.0479C226.769 26.6427 224.61 24.6221 224.61 21.0219C224.61 17.1157 228.04 14.8549 232.321 14.8549C237.017 14.8549 240.548 17.425 240.548 21.6406C240.548 21.8809 240.482 21.9467 240.242 22.0158L237.224 22.4271C236.987 22.4633 236.849 22.358 236.849 22.052C236.78 19.653 234.829 18.3498 232.242 18.3498C230.116 18.3498 228.507 19.4456 228.507 21.0911C228.507 22.9767 230.014 23.9343 234.022 25.1684C239.847 26.9159 241.802 29.3149 241.802 32.9151C241.802 36.7851 238.409 39.4968 233.302 39.4968C228.411 39.4902 223.778 37.4301 223.778 31.9212Z" fill="#FAB41E"/>
    <path d="M72.7278 50.9358C72.7278 50.87 72.7278 50.8107 72.8298 50.7943L74.1461 50.6232C74.2218 50.6232 74.2811 50.6232 74.2811 50.689C74.2811 51.3636 74.8965 51.6005 75.4493 51.6005C76.0022 51.6005 76.351 51.3932 76.351 51.0213C76.351 50.4981 75.5415 50.4224 74.4522 50.0538C73.4156 49.7017 72.8956 49.1127 72.8956 48.0958C72.8956 46.8255 73.9487 46.197 75.219 46.197C76.4892 46.197 77.6114 46.8354 77.6114 48.1715C77.6114 48.2307 77.5752 48.257 77.5193 48.2669L76.2029 48.438C76.1338 48.438 76.0976 48.4183 76.0976 48.3426C76.0976 47.8391 75.6599 47.6219 75.1762 47.6219C74.8635 47.6219 74.518 47.7535 74.518 48.1353C74.518 48.517 74.9458 48.6585 75.7521 48.8856C77.5357 49.3891 77.9734 50.1855 77.9734 51.1168C77.9734 52.3015 76.9565 53.0255 75.4756 53.0255C74.1527 53.0255 72.7278 52.5318 72.7278 50.9358Z" fill="#FAB41E"/>
    <path d="M85.9472 49.6063C85.9478 50.2815 85.7482 50.9418 85.3734 51.5035C84.9987 52.0652 84.4657 52.5031 83.842 52.7618C83.2183 53.0205 82.5319 53.0883 81.8696 52.9568C81.2073 52.8252 80.5989 52.5001 80.1215 52.0227C79.644 51.5452 79.3189 50.9368 79.1874 50.2745C79.0558 49.6122 79.1236 48.9258 79.3823 48.3021C79.641 47.6784 80.079 47.1455 80.6407 46.7707C81.2024 46.396 81.8626 46.1963 82.5379 46.197C82.9887 46.1857 83.437 46.2661 83.8558 46.4335C84.2745 46.6008 84.6549 46.8515 84.9737 47.1704C85.2926 47.4893 85.5433 47.8696 85.7107 48.2884C85.878 48.7071 85.9585 49.1555 85.9472 49.6063ZM80.7345 49.6063C80.7345 50.9555 81.6296 51.6005 82.5379 51.6005C83.4461 51.6005 84.3347 50.9424 84.3347 49.6063C84.3347 48.2702 83.4527 47.6318 82.5379 47.6318C81.623 47.6318 80.7345 48.257 80.7345 49.6063Z" fill="#FAB41E"/>
    <path d="M91.512 51.6664V52.9004C91.5129 52.9129 91.5112 52.9255 91.507 52.9372C91.5027 52.949 91.496 52.9598 91.4873 52.9688C91.4786 52.9778 91.4681 52.9849 91.4565 52.9895C91.4449 52.9942 91.4324 52.9964 91.4199 52.9959H87.563C87.5502 52.9968 87.5374 52.9951 87.5253 52.9906C87.5133 52.9862 87.5024 52.9792 87.4933 52.9701C87.4842 52.961 87.4772 52.9501 87.4728 52.9381C87.4683 52.9261 87.4666 52.9132 87.4675 52.9004V46.3187C87.4666 46.3059 87.4683 46.2931 87.4728 46.2811C87.4772 46.269 87.4842 46.2581 87.4933 46.249C87.5024 46.24 87.5133 46.233 87.5253 46.2285C87.5374 46.2241 87.5502 46.2223 87.563 46.2233H88.9879C89.0007 46.2223 89.0136 46.2241 89.0256 46.2285C89.0376 46.233 89.0485 46.24 89.0576 46.249C89.0667 46.2581 89.0737 46.269 89.0781 46.2811C89.0826 46.2931 89.0843 46.3059 89.0834 46.3187V51.4755C89.0829 51.488 89.085 51.5005 89.0897 51.5121C89.0943 51.5237 89.1014 51.5342 89.1104 51.5429C89.1194 51.5516 89.1302 51.5583 89.142 51.5626C89.1538 51.5668 89.1663 51.5686 89.1788 51.5676H91.4199C91.4327 51.5671 91.4455 51.5693 91.4573 51.5742C91.4692 51.579 91.4799 51.5864 91.4887 51.5958C91.4974 51.6052 91.504 51.6163 91.5081 51.6285C91.5121 51.6407 91.5134 51.6536 91.512 51.6664Z" fill="#FAB41E"/>
    <path d="M97.2414 46.2266H98.663C98.6758 46.2256 98.6886 46.2274 98.7007 46.2318C98.7127 46.2363 98.7236 46.2433 98.7327 46.2523C98.7418 46.2614 98.7487 46.2723 98.7532 46.2844C98.7576 46.2964 98.7594 46.3092 98.7584 46.322V50.0802C98.7584 51.3537 98.1595 53.0255 95.7605 53.0255C93.3614 53.0255 92.7493 51.3537 92.7493 50.0802V46.322C92.7484 46.3092 92.7502 46.2964 92.7546 46.2844C92.759 46.2723 92.766 46.2614 92.7751 46.2523C92.7842 46.2433 92.7951 46.2363 92.8071 46.2318C92.8192 46.2274 92.832 46.2256 92.8448 46.2266H94.2697C94.2822 46.2261 94.2947 46.2282 94.3063 46.2329C94.318 46.2376 94.3285 46.2446 94.3372 46.2536C94.3459 46.2627 94.3526 46.2734 94.3568 46.2852C94.3611 46.297 94.3628 46.3095 94.3619 46.322V50.0802C94.3619 51.1365 94.9049 51.6005 95.7605 51.6005C96.6161 51.6005 97.1163 51.1431 97.1459 50.0802V46.322C97.1449 46.3092 97.1467 46.2964 97.1512 46.2844C97.1556 46.2723 97.1626 46.2614 97.1717 46.2523C97.1808 46.2433 97.1917 46.2363 97.2037 46.2318C97.2157 46.2274 97.2286 46.2256 97.2414 46.2266Z" fill="#FAB41E"/>
    <path d="M106.584 50.87C106.377 52.0086 105.32 52.8807 104.03 53.0057L103.965 53.3348C103.965 53.3908 103.965 53.4204 104.03 53.4204C104.211 53.4306 104.38 53.5104 104.503 53.6429C104.626 53.7755 104.692 53.9506 104.689 54.1312C104.689 54.6281 104.03 55.0066 103.51 55.0066C103.239 55.003 102.973 54.9342 102.734 54.8058C102.717 54.7993 102.703 54.7873 102.694 54.7717C102.685 54.7562 102.682 54.738 102.684 54.7203V54.3221C102.683 54.3112 102.685 54.3002 102.689 54.2902C102.693 54.2801 102.7 54.2713 102.708 54.2646C102.717 54.258 102.727 54.2537 102.738 54.2522C102.749 54.2508 102.76 54.2521 102.77 54.2563C102.933 54.3095 103.102 54.3383 103.273 54.3418C103.56 54.3418 103.731 54.2168 103.731 54.0555C103.731 53.8383 103.56 53.7264 103.273 53.7264C103.139 53.7242 103.006 53.7535 102.885 53.812C102.819 53.8416 102.79 53.812 102.809 53.7462L103.102 52.9959C102.28 52.8261 101.549 52.3605 101.048 51.6874C100.547 51.0143 100.31 50.1805 100.382 49.3443C100.455 48.5082 100.832 47.7278 101.442 47.1513C102.052 46.5747 102.853 46.2422 103.691 46.2167C105.136 46.2167 106.324 47.1381 106.578 48.3722C106.578 48.4216 106.597 48.4973 106.522 48.5071L105.205 48.6783C105.179 48.688 105.151 48.6872 105.126 48.6762C105.1 48.6651 105.081 48.6446 105.07 48.619C104.966 48.3226 104.77 48.0671 104.511 47.8895C104.252 47.712 103.943 47.6217 103.629 47.6318C102.813 47.6318 101.983 48.2603 101.983 49.6063C101.983 50.9522 102.809 51.6104 103.629 51.6104C103.943 51.6205 104.252 51.5302 104.511 51.3526C104.77 51.1751 104.966 50.9196 105.07 50.6232C105.081 50.5982 105.101 50.5784 105.126 50.568C105.152 50.5576 105.18 50.5573 105.205 50.5672L106.522 50.735C106.604 50.7449 106.594 50.8206 106.584 50.87Z" fill="#FAB41E"/>
    <path d="M114.561 49.6063C114.562 50.2815 114.362 50.9418 113.987 51.5035C113.613 52.0652 113.08 52.5031 112.456 52.7618C111.832 53.0205 111.146 53.0883 110.484 52.9568C109.821 52.8252 109.213 52.5001 108.735 52.0226C108.258 51.5452 107.933 50.9368 107.801 50.2745C107.67 49.6122 107.738 48.9258 107.996 48.3021C108.255 47.6784 108.693 47.1454 109.255 46.7707C109.816 46.396 110.477 46.1963 111.152 46.197C111.603 46.1857 112.051 46.2661 112.47 46.4335C112.888 46.6008 113.269 46.8515 113.588 47.1704C113.907 47.4892 114.157 47.8696 114.325 48.2883C114.492 48.7071 114.572 49.1555 114.561 49.6063ZM110.441 45.0287C110.316 45.0334 110.195 45.0725 110.091 45.1416C109.987 45.2107 109.905 45.3071 109.852 45.4203C109.845 45.4385 109.831 45.4532 109.813 45.4617C109.795 45.4702 109.775 45.4719 109.756 45.4664L109.237 45.315C109.227 45.3145 109.217 45.3116 109.208 45.3067C109.199 45.3018 109.192 45.295 109.186 45.2867C109.18 45.2785 109.176 45.269 109.175 45.2591C109.173 45.2492 109.174 45.239 109.177 45.2294C109.273 44.8773 109.539 43.844 110.441 43.844C111.162 43.844 111.392 44.4791 111.876 44.4791C112.002 44.4907 112.129 44.4597 112.235 44.3912C112.342 44.3226 112.423 44.2204 112.465 44.1007C112.467 44.0906 112.471 44.0811 112.476 44.0726C112.482 44.0641 112.49 44.0569 112.498 44.0513C112.507 44.0458 112.517 44.0421 112.527 44.0404C112.537 44.0387 112.547 44.039 112.557 44.0414L113.07 44.1961C113.083 44.1971 113.095 44.2011 113.106 44.2078C113.117 44.2146 113.126 44.2238 113.133 44.2348C113.139 44.2458 113.143 44.2582 113.143 44.271C113.144 44.2837 113.142 44.2964 113.136 44.308C113.044 44.6799 112.807 45.6671 111.876 45.6671C111.106 45.6671 110.925 45.0287 110.441 45.0287ZM109.348 49.6063C109.348 50.9555 110.24 51.6005 111.152 51.6005C112.063 51.6005 112.949 50.9424 112.949 49.6063C112.949 48.2702 112.063 47.6318 111.152 47.6318C110.24 47.6318 109.348 48.257 109.348 49.6063Z" fill="#FAB41E"/>
    <path d="M120.445 51.6664V52.9004C120.446 52.9132 120.444 52.9261 120.44 52.9381C120.435 52.9501 120.428 52.961 120.419 52.9701C120.41 52.9792 120.399 52.9862 120.387 52.9906C120.375 52.9951 120.363 52.9968 120.35 52.9959H116.167C116.154 52.9968 116.141 52.9951 116.129 52.9906C116.117 52.9862 116.106 52.9792 116.097 52.9701C116.088 52.961 116.081 52.9501 116.077 52.9381C116.072 52.9261 116.071 52.9132 116.072 52.9004V46.3187C116.071 46.3059 116.072 46.2931 116.077 46.2811C116.081 46.269 116.088 46.2581 116.097 46.249C116.106 46.24 116.117 46.233 116.129 46.2285C116.141 46.2241 116.154 46.2223 116.167 46.2233H120.241C120.254 46.2223 120.267 46.2241 120.279 46.2285C120.291 46.233 120.302 46.24 120.311 46.249C120.32 46.2581 120.327 46.269 120.331 46.2811C120.336 46.2931 120.338 46.3059 120.337 46.3187V47.5528C120.337 47.5654 120.335 47.5781 120.33 47.5898C120.326 47.6016 120.319 47.6123 120.31 47.6213C120.301 47.6303 120.29 47.6373 120.278 47.6419C120.266 47.6465 120.254 47.6487 120.241 47.6482H117.783C117.77 47.6472 117.757 47.649 117.745 47.6535C117.733 47.6579 117.722 47.6649 117.713 47.674C117.704 47.6831 117.697 47.694 117.693 47.706C117.688 47.718 117.686 47.7309 117.687 47.7437V48.8527C117.686 48.8655 117.688 48.8783 117.693 48.8903C117.697 48.9024 117.704 48.9133 117.713 48.9224C117.722 48.9314 117.733 48.9384 117.745 48.9429C117.757 48.9473 117.77 48.9491 117.783 48.9481H119.557C119.569 48.9477 119.582 48.9498 119.594 48.9544C119.605 48.9591 119.616 48.9661 119.625 48.975C119.634 48.984 119.641 48.9947 119.646 49.0065C119.65 49.0183 119.653 49.0309 119.652 49.0435V50.2776C119.653 50.2903 119.65 50.3029 119.646 50.3147C119.641 50.3265 119.634 50.3372 119.625 50.3461C119.616 50.3551 119.605 50.3621 119.594 50.3667C119.582 50.3714 119.569 50.3735 119.557 50.3731H117.783C117.77 50.3721 117.757 50.3739 117.745 50.3783C117.733 50.3827 117.722 50.3897 117.713 50.3988C117.704 50.4079 117.697 50.4188 117.693 50.4308C117.688 50.4428 117.686 50.4557 117.687 50.4685V51.4755C117.687 51.488 117.689 51.5005 117.694 51.5121C117.698 51.5237 117.705 51.5342 117.714 51.5429C117.724 51.5516 117.734 51.5583 117.746 51.5626C117.758 51.5668 117.77 51.5686 117.783 51.5676H120.337C120.351 51.565 120.365 51.5657 120.379 51.5696C120.392 51.5735 120.405 51.5805 120.415 51.59C120.426 51.5996 120.434 51.6115 120.439 51.6247C120.444 51.6379 120.446 51.6522 120.445 51.6664Z" fill="#FAB41E"/>
    <path d="M121.867 50.9358C121.867 50.87 121.867 50.8107 121.972 50.7943L123.288 50.6232C123.364 50.6232 123.42 50.6232 123.42 50.689C123.42 51.3636 124.035 51.6005 124.588 51.6005C125.141 51.6005 125.49 51.3932 125.49 51.0213C125.49 50.4981 124.684 50.4224 123.591 50.0538C122.555 49.7017 122.035 49.1127 122.035 48.0958C122.035 46.8255 123.088 46.197 124.361 46.197C125.635 46.197 126.754 46.8354 126.754 48.1715C126.754 48.2307 126.714 48.257 126.658 48.2669L125.342 48.438C125.276 48.438 125.237 48.4183 125.237 48.3426C125.237 47.8391 124.799 47.6219 124.315 47.6219C124.003 47.6219 123.657 47.7535 123.657 48.1353C123.657 48.517 124.085 48.6585 124.891 48.8856C126.678 49.3891 127.112 50.1855 127.112 51.1168C127.112 52.3015 126.099 53.0255 124.618 53.0255C123.282 53.0255 121.867 52.5318 121.867 50.9358Z" fill="#FAB41E"/>
    <path d="M137.558 51.6664V52.9004C137.559 52.9132 137.557 52.9261 137.552 52.9381C137.548 52.9501 137.541 52.961 137.532 52.9701C137.523 52.9792 137.512 52.9862 137.5 52.9906C137.488 52.9951 137.475 52.9968 137.462 52.9959H133.279C133.267 52.9964 133.254 52.9942 133.243 52.9895C133.231 52.9849 133.221 52.9778 133.212 52.9688C133.203 52.9598 133.197 52.949 133.192 52.9372C133.188 52.9255 133.186 52.9129 133.187 52.9004V46.3187C133.186 46.3062 133.188 46.2937 133.192 46.2819C133.197 46.2701 133.203 46.2594 133.212 46.2504C133.221 46.2413 133.231 46.2343 133.243 46.2296C133.254 46.2249 133.267 46.2228 133.279 46.2233H137.354C137.366 46.2223 137.379 46.2241 137.391 46.2285C137.403 46.233 137.414 46.24 137.423 46.249C137.432 46.2581 137.439 46.269 137.444 46.2811C137.448 46.2931 137.45 46.3059 137.449 46.3187V47.5528C137.449 47.5654 137.447 47.5781 137.443 47.5898C137.438 47.6016 137.431 47.6123 137.422 47.6213C137.413 47.6303 137.402 47.6373 137.391 47.6419C137.379 47.6465 137.366 47.6487 137.354 47.6482H134.895C134.882 47.6472 134.87 47.649 134.858 47.6535C134.846 47.6579 134.835 47.6649 134.826 47.674C134.817 47.6831 134.81 47.694 134.805 47.706C134.801 47.718 134.799 47.7309 134.8 47.7437V48.8527C134.799 48.8655 134.801 48.8783 134.805 48.8903C134.81 48.9024 134.817 48.9133 134.826 48.9224C134.835 48.9314 134.846 48.9384 134.858 48.9429C134.87 48.9473 134.882 48.9491 134.895 48.9481H136.669C136.682 48.9471 136.695 48.9489 136.707 48.9534C136.719 48.9578 136.73 48.9648 136.739 48.9739C136.748 48.9829 136.755 48.9939 136.759 49.0059C136.764 49.0179 136.765 49.0308 136.764 49.0435V50.2776C136.765 50.2904 136.764 50.3032 136.759 50.3153C136.755 50.3273 136.748 50.3382 136.739 50.3473C136.73 50.3564 136.719 50.3634 136.707 50.3678C136.695 50.3722 136.682 50.374 136.669 50.3731H134.895C134.882 50.3721 134.87 50.3739 134.858 50.3783C134.846 50.3827 134.835 50.3897 134.826 50.3988C134.817 50.4079 134.81 50.4188 134.805 50.4308C134.801 50.4428 134.799 50.4557 134.8 50.4685V51.4755C134.799 51.488 134.801 51.5005 134.806 51.5121C134.811 51.5237 134.818 51.5342 134.827 51.5429C134.836 51.5516 134.847 51.5583 134.858 51.5626C134.87 51.5668 134.883 51.5686 134.895 51.5676H137.449C137.463 51.565 137.477 51.5657 137.491 51.5696C137.505 51.5735 137.517 51.5805 137.528 51.59C137.538 51.5996 137.546 51.6115 137.552 51.6247C137.557 51.6379 137.559 51.6522 137.558 51.6664Z" fill="#FAB41E"/>
    <path d="M145.301 46.2266H146.081C146.094 46.2256 146.107 46.2274 146.119 46.2318C146.131 46.2363 146.142 46.2433 146.151 46.2523C146.16 46.2614 146.167 46.2723 146.171 46.2844C146.176 46.2964 146.177 46.3092 146.176 46.322V52.9037C146.177 52.9165 146.176 52.9293 146.171 52.9414C146.167 52.9534 146.16 52.9643 146.151 52.9734C146.142 52.9825 146.131 52.9895 146.119 52.9939C146.107 52.9983 146.094 53.0001 146.081 52.9992H144.656C144.643 53.0001 144.63 52.9983 144.618 52.9939C144.606 52.9895 144.595 52.9825 144.586 52.9734C144.577 52.9643 144.57 52.9534 144.566 52.9414C144.561 52.9293 144.56 52.9165 144.561 52.9037V50.1032C144.561 50.0176 144.495 49.9913 144.449 50.0571L142.731 52.5615C142.726 52.5751 142.716 52.5867 142.704 52.595C142.692 52.6032 142.678 52.6076 142.663 52.6076C142.649 52.6076 142.635 52.6032 142.622 52.595C142.61 52.5867 142.601 52.5751 142.596 52.5615L140.888 50.067C140.839 49.9979 140.773 50.0176 140.773 50.1032V52.9037C140.774 52.9165 140.772 52.9293 140.768 52.9414C140.763 52.9534 140.756 52.9643 140.747 52.9734C140.738 52.9825 140.727 52.9895 140.715 52.9939C140.703 52.9983 140.69 53.0001 140.677 52.9992H139.256C139.243 53.0001 139.23 52.9983 139.218 52.9939C139.206 52.9895 139.195 52.9825 139.186 52.9734C139.177 52.9643 139.17 52.9534 139.165 52.9414C139.161 52.9293 139.159 52.9165 139.16 52.9037V46.322C139.159 46.3092 139.161 46.2964 139.165 46.2844C139.17 46.2723 139.177 46.2614 139.186 46.2523C139.195 46.2433 139.206 46.2363 139.218 46.2318C139.23 46.2274 139.243 46.2256 139.256 46.2266H140.032C140.056 46.2239 140.08 46.2277 140.102 46.2375C140.124 46.2473 140.143 46.2629 140.157 46.2825L142.596 50.0341C142.602 50.0465 142.612 50.057 142.624 50.0643C142.636 50.0716 142.649 50.0755 142.663 50.0755C142.677 50.0755 142.691 50.0716 142.703 50.0643C142.715 50.057 142.724 50.0465 142.731 50.0341L145.179 46.2825C145.193 46.2632 145.211 46.2477 145.232 46.2379C145.254 46.2281 145.278 46.2242 145.301 46.2266Z" fill="#FAB41E"/>
    <path d="M154.96 52.9827H152.541C152.528 52.9837 152.515 52.9819 152.503 52.9775C152.491 52.973 152.48 52.966 152.471 52.9569C152.462 52.9479 152.455 52.937 152.451 52.9249C152.446 52.9129 152.444 52.9001 152.445 52.8873V46.3056C152.444 46.2928 152.446 46.2799 152.451 46.2679C152.455 46.2559 152.462 46.245 152.471 46.2359C152.48 46.2268 152.491 46.2198 152.503 46.2154C152.515 46.2109 152.528 46.2091 152.541 46.2101H154.96C156.918 46.2101 158.484 47.6614 158.484 49.5997C158.484 51.538 156.918 52.9827 154.96 52.9827ZM155.055 47.6384H154.153C154.141 47.6374 154.128 47.6392 154.116 47.6436C154.104 47.6481 154.093 47.6551 154.084 47.6641C154.075 47.6732 154.068 47.6841 154.063 47.6961C154.059 47.7082 154.057 47.721 154.058 47.7338V51.4722C154.057 51.485 154.059 51.4978 154.063 51.5099C154.068 51.5219 154.075 51.5328 154.084 51.5419C154.093 51.5509 154.104 51.5579 154.116 51.5624C154.128 51.5668 154.141 51.5686 154.153 51.5676H155.055C155.542 51.5187 155.994 51.2907 156.322 50.9276C156.65 50.5646 156.832 50.0925 156.832 49.603C156.832 49.1135 156.65 48.6414 156.322 48.2784C155.994 47.9153 155.542 47.6873 155.055 47.6384Z" fill="#FAB41E"/>
    <path d="M161.334 52.9827H159.909C159.896 52.9837 159.883 52.9819 159.871 52.9775C159.859 52.973 159.848 52.966 159.839 52.9569C159.83 52.9479 159.823 52.937 159.819 52.9249C159.814 52.9129 159.813 52.9001 159.814 52.8873V46.3056C159.813 46.2928 159.814 46.2799 159.819 46.2679C159.823 46.2559 159.83 46.245 159.839 46.2359C159.848 46.2268 159.859 46.2198 159.871 46.2154C159.883 46.2109 159.896 46.2091 159.909 46.2101H161.334C161.347 46.2091 161.36 46.2109 161.372 46.2154C161.384 46.2198 161.395 46.2268 161.404 46.2359C161.413 46.245 161.42 46.2559 161.424 46.2679C161.429 46.2799 161.43 46.2928 161.429 46.3056V52.8873C161.43 52.9001 161.429 52.9129 161.424 52.9249C161.42 52.937 161.413 52.9479 161.404 52.9569C161.395 52.966 161.384 52.973 161.372 52.9775C161.36 52.9819 161.347 52.9837 161.334 52.9827Z" fill="#FAB41E"/>
    <path d="M163.045 50.9358C163.045 50.87 163.045 50.8107 163.147 50.7943L164.464 50.6232C164.539 50.6232 164.599 50.6232 164.599 50.689C164.599 51.3636 165.214 51.6005 165.767 51.6005C166.32 51.6005 166.668 51.3932 166.668 51.0213C166.668 50.4981 165.859 50.4224 164.77 50.0538C163.733 49.7017 163.21 49.1127 163.21 48.0958C163.21 46.8255 164.266 46.197 165.536 46.197C166.807 46.197 167.929 46.8354 167.929 48.1715C167.929 48.2307 167.893 48.257 167.837 48.2669L166.52 48.438C166.455 48.438 166.418 48.4183 166.418 48.3426C166.418 47.8391 165.981 47.6219 165.497 47.6219C165.184 47.6219 164.839 47.7535 164.839 48.1353C164.839 48.517 165.267 48.6585 166.073 48.8856C167.856 49.3891 168.294 50.1855 168.294 51.1168C168.294 52.3015 167.277 53.0255 165.796 53.0255C164.457 53.0255 163.045 52.5318 163.045 50.9358Z" fill="#FAB41E"/>
    <path d="M174.488 46.322V47.5561C174.488 47.5687 174.486 47.5814 174.481 47.5931C174.477 47.6049 174.47 47.6156 174.461 47.6246C174.452 47.6335 174.441 47.6406 174.429 47.6452C174.417 47.6498 174.405 47.652 174.392 47.6515H172.77C172.757 47.651 172.745 47.6532 172.733 47.6578C172.721 47.6625 172.711 47.6696 172.702 47.6786C172.694 47.6876 172.687 47.6984 172.683 47.7101C172.678 47.7219 172.677 47.7345 172.678 47.747V52.9004C172.679 52.9132 172.677 52.9261 172.672 52.9381C172.668 52.9501 172.661 52.961 172.652 52.9701C172.643 52.9792 172.632 52.9862 172.62 52.9906C172.608 52.9951 172.595 52.9969 172.582 52.9959H171.157C171.144 52.9969 171.132 52.9951 171.12 52.9906C171.108 52.9862 171.097 52.9792 171.088 52.9701C171.078 52.961 171.071 52.9501 171.067 52.9381C171.063 52.9261 171.061 52.9132 171.062 52.9004V47.747C171.063 47.7342 171.061 47.7213 171.057 47.7093C171.052 47.6973 171.045 47.6864 171.036 47.6773C171.027 47.6682 171.016 47.6612 171.004 47.6568C170.992 47.6523 170.979 47.6505 170.966 47.6515H169.321C169.308 47.652 169.296 47.6498 169.284 47.6452C169.272 47.6406 169.261 47.6335 169.252 47.6246C169.243 47.6156 169.236 47.6049 169.232 47.5931C169.227 47.5814 169.225 47.5687 169.225 47.5561V46.322C169.224 46.3092 169.226 46.2964 169.231 46.2844C169.235 46.2723 169.242 46.2614 169.251 46.2523C169.26 46.2433 169.271 46.2363 169.283 46.2318C169.295 46.2274 169.308 46.2256 169.321 46.2266H174.382C174.396 46.224 174.41 46.2245 174.423 46.2283C174.436 46.232 174.449 46.2387 174.459 46.248C174.469 46.2572 174.477 46.2688 174.482 46.2816C174.487 46.2945 174.489 46.3083 174.488 46.322Z" fill="#FAB41E"/>
    <path d="M176.008 52.9004V46.3187C176.007 46.3062 176.009 46.2937 176.013 46.2819C176.017 46.2701 176.024 46.2594 176.033 46.2504C176.041 46.2414 176.052 46.2343 176.063 46.2296C176.075 46.225 176.088 46.2228 176.1 46.2233H178.996C179.315 46.2132 179.634 46.2673 179.932 46.3824C180.23 46.4976 180.501 46.6714 180.731 46.8936C180.961 47.1158 181.143 47.3819 181.268 47.676C181.393 47.9702 181.457 48.2864 181.458 48.6059C181.464 49.0174 181.36 49.4232 181.156 49.7808C180.952 50.1385 180.656 50.435 180.299 50.6396C180.288 50.6456 180.278 50.654 180.27 50.6642C180.262 50.6744 180.257 50.6861 180.254 50.6986C180.251 50.7111 180.251 50.7241 180.254 50.7366C180.257 50.7492 180.262 50.761 180.27 50.7713L181.398 52.8774C181.438 52.9465 181.398 52.9926 181.333 52.9926H179.796C179.772 52.9944 179.749 52.989 179.728 52.9773C179.708 52.9656 179.691 52.948 179.681 52.9268L178.723 51.0543C178.712 51.0333 178.695 51.016 178.675 51.0043C178.655 50.9926 178.631 50.9871 178.608 50.9885H177.706C177.693 50.988 177.681 50.9902 177.669 50.9948C177.657 50.9994 177.646 51.0064 177.637 51.0154C177.629 51.0243 177.622 51.035 177.617 51.0468C177.612 51.0586 177.61 51.0712 177.611 51.0839V52.8972C177.612 52.9099 177.61 52.9228 177.605 52.9348C177.601 52.9468 177.594 52.9578 177.585 52.9668C177.576 52.9759 177.565 52.9829 177.553 52.9873C177.541 52.9918 177.528 52.9936 177.515 52.9926H176.09C176.067 52.9909 176.046 52.9803 176.03 52.9632C176.015 52.946 176.007 52.9235 176.008 52.9004ZM178.808 49.5701C178.939 49.5778 179.07 49.5586 179.193 49.5139C179.316 49.4691 179.429 49.3997 179.524 49.3099C179.619 49.2201 179.695 49.1117 179.747 48.9915C179.799 48.8713 179.826 48.7417 179.826 48.6108C179.826 48.4799 179.799 48.3503 179.747 48.2301C179.695 48.1099 179.619 48.0016 179.524 47.9117C179.429 47.8219 179.316 47.7525 179.193 47.7078C179.07 47.663 178.939 47.6439 178.808 47.6515H177.706C177.693 47.6505 177.68 47.6523 177.668 47.6568C177.656 47.6612 177.645 47.6682 177.636 47.6773C177.627 47.6864 177.62 47.6973 177.616 47.7093C177.611 47.7213 177.61 47.7342 177.611 47.747V49.4747C177.61 49.4873 177.612 49.4999 177.617 49.5117C177.622 49.5235 177.629 49.5342 177.637 49.5432C177.646 49.5521 177.657 49.5591 177.669 49.5638C177.681 49.5684 177.693 49.5706 177.706 49.5701H178.808Z" fill="#FAB41E"/>
    <path d="M184.59 52.9827H183.166C183.153 52.9832 183.141 52.9811 183.129 52.9764C183.117 52.9717 183.107 52.9647 183.098 52.9556C183.089 52.9466 183.083 52.9359 183.078 52.9241C183.074 52.9123 183.072 52.8998 183.073 52.8873V46.3056C183.072 46.2931 183.074 46.2805 183.078 46.2687C183.083 46.257 183.089 46.2462 183.098 46.2372C183.107 46.2282 183.117 46.2211 183.129 46.2165C183.141 46.2118 183.153 46.2096 183.166 46.2101H184.59C184.603 46.2091 184.616 46.2109 184.628 46.2154C184.64 46.2198 184.651 46.2268 184.66 46.2359C184.669 46.245 184.676 46.2559 184.681 46.2679C184.685 46.2799 184.687 46.2928 184.686 46.3056V52.8873C184.687 52.9001 184.685 52.9129 184.681 52.9249C184.676 52.937 184.669 52.9479 184.66 52.9569C184.651 52.966 184.64 52.973 184.628 52.9775C184.616 52.9819 184.603 52.9837 184.59 52.9827Z" fill="#FAB41E"/>
    <path d="M186.68 52.9004V46.3187C186.679 46.3059 186.681 46.2931 186.685 46.2811C186.69 46.269 186.697 46.2581 186.706 46.249C186.715 46.24 186.726 46.233 186.738 46.2285C186.75 46.2241 186.763 46.2223 186.776 46.2233H189.408C190.777 46.2233 191.518 46.9341 191.518 48.178C191.528 48.4112 191.482 48.6433 191.384 48.8551C191.286 49.0669 191.139 49.2522 190.955 49.3957C190.899 49.4319 190.899 49.4615 190.955 49.4977C191.222 49.6528 191.442 49.8786 191.589 50.1503C191.737 50.422 191.807 50.7291 191.791 51.0378C191.791 52.2817 191.05 52.9926 189.685 52.9926H186.769C186.757 52.9926 186.745 52.9902 186.734 52.9855C186.723 52.9808 186.713 52.974 186.705 52.9654C186.697 52.9568 186.69 52.9466 186.686 52.9354C186.682 52.9243 186.68 52.9124 186.68 52.9004ZM189.405 48.8955C189.492 48.9044 189.58 48.895 189.663 48.8678C189.746 48.8407 189.823 48.7963 189.888 48.7377C189.953 48.6791 190.005 48.6075 190.04 48.5275C190.076 48.4475 190.094 48.361 190.094 48.2735C190.094 48.186 190.076 48.0994 190.04 48.0195C190.005 47.9395 189.953 47.8679 189.888 47.8093C189.823 47.7506 189.746 47.7063 189.663 47.6791C189.58 47.652 189.492 47.6425 189.405 47.6515H188.391C188.379 47.6505 188.366 47.6523 188.354 47.6568C188.342 47.6612 188.331 47.6682 188.322 47.6773C188.313 47.6863 188.306 47.6973 188.301 47.7093C188.297 47.7213 188.295 47.7342 188.296 47.7469V48.8C188.295 48.8128 188.297 48.8257 188.301 48.8377C188.306 48.8497 188.313 48.8606 188.322 48.8697C188.331 48.8788 188.342 48.8858 188.354 48.8902C188.366 48.8947 188.379 48.8964 188.391 48.8955H189.405ZM189.691 51.5709C189.779 51.5799 189.867 51.5704 189.951 51.5431C190.034 51.5158 190.111 51.4712 190.177 51.4123C190.242 51.3533 190.294 51.2814 190.33 51.201C190.366 51.1206 190.384 51.0336 190.384 50.9457C190.384 50.8577 190.366 50.7707 190.33 50.6903C190.294 50.61 190.242 50.538 190.177 50.479C190.111 50.4201 190.034 50.3755 189.951 50.3482C189.867 50.3209 189.779 50.3114 189.691 50.3204H188.391C188.379 50.3195 188.366 50.3212 188.355 50.3254C188.343 50.3297 188.332 50.3364 188.323 50.3451C188.314 50.3538 188.307 50.3643 188.302 50.3759C188.298 50.3875 188.295 50.4 188.296 50.4125V51.4788C188.295 51.4913 188.298 51.5038 188.302 51.5154C188.307 51.527 188.314 51.5375 188.323 51.5462C188.332 51.5549 188.343 51.5616 188.355 51.5659C188.366 51.5701 188.379 51.5719 188.391 51.5709H189.691Z" fill="#FAB41E"/>
    <path d="M197.905 46.2266H199.33C199.343 46.2256 199.356 46.2274 199.368 46.2318C199.38 46.2363 199.391 46.2433 199.4 46.2523C199.409 46.2614 199.416 46.2723 199.42 46.2844C199.425 46.2964 199.427 46.3092 199.426 46.322V50.0802C199.426 51.3537 198.827 53.0255 196.424 53.0255C194.022 53.0255 193.413 51.3537 193.413 50.0802V46.322C193.412 46.3092 193.414 46.2964 193.418 46.2844C193.423 46.2723 193.43 46.2614 193.439 46.2523C193.448 46.2433 193.459 46.2363 193.471 46.2318C193.483 46.2274 193.496 46.2256 193.509 46.2266H194.934C194.946 46.2256 194.959 46.2274 194.971 46.2318C194.983 46.2363 194.994 46.2433 195.003 46.2523C195.012 46.2614 195.019 46.2723 195.024 46.2844C195.028 46.2964 195.03 46.3092 195.029 46.322V50.0802C195.029 51.1365 195.569 51.6005 196.424 51.6005C197.28 51.6005 197.78 51.1431 197.81 50.0802V46.322C197.809 46.3092 197.811 46.2964 197.815 46.2844C197.82 46.2723 197.827 46.2614 197.836 46.2523C197.845 46.2433 197.856 46.2363 197.868 46.2318C197.88 46.2274 197.892 46.2256 197.905 46.2266Z" fill="#FAB41E"/>
    <path d="M202.654 52.9827H201.229C201.216 52.9837 201.203 52.9819 201.191 52.9775C201.179 52.973 201.168 52.966 201.159 52.9569C201.15 52.9479 201.143 52.937 201.139 52.9249C201.134 52.9129 201.133 52.9001 201.134 52.8873V46.3056C201.133 46.2928 201.134 46.2799 201.139 46.2679C201.143 46.2559 201.15 46.245 201.159 46.2359C201.168 46.2268 201.179 46.2198 201.191 46.2154C201.203 46.2109 201.216 46.2091 201.229 46.2101H202.654C202.667 46.2091 202.68 46.2109 202.692 46.2154C202.704 46.2198 202.715 46.2268 202.724 46.2359C202.733 46.245 202.74 46.2559 202.744 46.2679C202.749 46.2799 202.75 46.2928 202.749 46.3056V52.8873C202.75 52.9001 202.749 52.9129 202.744 52.9249C202.74 52.937 202.733 52.9479 202.724 52.9569C202.715 52.966 202.704 52.973 202.692 52.9775C202.68 52.9819 202.667 52.9837 202.654 52.9827Z" fill="#FAB41E"/>
    <path d="M210.48 50.87C210.269 52.0086 209.216 52.8807 207.926 53.0057L207.857 53.3348C207.857 53.3908 207.857 53.4204 207.926 53.4204C208.106 53.4314 208.275 53.5114 208.397 53.6438C208.52 53.7762 208.587 53.9508 208.584 54.1312C208.584 54.6281 207.926 55.0066 207.406 55.0066C207.134 55.0027 206.866 54.9338 206.626 54.8058C206.61 54.7983 206.597 54.786 206.589 54.7706C206.581 54.7552 206.577 54.7376 206.58 54.7203V54.3221C206.578 54.3113 206.58 54.3003 206.584 54.2902C206.588 54.2801 206.595 54.2713 206.604 54.2646C206.612 54.258 206.623 54.2537 206.633 54.2522C206.644 54.2508 206.655 54.2522 206.665 54.2563C206.828 54.3095 206.998 54.3383 207.169 54.3418C207.452 54.3418 207.623 54.2168 207.623 54.0555C207.623 53.8383 207.452 53.7264 207.169 53.7264C207.034 53.7243 206.899 53.7536 206.777 53.812C206.712 53.8416 206.685 53.812 206.702 53.7462L206.995 52.9827C206.173 52.8129 205.442 52.3473 204.94 51.6742C204.439 51.0011 204.202 50.1674 204.275 49.3312C204.347 48.495 204.724 47.7146 205.334 47.1381C205.944 46.5616 206.745 46.229 207.584 46.2036C209.025 46.2036 210.216 47.125 210.47 48.3591C210.47 48.4084 210.47 48.4841 210.41 48.494L209.094 48.6651C209.082 48.6699 209.068 48.6721 209.055 48.6717C209.041 48.6713 209.028 48.6683 209.016 48.6628C209.004 48.6573 208.993 48.6494 208.984 48.6397C208.974 48.6299 208.967 48.6184 208.962 48.6059C208.858 48.3089 208.662 48.053 208.402 47.8754C208.142 47.6978 207.832 47.6079 207.518 47.6186C206.702 47.6186 205.872 48.2472 205.872 49.5931C205.872 50.9391 206.698 51.5973 207.518 51.5973C207.832 51.608 208.142 51.5181 208.402 51.3405C208.662 51.1629 208.858 50.907 208.962 50.61C208.973 50.5853 208.992 50.5656 209.017 50.5551C209.041 50.5446 209.069 50.5443 209.094 50.5541L210.41 50.7219C210.496 50.7449 210.486 50.8206 210.48 50.87Z" fill="#FAB41E"/>
    <path d="M214.488 46.2266H215.146C215.169 46.2246 215.192 46.2298 215.212 46.2416C215.233 46.2534 215.248 46.2712 215.258 46.2924L218.269 52.8741C218.299 52.9432 218.269 52.9893 218.203 52.9893H216.844C216.821 52.9913 216.798 52.9861 216.778 52.9743C216.758 52.9625 216.742 52.9447 216.732 52.9235L216.304 52.0218C216.296 52.0007 216.282 51.9829 216.263 51.971C216.244 51.9591 216.221 51.9538 216.199 51.956H213.435C213.412 51.9539 213.388 51.9592 213.368 51.971C213.348 51.9828 213.332 52.0005 213.323 52.0218L212.895 52.9235C212.887 52.9442 212.872 52.9617 212.853 52.9735C212.834 52.9854 212.812 52.9909 212.79 52.9893H211.434C211.365 52.9893 211.338 52.9432 211.365 52.8741L214.386 46.2924C214.395 46.2732 214.41 46.257 214.428 46.2454C214.446 46.2338 214.466 46.2273 214.488 46.2266ZM214.086 45.0583C213.962 45.0611 213.841 45.099 213.737 45.1678C213.634 45.2365 213.552 45.3332 213.501 45.4467C213.494 45.4654 213.48 45.4809 213.463 45.4901C213.445 45.4992 213.424 45.5013 213.405 45.496L212.882 45.3446C212.872 45.3431 212.863 45.3396 212.855 45.3344C212.847 45.3291 212.84 45.3223 212.835 45.3142C212.83 45.3062 212.826 45.2971 212.825 45.2876C212.823 45.2781 212.824 45.2684 212.826 45.2591C212.921 44.9069 213.185 43.8703 214.086 43.8703C214.81 43.8703 215.037 44.5088 215.521 44.5088C215.648 44.5207 215.775 44.4895 215.882 44.4202C215.989 44.351 216.069 44.2476 216.11 44.127C216.112 44.1169 216.117 44.1074 216.123 44.099C216.129 44.0906 216.137 44.0836 216.146 44.0783C216.155 44.0731 216.165 44.0697 216.175 44.0685C216.185 44.0672 216.196 44.0681 216.206 44.0711L216.719 44.2225C216.732 44.2245 216.743 44.2294 216.754 44.2366C216.764 44.2439 216.773 44.2534 216.779 44.2644C216.786 44.2754 216.789 44.2877 216.79 44.3004C216.791 44.3131 216.789 44.3258 216.785 44.3376C216.689 44.7062 216.456 45.6935 215.521 45.6935C214.751 45.6935 214.563 45.0583 214.086 45.0583ZM214.086 50.5376H215.521C215.587 50.5376 215.617 50.4882 215.587 50.4224L214.893 48.8198C214.888 48.8058 214.879 48.7937 214.868 48.785C214.856 48.7764 214.841 48.7717 214.827 48.7717C214.812 48.7717 214.798 48.7764 214.786 48.785C214.774 48.7937 214.765 48.8058 214.761 48.8198L214.037 50.4224C213.994 50.4882 214.021 50.5376 214.086 50.5376Z" fill="#FAB41E"/>
    <path d="M225.947 49.6063C225.947 50.2816 225.747 50.942 225.373 51.5038C224.998 52.0656 224.465 52.5035 223.841 52.7621C223.217 53.0207 222.53 53.0883 221.868 52.9565C221.205 52.8247 220.597 52.4993 220.12 52.0215C219.642 51.5437 219.318 50.935 219.186 50.2725C219.055 49.61 219.123 48.9234 219.383 48.2998C219.642 47.6762 220.08 47.1434 220.642 46.7691C221.205 46.3948 221.865 46.1956 222.541 46.1969C222.991 46.1861 223.439 46.2669 223.857 46.4344C224.276 46.602 224.656 46.8528 224.974 47.1716C225.293 47.4904 225.543 47.8706 225.71 48.2891C225.877 48.7076 225.958 49.1558 225.947 49.6063ZM220.737 49.6063C220.737 50.9555 221.629 51.6005 222.541 51.6005C223.452 51.6005 224.334 50.9424 224.334 49.6063C224.334 48.2702 223.452 47.6318 222.541 47.6318C221.629 47.6318 220.737 48.257 220.737 49.6063Z" fill="#FAB41E"/>
    <path d="M69.8253 48.9448H56.8758V50.3763H69.8253V48.9448Z" fill="#FAB41E"/>
    <path d="M241.812 48.9448H228.862V50.3763H241.812V48.9448Z" fill="#FAB41E"/>
    <path d="M42.7811 11.623L33.9385 6.51234C33.8808 6.47987 33.8141 6.46682 33.7483 6.47512C33.6825 6.48341 33.6212 6.51261 33.5733 6.55841L31.8489 8.20384C31.8129 8.23757 31.7856 8.2795 31.7693 8.32605C31.7531 8.3726 31.7483 8.42239 31.7554 8.47119C31.7625 8.51999 31.7813 8.56635 31.8102 8.60632C31.839 8.64629 31.8772 8.67869 31.9213 8.70076L40.5828 13.7226V35.5409L33.9517 39.3781V19.3467C33.9522 19.0945 33.8865 18.8466 33.7612 18.6277C33.6359 18.4088 33.4553 18.2267 33.2376 18.0994L26.205 14.0286C26.1308 13.9868 26.0452 13.9697 25.9606 13.9798C25.876 13.9898 25.7968 14.0265 25.7345 14.0846L24.1549 15.605C24.1116 15.6474 24.0787 15.6992 24.0587 15.7563C24.0386 15.8135 24.032 15.8745 24.0393 15.9346C24.0467 15.9947 24.0677 16.0524 24.1009 16.1031C24.134 16.1538 24.1784 16.1961 24.2305 16.2269L31.0623 20.176V41.0564L24.4313 44.8968V24.7963C24.431 24.543 24.3643 24.2943 24.2379 24.0749C24.1114 23.8554 23.9296 23.673 23.7106 23.5458L19.0869 20.8736C19.0107 20.8301 18.9224 20.8124 18.8352 20.8231C18.7481 20.8338 18.6667 20.8722 18.6032 20.9329L17.0433 22.4335C16.9948 22.4767 16.9573 22.5309 16.9341 22.5916C16.9109 22.6523 16.9027 22.7177 16.9101 22.7822C16.9176 22.8468 16.9404 22.9086 16.9768 22.9625C17.0131 23.0163 17.0619 23.0606 17.119 23.0917L21.5353 25.6486V46.3349L2.88937 35.5409V13.7094L22.177 2.54687C22.2165 2.52541 22.2512 2.4961 22.279 2.46073C22.3067 2.42536 22.3269 2.38468 22.3383 2.3412C22.3497 2.29772 22.3521 2.25237 22.3453 2.20794C22.3385 2.16351 22.3227 2.12094 22.2988 2.08286L21.1931 0.16758C21.1716 0.128536 21.1424 0.0942586 21.1073 0.0668266C21.0722 0.0393947 21.0319 0.0193794 20.9888 0.00799409C20.9457 -0.0033912 20.9008 -0.00590928 20.8567 0.000592495C20.8126 0.00709427 20.7703 0.0224805 20.7324 0.0458183L0.720696 11.623C0.50214 11.7507 0.320696 11.9333 0.1943 12.1526C0.0679029 12.3719 0.000929655 12.6204 0 12.8736L0 36.3735C0.000929655 36.6267 0.0679029 36.8752 0.1943 37.0945C0.320696 37.3138 0.50214 37.4963 0.720696 37.6241L21.022 49.3625C21.2421 49.4896 21.4918 49.5565 21.7459 49.5565C22.0001 49.5565 22.2498 49.4896 22.4699 49.3625L42.7811 37.6241C43.0005 37.497 43.1827 37.3147 43.3098 37.0953C43.4368 36.8759 43.5041 36.627 43.5051 36.3735V12.8736C43.5041 12.62 43.4368 12.3712 43.3098 12.1518C43.1827 11.9324 43.0005 11.7501 42.7811 11.623Z" fill="#FAB41E"/>
  </g>
  <defs>
    <clipPath id="clip0_274_465">
      <rect width="241.812" height="55" fill="white"/>
    </clipPath>
  </defs>
</svg>