<svg width="48" height="55" viewBox="0 0 48 55" fill="none" xmlns="http://www.w3.org/2000/svg">
  <path d="M46.6703 12.6829L37.0239 7.10757C36.9608 7.07215 36.8881 7.05791 36.8163 7.06696C36.7446 7.07601 36.6777 7.10786 36.6254 7.15783L34.7442 8.95284C34.705 8.98964 34.6752 9.03538 34.6575 9.08616C34.6397 9.13694 34.6345 9.19126 34.6422 9.2445C34.65 9.29773 34.6705 9.3483 34.702 9.39191C34.7335 9.43551 34.7751 9.47085 34.8232 9.49493L44.2721 14.9733V38.7751L37.0382 42.9611V21.1086C37.0388 20.8335 36.9671 20.5631 36.8304 20.3243C36.6937 20.0856 36.4967 19.8868 36.2592 19.748L28.5873 15.3072C28.5063 15.2616 28.413 15.2429 28.3207 15.2539C28.2284 15.2648 28.142 15.3049 28.074 15.3682L26.3507 17.0268C26.3036 17.0731 26.2677 17.1296 26.2458 17.1919C26.224 17.2543 26.2168 17.3208 26.2247 17.3864C26.2327 17.452 26.2557 17.5149 26.2919 17.5702C26.328 17.6255 26.3764 17.6717 26.4333 17.7053L33.8862 22.0133V44.792L26.6523 48.9816V27.0537C26.652 26.7774 26.5793 26.5061 26.4413 26.2667C26.3033 26.0273 26.105 25.8283 25.8661 25.6895L20.8221 22.7744C20.7389 22.727 20.6426 22.7076 20.5475 22.7193C20.4525 22.7309 20.3637 22.7729 20.2944 22.839L18.5927 24.4761C18.5397 24.5232 18.4989 24.5823 18.4736 24.6486C18.4483 24.7148 18.4393 24.7861 18.4474 24.8565C18.4555 24.927 18.4805 24.9944 18.5201 25.0532C18.5598 25.1119 18.613 25.1602 18.6753 25.1941L23.4931 27.9835V50.5504L3.15204 38.7751V14.9589L24.1931 2.78159C24.2362 2.75819 24.2741 2.72621 24.3043 2.68763C24.3346 2.64904 24.3566 2.60466 24.3691 2.55723C24.3815 2.5098 24.3841 2.46033 24.3767 2.41186C24.3693 2.36339 24.352 2.31695 24.326 2.2754L23.1197 0.18601C23.0963 0.143417 23.0645 0.106024 23.0262 0.0760978C22.9879 0.0461721 22.9439 0.0243372 22.8969 0.0119169C22.8499 -0.000503466 22.8009 -0.00325047 22.7528 0.00384238C22.7047 0.0109352 22.6585 0.0277202 22.6171 0.0531796L0.786214 12.6829C0.54779 12.8222 0.349851 13.0213 0.211963 13.2606C0.0740759 13.4998 0.00101417 13.7709 0 14.0471L0 39.6834C0.00101417 39.9595 0.0740759 40.2306 0.211963 40.4699C0.349851 40.7092 0.54779 40.9083 0.786214 41.0476L22.933 53.8532C23.1732 53.9919 23.4456 54.0648 23.7229 54.0648C24.0001 54.0648 24.2725 53.9919 24.5127 53.8532L46.6703 41.0476C46.9096 40.909 47.1084 40.7101 47.247 40.4708C47.3856 40.2314 47.459 39.96 47.4601 39.6834V14.0471C47.459 13.7705 47.3856 13.499 47.247 13.2597C47.1084 13.0203 46.9096 12.8215 46.6703 12.6829Z" fill="#FAB41E"/>
</svg>