<svg width="16" height="16" viewBox="0 0 16 16" fill="none" xmlns="http://www.w3.org/2000/svg">
<g clip-path="url(#clip0_512_42)">
<path d="M7.99986 0C3.58873 0 0 3.58873 0 7.99986C0 12.411 3.58873 16 7.99986 16C12.411 16 15.9997 12.4113 15.9997 7.99986C15.9997 3.58845 12.4113 0 7.99986 0ZM7.99986 14.9555C4.16475 14.9555 1.04422 11.835 1.04422 7.99986C1.04422 4.16475 4.16475 1.04422 7.99986 1.04422C11.835 1.04422 14.9552 4.16475 14.9552 7.99986C14.9552 11.835 11.8353 14.9555 7.99986 14.9555Z" fill="white"/>
<path d="M8.36072 8.13306L7.92413 9.65113L7.83325 9.96609L8.30654 11.5781H8.60936L8.99121 10.2771L8.36072 8.13306Z" fill="white"/>
<path d="M9.03226 5.04956H7.87064L7.67478 5.78842L7.17073 7.70019L6.38163 10.6771L4.85397 5.04956H3.65283L5.54598 11.5782H7.15238L7.72388 9.59333L8.25164 7.7603L9.03226 5.04956Z" fill="white"/>
<path d="M10.7427 5.04858L9.09957 10.647L8.82666 11.5775H9.37191H9.89289L11.8083 5.04858H10.7427Z" fill="white"/>
<path d="M12.3477 10.5208H11.2905V11.578H12.3477V10.5208Z" fill="white"/>
</g>
<defs>
<clipPath id="clip0_512_42">
<rect width="15.9997" height="16" fill="white"/>
</clipPath>
</defs>
</svg>
