<svg xmlns="http://www.w3.org/2000/svg" viewBox="0 0 550.78 300.04"><defs><style>.cls-1{fill:#fab41e;}</style></defs><g id="Layer_2" data-name="Layer 2"><g id="Layer_1-2" data-name="Layer 1"><path class="cls-1" d="M71.34,214.64v2.45c0,20.42-13.37,36.75-35.11,36.75C16,253.84,0,237.4,0,217.09s15.82-36.64,36.13-36.64c15,0,26.94,9.09,31.43,19.91.21.61.31,1.12-.3,1.22l-8.78,1.33a1.28,1.28,0,0,1-1.63-.41,23.52,23.52,0,0,0-20.11-11.64c-15.21,0-25.11,12.46-25.11,26.23s9.5,26.34,25.21,26.34c16.13,0,22.86-12.05,22.86-20.11,0-.61-.3-1-.91-1H38.27a1,1,0,0,1-1-1v-6.64a1,1,0,0,1,1-1h32A1,1,0,0,1,71.34,214.64Z"/><path class="cls-1" d="M81,247.2a6.64,6.64,0,1,1,6.63,6.64A6.76,6.76,0,0,1,81,247.2Z"/><path class="cls-1" d="M179.82,180.76h5.82a1,1,0,0,1,1,1v70.73a1,1,0,0,1-1,1H176a1,1,0,0,1-1-1V208.62c0-.92-.71-1.22-1.22-.51l-22.45,36c-.41.71-1,.71-1.43,0l-22.46-35.93c-.51-.71-1.22-.51-1.22.41v43.89a1,1,0,0,1-1,1h-9.6a1,1,0,0,1-1-1V181.78a1,1,0,0,1,1-1h5.82a1.41,1.41,0,0,1,1.33.61l27.15,44a.79.79,0,0,0,1.43,0l27.14-44A1.41,1.41,0,0,1,179.82,180.76Z"/><path class="cls-1" d="M229.83,180.76h4.79a1.25,1.25,0,0,1,1.23.71l30.82,70.83c.3.72,0,1.23-.71,1.23h-9.19a1.26,1.26,0,0,1-1.23-.72l-5.71-13.06a1.09,1.09,0,0,0-1.12-.71H215.64a1.25,1.25,0,0,0-1.23.71l-5.71,13.06a1.1,1.1,0,0,1-1.12.72h-9.29c-.71,0-1-.51-.71-1.23l31-70.83A1.24,1.24,0,0,1,229.83,180.76Zm-9.29,47.87h23.27c.71,0,1-.51.71-1.23l-11.63-27.55a.74.74,0,0,0-1.43,0L219.82,227.4C219.52,228.12,219.82,228.63,220.54,228.63Z"/><path class="cls-1" d="M276,252.51V181.78a1,1,0,0,1,1-1h28.17c14.6,0,25.62,9.8,25.62,24.6,0,10.51-5.72,17.45-12.86,21.53a1,1,0,0,0-.31,1.43l12.56,24c.4.72,0,1.23-.72,1.23H319a1.33,1.33,0,0,1-1.22-.72l-11.33-22.24a1.35,1.35,0,0,0-1.23-.72H288.61a1,1,0,0,0-1,1v21.64a1,1,0,0,1-1,1H277A1,1,0,0,1,276,252.51Zm29.29-33.07a13.88,13.88,0,0,0,13.88-14.08c0-9.8-7.14-14.19-15.2-14.19H288.61a1,1,0,0,0-1,1v26.23a1,1,0,0,0,1,1Z"/><path class="cls-1" d="M388.93,181.78v8.37a1,1,0,0,1-1,1H370.05a1,1,0,0,0-1,1v60.32a1,1,0,0,1-1,1h-9.49a1,1,0,0,1-1-1V192.19a1,1,0,0,0-1-1h-18a1,1,0,0,1-1-1v-8.37a1,1,0,0,1,1-1h49.4A1,1,0,0,1,388.93,181.78Z"/><path class="cls-1" d="M411.89,253.53H402.3a1,1,0,0,1-1-1V181.78a1,1,0,0,1,1-1h9.59a1,1,0,0,1,1,1v70.73A1,1,0,0,1,411.89,253.53Z"/><path class="cls-1" d="M485.47,253.53H479a1.46,1.46,0,0,1-1.22-.61l-37.15-48.79c-.61-.92-1.23-.41-1.23.51v47.87a1,1,0,0,1-1,1h-9.59a1,1,0,0,1-1-1V181.78a1,1,0,0,1,1-1h6.43a1.43,1.43,0,0,1,1.22.61l37.15,48.79c.72.81,1.23.41,1.23-.51V181.78a1,1,0,0,1,1-1h9.59a1,1,0,0,1,1,1v70.73A1,1,0,0,1,485.47,253.53Z"/><path class="cls-1" d="M497.1,231.28c0-.71.1-1.12,1.13-1.33l8.77-1.22c.82-.1,1.33,0,1.33.92,0,9.08,7.25,13.78,17,13.78,8.58,0,13.88-4.09,13.88-9.8,0-7.25-7.55-9.49-20.92-13.88-12.35-4.19-18.78-10.21-18.78-20.93,0-11.63,10.21-18.37,23-18.37,14,0,24.49,7.66,24.49,20.21,0,.72-.21.92-.92,1.12l-9,1.23c-.71.1-1.12-.2-1.12-1.12-.21-7.15-6-11-13.68-11-6.33,0-11.12,3.27-11.12,8.17,0,5.61,4.49,8.47,16.43,12.14,17.35,5.21,23.16,12.35,23.16,23.07,0,11.53-10.1,19.6-25.31,19.6C510.88,253.84,497.1,247.71,497.1,231.28Z"/><path class="cls-1" d="M47.24,287.93c0-.19,0-.36.31-.42l3.94-.51c.22,0,.39,0,.39.2,0,2,1.84,2.71,3.48,2.71s2.69-.62,2.69-1.72c0-1.56-2.41-1.78-5.66-2.89-3.08-1-4.64-2.8-4.64-5.82,0-3.79,3.14-5.66,6.93-5.66s7.13,1.9,7.13,5.89c0,.16-.12.25-.29.28l-3.93.51c-.2,0-.31-.06-.31-.29,0-1.49-1.3-2.15-2.74-2.15-.93,0-2,.4-2,1.53s1.27,1.56,3.68,2.24c5.31,1.49,6.61,3.87,6.61,6.64,0,3.54-3,5.69-7.43,5.69C51.46,294.16,47.24,292.68,47.24,287.93Z"/><path class="cls-1" d="M86.58,284a10.17,10.17,0,1,1-10.15-10.16A9.91,9.91,0,0,1,86.58,284Zm-15.52,0c0,4,2.66,5.93,5.37,5.93S81.77,288,81.77,284s-2.62-5.92-5.34-5.92S71.06,280,71.06,284Z"/><path class="cls-1" d="M103.16,290.11v3.68a.27.27,0,0,1-.29.28H91.39a.26.26,0,0,1-.28-.28v-19.6a.26.26,0,0,1,.28-.28h4.25a.26.26,0,0,1,.28.28v15.36a.26.26,0,0,0,.28.28h6.67A.27.27,0,0,1,103.16,290.11Z"/><path class="cls-1" d="M120.21,273.91h4.24a.27.27,0,0,1,.29.28v11.2c0,3.79-1.78,8.77-8.94,8.77s-9-5-9-8.77v-11.2a.26.26,0,0,1,.28-.28h4.24a.26.26,0,0,1,.28.28v11.2c0,3.14,1.62,4.52,4.16,4.52s4-1.35,4.13-4.52v-11.2A.26.26,0,0,1,120.21,273.91Z"/><path class="cls-1" d="M148,287.74c-.62,3.39-3.76,6-7.6,6.36l-.2,1c0,.17,0,.25.2.25a2.09,2.09,0,0,1,2,2.13c0,1.47-1.93,2.6-3.51,2.6a5.11,5.11,0,0,1-2.32-.6.24.24,0,0,1-.14-.25V298a.19.19,0,0,1,.25-.2,5.12,5.12,0,0,0,1.5.26c.85,0,1.36-.37,1.36-.85,0-.65-.51-1-1.36-1a2.43,2.43,0,0,0-1.16.26c-.2.08-.28,0-.22-.2l.87-2.24a10.2,10.2,0,0,1,1.76-20.19c4.3,0,7.86,2.75,8.59,6.42,0,.14.06.37-.17.4l-3.93.51a.3.3,0,0,1-.39-.17,4.42,4.42,0,0,0-4.3-2.92c-2.43,0-4.89,1.87-4.89,5.89s2.46,6,4.89,6a4.41,4.41,0,0,0,4.3-2.91.3.3,0,0,1,.39-.17l3.93.51C148.1,287.37,148.07,287.6,148,287.74Z"/><path class="cls-1" d="M171.8,284a10.17,10.17,0,1,1-10.15-10.16A9.91,9.91,0,0,1,171.8,284Zm-12.27-13.63a2,2,0,0,0-1.75,1.16.26.26,0,0,1-.29.14l-1.55-.46a.19.19,0,0,1-.17-.25c.28-1.05,1.07-4.13,3.76-4.13,2.15,0,2.83,1.89,4.27,1.89a1.67,1.67,0,0,0,1.75-1.13.23.23,0,0,1,.28-.17l1.53.46a.25.25,0,0,1,.2.34c-.28,1.1-1,4-3.76,4C161.51,272.24,161,270.35,159.53,270.35ZM156.28,284c0,4,2.66,5.93,5.37,5.93S167,288,167,284s-2.63-5.92-5.34-5.92S156.28,280,156.28,284Z"/><path class="cls-1" d="M189.31,290.11v3.68a.26.26,0,0,1-.28.28H176.61a.26.26,0,0,1-.28-.28v-19.6a.26.26,0,0,1,.28-.28h12.13a.27.27,0,0,1,.29.28v3.68a.27.27,0,0,1-.29.28h-7.32a.26.26,0,0,0-.28.28v3.31a.26.26,0,0,0,.28.28h5.29a.27.27,0,0,1,.28.29V286a.27.27,0,0,1-.28.29h-5.29a.26.26,0,0,0-.28.28v3a.26.26,0,0,0,.28.28H189A.26.26,0,0,1,189.31,290.11Z"/><path class="cls-1" d="M193.56,287.93c0-.19,0-.36.31-.42l3.93-.51c.22,0,.39,0,.39.2,0,2,1.84,2.71,3.48,2.71s2.69-.62,2.69-1.72c0-1.56-2.41-1.78-5.66-2.89-3.08-1-4.63-2.8-4.63-5.82,0-3.79,3.13-5.66,6.92-5.66s7.13,1.9,7.13,5.89c0,.16-.11.25-.28.28l-3.93.51c-.2,0-.32-.06-.32-.29,0-1.49-1.3-2.15-2.74-2.15-.93,0-2,.4-2,1.53s1.27,1.56,3.68,2.24c5.31,1.49,6.62,3.87,6.62,6.64,0,3.54-3,5.69-7.44,5.69C197.77,294.16,193.56,292.68,193.56,287.93Z"/><path class="cls-1" d="M240.25,290.11v3.68a.26.26,0,0,1-.28.28H227.55a.26.26,0,0,1-.28-.28v-19.6a.26.26,0,0,1,.28-.28h12.13a.27.27,0,0,1,.29.28v3.68a.27.27,0,0,1-.29.28h-7.32a.26.26,0,0,0-.28.28v3.31a.26.26,0,0,0,.28.28h5.29a.27.27,0,0,1,.28.29V286a.27.27,0,0,1-.28.29h-5.29a.26.26,0,0,0-.28.28v3a.26.26,0,0,0,.28.28H240A.26.26,0,0,1,240.25,290.11Z"/><path class="cls-1" d="M263.36,273.91h2.31a.27.27,0,0,1,.29.28v19.6a.27.27,0,0,1-.29.28h-4.24a.26.26,0,0,1-.28-.28v-8.34c0-.26-.2-.34-.34-.15l-5.12,7.47a.21.21,0,0,1-.39,0l-5.09-7.44c-.14-.2-.34-.14-.34.12v8.34a.27.27,0,0,1-.28.28h-4.25a.26.26,0,0,1-.28-.28v-19.6a.26.26,0,0,1,.28-.28h2.32a.4.4,0,0,1,.37.17l7.27,11.17a.21.21,0,0,0,.39,0l7.3-11.17A.38.38,0,0,1,263.36,273.91Z"/><path class="cls-1" d="M292.12,294.07h-7.21a.26.26,0,0,1-.28-.28v-19.6a.26.26,0,0,1,.28-.28h7.21a10.09,10.09,0,1,1,0,20.16Zm.29-15.92h-2.69a.26.26,0,0,0-.28.28v11.14a.27.27,0,0,0,.28.29h2.69a5.87,5.87,0,0,0,0-11.71Z"/><path class="cls-1" d="M311.1,294.07h-4.24a.26.26,0,0,1-.28-.28v-19.6a.26.26,0,0,1,.28-.28h4.24a.27.27,0,0,1,.29.28v19.6A.27.27,0,0,1,311.1,294.07Z"/><path class="cls-1" d="M316.19,287.93c0-.19,0-.36.32-.42l3.93-.51c.22,0,.39,0,.39.2,0,2,1.84,2.71,3.48,2.71s2.69-.62,2.69-1.72c0-1.56-2.41-1.78-5.66-2.89-3.08-1-4.64-2.8-4.64-5.82,0-3.79,3.14-5.66,6.93-5.66s7.13,1.9,7.13,5.89c0,.16-.12.25-.29.28l-3.93.51c-.19,0-.31-.06-.31-.29,0-1.49-1.3-2.15-2.74-2.15-.93,0-2,.4-2,1.53s1.27,1.56,3.68,2.24c5.31,1.49,6.61,3.87,6.61,6.64,0,3.54-3,5.69-7.43,5.69C320.41,294.16,316.19,292.68,316.19,287.93Z"/><path class="cls-1" d="M350.27,274.19v3.68a.26.26,0,0,1-.28.28h-4.84a.27.27,0,0,0-.28.28v15.36a.26.26,0,0,1-.28.28h-4.24a.26.26,0,0,1-.28-.28V278.43a.27.27,0,0,0-.29-.28h-4.86a.26.26,0,0,1-.28-.28v-3.68a.26.26,0,0,1,.28-.28H350A.26.26,0,0,1,350.27,274.19Z"/><path class="cls-1" d="M354.8,293.79v-19.6a.26.26,0,0,1,.28-.28h8.63A7.1,7.1,0,0,1,371,281a6.8,6.8,0,0,1-3.45,6.05.27.27,0,0,0-.08.39l3.36,6.28c.12.2,0,.34-.19.34h-4.59a.35.35,0,0,1-.34-.2l-2.85-5.57a.35.35,0,0,0-.34-.2h-2.66a.27.27,0,0,0-.28.29v5.4a.26.26,0,0,1-.28.28h-4.25A.26.26,0,0,1,354.8,293.79Zm8.34-9.93a2.86,2.86,0,1,0,0-5.71h-3.25a.26.26,0,0,0-.28.28v5.15a.26.26,0,0,0,.28.28Z"/><path class="cls-1" d="M380.37,294.07h-4.24a.26.26,0,0,1-.28-.28v-19.6a.26.26,0,0,1,.28-.28h4.24a.26.26,0,0,1,.28.28v19.6A.26.26,0,0,1,380.37,294.07Z"/><path class="cls-1" d="M386.59,293.79v-19.6a.27.27,0,0,1,.29-.28h7.83c4.07,0,6.28,2.12,6.28,5.82a4.36,4.36,0,0,1-1.67,3.62c-.17.12-.17.2,0,.31a5,5,0,0,1,2.48,4.58c0,3.71-2.2,5.83-6.27,5.83h-8.68A.27.27,0,0,1,386.59,293.79Zm8.12-11.94a1.86,1.86,0,0,0,2-1.83,1.88,1.88,0,0,0-2-1.87h-3a.26.26,0,0,0-.28.28v3.14a.26.26,0,0,0,.28.28Zm.85,8a1.91,1.91,0,0,0,2-1.87,1.88,1.88,0,0,0-2-1.86h-3.88a.26.26,0,0,0-.28.28v3.17a.26.26,0,0,0,.28.28Z"/><path class="cls-1" d="M420,273.91h4.24a.27.27,0,0,1,.29.28v11.2c0,3.79-1.79,8.77-8.94,8.77s-9-5-9-8.77v-11.2a.26.26,0,0,1,.28-.28h4.24a.26.26,0,0,1,.28.28v11.2c0,3.14,1.62,4.52,4.16,4.52s4-1.35,4.13-4.52v-11.2A.26.26,0,0,1,420,273.91Z"/><path class="cls-1" d="M434.17,294.07h-4.25a.26.26,0,0,1-.28-.28v-19.6a.26.26,0,0,1,.28-.28h4.25a.26.26,0,0,1,.28.28v19.6A.26.26,0,0,1,434.17,294.07Z"/><path class="cls-1" d="M457.47,287.74c-.62,3.39-3.76,6-7.61,6.36l-.2,1c0,.17,0,.25.2.25a2.09,2.09,0,0,1,2,2.13c0,1.47-1.92,2.6-3.51,2.6a5.07,5.07,0,0,1-2.31-.6.23.23,0,0,1-.14-.25V298a.19.19,0,0,1,.25-.2,5.06,5.06,0,0,0,1.5.26c.85,0,1.36-.37,1.36-.85,0-.65-.51-1-1.36-1a2.4,2.4,0,0,0-1.16.26c-.2.08-.28,0-.23-.2l.88-2.24a10.2,10.2,0,0,1,1.75-20.19c4.3,0,7.86,2.75,8.6,6.42,0,.14.06.37-.17.4l-3.93.51a.31.31,0,0,1-.4-.17,4.41,4.41,0,0,0-4.3-2.92c-2.43,0-4.89,1.87-4.89,5.89s2.46,6,4.89,6A4.4,4.4,0,0,0,453,287a.31.31,0,0,1,.4-.17l3.93.51C457.53,287.37,457.5,287.6,457.47,287.74Z"/><path class="cls-1" d="M469.41,273.91h1.92a.34.34,0,0,1,.34.2l9,19.62c.09.2,0,.34-.2.34h-4a.35.35,0,0,1-.34-.2l-1.27-2.68a.3.3,0,0,0-.31-.2h-8.23a.34.34,0,0,0-.34.2l-1.27,2.68a.31.31,0,0,1-.31.2h-4.05c-.2,0-.28-.14-.2-.34l9-19.62A.32.32,0,0,1,469.41,273.91Zm-1.19-3.48a2,2,0,0,0-1.76,1.16.23.23,0,0,1-.28.14l-1.55-.45a.2.2,0,0,1-.17-.26c.28-1,1.07-4.12,3.76-4.12,2.15,0,2.83,1.89,4.27,1.89a1.67,1.67,0,0,0,1.75-1.13c.06-.14.14-.2.28-.17l1.53.45a.25.25,0,0,1,.2.34c-.28,1.1-1,4-3.76,4C470.2,272.32,469.66,270.43,468.22,270.43Zm0,16.32h4.27c.2,0,.28-.14.2-.34l-2.13-4.78a.2.2,0,0,0-.39,0L468,286.41C467.93,286.61,468,286.75,468.22,286.75Z"/><path class="cls-1" d="M503.54,284a10.17,10.17,0,1,1-10.15-10.16A9.91,9.91,0,0,1,503.54,284ZM488,284c0,4,2.66,5.93,5.37,5.93s5.34-1.92,5.34-5.93-2.62-5.92-5.34-5.92S488,280,488,284Z"/><rect class="cls-1" y="282" width="38.57" height="4.26"/><rect class="cls-1" x="512.22" y="282" width="38.57" height="4.26"/><path class="cls-1" d="M338,34.62,311.71,19.4a.92.92,0,0,0-1.09.13l-5.14,4.93a.92.92,0,0,0,.18,1.45l25.84,15v65L311.75,117.3V57.62a4.3,4.3,0,0,0-2.15-3.72L288.67,41.78a1.16,1.16,0,0,0-1.39.17l-4.71,4.52a1.17,1.17,0,0,0,.23,1.86L303.14,60.1v62.19l-19.75,11.43V73.86a4.3,4.3,0,0,0-2.14-3.73l-13.76-8a1.21,1.21,0,0,0-1.44.17l-4.65,4.47a1.22,1.22,0,0,0,.24,1.92l13.15,7.61V138l-55.55-32.15v-65L276.67,7.59A1,1,0,0,0,277,6.21L273.74.5a1,1,0,0,0-1.38-.36L212.78,34.62a4.31,4.31,0,0,0-2.15,3.73v70a4.3,4.3,0,0,0,2.15,3.72l60.46,35a4.29,4.29,0,0,0,4.31,0l60.46-35a4.3,4.3,0,0,0,2.15-3.72v-70A4.31,4.31,0,0,0,338,34.62Z"/></g></g></svg>