<svg width="31" height="30" viewBox="0 0 31 30" fill="none" xmlns="http://www.w3.org/2000/svg">
<g clip-path="url(#clip0_438_2414)">
<path d="M15.9468 0L15.9159 0C11.923 0.00270866 8.09398 1.58772 5.26738 4.40789C2.44077 7.22807 0.847027 11.0535 0.835214 15.0464C0.834311 15.3854 0.900246 15.7212 1.02925 16.0347C1.15825 16.3482 1.34779 16.6332 1.58702 16.8734C1.82626 17.1136 2.11049 17.3043 2.42348 17.4345C2.73646 17.5648 3.07205 17.6321 3.41106 17.6325C4.09453 17.6325 4.75006 17.3612 5.23367 16.8783C5.71728 16.3953 5.98943 15.7401 5.99034 15.0567C5.9958 12.4266 7.04488 9.90626 8.90718 8.04911C10.7695 6.19196 13.2927 5.14986 15.9228 5.15169H15.9468C17.2502 5.15574 18.5401 5.41665 19.7426 5.91951C20.9451 6.42236 22.0367 7.1573 22.955 8.0823C23.8733 9.0073 24.6003 10.1042 25.0944 11.3104C25.5885 12.5165 25.8401 13.8082 25.8346 15.1116C25.8337 15.4509 25.8998 15.7871 26.029 16.1008C26.1582 16.4145 26.3481 16.6997 26.5877 16.9399C26.8273 17.1801 27.1119 17.3707 27.4253 17.5008C27.7387 17.6308 28.0746 17.6978 28.4139 17.6978C28.7538 17.6987 29.0905 17.6324 29.4047 17.5028C29.7188 17.3731 30.0043 17.1827 30.2446 16.9423C30.4849 16.702 30.6754 16.4165 30.8051 16.1024C30.9347 15.7882 31.001 15.4515 31.0001 15.1116C31.0001 11.1139 29.416 7.27899 26.5946 4.44668C23.7733 1.61437 19.9446 0.0154459 15.9468 0Z" fill="white"/>
<path d="M3.35953 24.9033C2.69004 24.9033 2.04797 25.1692 1.57456 25.6426C1.10116 26.116 0.835205 26.7581 0.835205 27.4276C0.835205 28.0971 1.10116 28.7392 1.57456 29.2126C2.04797 29.686 2.69004 29.9519 3.35953 29.9519C4.02788 29.9501 4.66838 29.684 5.14129 29.2118C5.61421 28.7395 5.88114 28.0994 5.88386 27.431C5.88486 27.0993 5.82012 26.7707 5.69338 26.4642C5.56664 26.1576 5.38041 25.8792 5.14545 25.6451C4.91858 25.4004 4.6416 25.2074 4.33341 25.0794C4.02521 24.9514 3.69304 24.8913 3.35953 24.9033Z" fill="white"/>
<path d="M28.4414 24.9548C27.9416 24.9534 27.4528 25.1004 27.0367 25.3771C26.6206 25.6538 26.296 26.0478 26.104 26.5091C25.9119 26.9705 25.8612 27.4784 25.9581 27.9686C26.055 28.4588 26.2952 28.9093 26.6483 29.2628C27.0014 29.6164 27.4515 29.8573 27.9416 29.9548C28.4317 30.0524 28.9397 30.0023 29.4013 29.8109C29.8629 29.6196 30.2573 29.2955 30.5346 28.8798C30.8118 28.464 30.9595 27.9754 30.9588 27.4757C30.9597 27.1443 30.8953 26.8161 30.7692 26.5096C30.6432 26.2032 30.4579 25.9247 30.2241 25.6899C29.9903 25.4551 29.7125 25.2688 29.4066 25.1414C29.1007 25.0141 28.7727 24.9484 28.4414 24.9479V24.9548Z" fill="white"/>
</g>
<defs>
<clipPath id="clip0_438_2414">
<rect width="30.1649" height="30" fill="white" transform="translate(0.835205)"/>
</clipPath>
</defs>
</svg>
